<svg width="40" height="40" viewBox="0 0 40 40" fill="none" xmlns="http://www.w3.org/2000/svg">
<path d="M19.4337 19.2682C22.0807 19.2682 24.3726 18.3187 26.2458 16.4455C28.1184 14.5727 29.0681 12.2811 29.0681 9.63381C29.0681 6.98725 28.1187 4.69546 26.2455 2.82195C24.3723 0.949373 22.0804 0 19.4337 0C16.7863 0 14.4947 0.949373 12.6219 2.82226C10.749 4.69515 9.79928 6.98702 9.79928 9.63381C9.79928 12.2811 10.749 14.573 12.6219 16.4459C14.4954 18.3185 16.7872 19.2682 19.4336 19.2682H19.4337ZM14.2796 4.47968C15.7166 3.04257 17.4025 2.34406 19.4337 2.34406C21.4647 2.34406 23.1507 3.04257 24.5881 4.47968C26.0252 5.91702 26.724 7.60311 26.724 9.63373C26.724 11.665 26.0252 13.3508 24.5881 14.7882C23.1507 16.2256 21.4647 16.9241 19.4337 16.9241C17.403 16.9241 15.7173 16.2253 14.2796 14.7882C12.8422 13.3511 12.1433 11.6651 12.1433 9.63381C12.1433 7.60311 12.8422 5.91702 14.2796 4.47968ZM36.2913 30.758C36.2372 29.9786 36.128 29.1283 35.9671 28.2306C35.8048 27.326 35.5958 26.4709 35.3455 25.6893C35.0867 24.8815 34.7355 24.0839 34.3006 23.3193C33.8498 22.5259 33.3201 21.835 32.7256 21.2664C32.1039 20.6717 31.3428 20.1935 30.4627 19.8446C29.5857 19.4977 28.6136 19.3219 27.5739 19.3219C27.1656 19.3219 26.7707 19.4894 26.0081 19.986C25.466 20.339 24.9222 20.6895 24.3769 21.0375C23.8529 21.3714 23.1431 21.6843 22.2663 21.9675C21.4109 22.2443 20.5424 22.3846 19.6848 22.3846C18.8279 22.3846 17.9593 22.2443 17.1033 21.9675C16.2276 21.6845 15.5174 21.3718 14.9943 21.0379C14.3872 20.65 13.838 20.296 13.3616 19.9856C12.5996 19.4891 12.2047 19.3215 11.7964 19.3215C10.7563 19.3215 9.78467 19.4976 8.90788 19.845C8.02835 20.1932 7.26694 20.6714 6.64468 21.2668C6.05023 21.8356 5.52046 22.5261 5.07 23.3193C4.63578 24.0838 4.28422 24.8812 4.02539 25.6896C3.77539 26.4712 3.56641 27.326 3.40406 28.2306C3.24289 29.1271 3.13398 29.9777 3.07992 30.7589C3.0268 31.5228 3 32.3178 3 33.121C3 35.209 3.66375 36.8993 4.97265 38.1459C6.26538 39.3763 7.97562 39.9999 10.0559 39.9999H29.3162C31.3959 39.9999 33.1061 39.3762 34.3992 38.146C35.7084 36.9002 36.3721 35.2093 36.3721 33.1206C36.3718 32.3147 36.3447 31.5197 36.2913 30.758ZM32.783 36.4477C31.9288 37.2606 30.7947 37.6559 29.3158 37.6559H10.056C8.57686 37.6559 7.4428 37.2606 6.5889 36.4481C5.75124 35.6506 5.34414 34.562 5.34414 33.121C5.34414 32.3714 5.36882 31.6314 5.41835 30.921C5.46648 30.2239 5.56507 29.4582 5.71132 28.6446C5.85562 27.8411 6.03929 27.0871 6.25781 26.4044C6.46749 25.7497 6.75343 25.1016 7.10804 24.4772C7.44648 23.8821 7.83585 23.3715 8.26554 22.9602C8.66749 22.5753 9.17413 22.2604 9.771 22.0243C10.323 21.8057 10.9435 21.6861 11.617 21.668C11.699 21.7118 11.8453 21.795 12.0821 21.9494C12.564 22.2635 13.1194 22.6218 13.7334 23.0139C14.4256 23.4552 15.3172 23.8537 16.3826 24.1976C17.4718 24.5498 18.5826 24.7286 19.6852 24.7286C20.7879 24.7286 21.8989 24.5498 22.9875 24.1979C24.0538 23.8534 24.9452 23.4552 25.6383 23.0132C26.2667 22.6117 26.8065 22.2638 27.2883 21.9494C27.5252 21.7953 27.6714 21.7117 27.7535 21.6681C28.4273 21.6861 29.0477 21.8057 29.6 22.0242C30.1967 22.2604 30.7033 22.5757 31.1052 22.9601C31.5349 23.3712 31.9242 23.8818 32.2627 24.4775C32.6176 25.1016 32.9039 25.7501 33.1132 26.4041C33.3321 27.0877 33.516 27.8414 33.6601 28.6443C33.806 29.4595 33.9049 30.2255 33.9531 30.9213V30.9219C34.0028 31.6295 34.0278 32.3693 34.0281 33.121C34.0278 34.5624 33.6207 35.6506 32.7831 36.4477H32.783Z" fill="#1D968F"/>
</svg>
