<svg width="40" height="40" viewBox="0 0 40 40" fill="none" xmlns="http://www.w3.org/2000/svg">
<g clip-path="url(#clip0_277_7049)">
<path d="M26.6667 3.33333H26.3817C25.6933 1.39333 23.84 0 21.6667 0H18.3333C16.16 0 14.3067 1.39333 13.6183 3.33333H13.3333C8.73833 3.33333 3 7.07167 3 11.6667V31.6667C3 36.2617 8.73833 40 13.3333 40H26.6667C31.2617 40 36 36.2617 36 31.6667V11.6667C36 7.07167 31.2617 3.33333 26.6667 3.33333ZM32.6667 31.6667C32.6667 34.4233 29.4233 36.6667 26.6667 36.6667H13.3333C10.5767 36.6667 6.33333 34.4233 6.33333 31.6667V11.6667C6.33333 8.91 10.5767 6.66667 13.3333 6.66667H15C15.9217 6.66667 16.6667 5.92 16.6667 5C16.6667 4.08 17.4133 3.33333 18.3333 3.33333H21.6667C22.5867 3.33333 23.3333 4.08167 23.3333 5C23.3333 5.91833 24.0783 6.66667 25 6.66667H26.6667C29.4233 6.66667 32.6667 8.91 32.6667 11.6667V31.6667ZM20.345 13.395C20.9967 14.045 20.9967 15.1 20.345 15.7517L17.2733 18.8233C16.485 19.6117 15.46 20.0067 14.435 20.0067C13.445 20.0067 12.455 19.6383 11.675 18.9L10.5933 17.875C9.925 17.2417 9.89667 16.1867 10.53 15.5183C11.1633 14.8483 12.2167 14.8233 12.885 15.4533L13.965 16.4767C14.2383 16.7333 14.6567 16.725 14.9167 16.4633L17.9883 13.3917C18.64 12.74 19.6933 12.74 20.345 13.3917V13.395ZM20.345 23.395C20.9967 24.045 20.9967 25.1 20.345 25.7517L17.2733 28.8233C16.485 29.6117 15.46 30.0067 14.435 30.0067C13.445 30.0067 12.455 29.6383 11.675 28.9L10.5933 27.875C9.925 27.2417 9.89667 26.1867 10.53 25.5183C11.1633 24.85 12.2167 24.8217 12.885 25.4533L13.965 26.4767C14.2383 26.7333 14.6567 26.7267 14.9167 26.4633L17.9883 23.3917C18.64 22.74 19.6933 22.74 20.345 23.3917V23.395ZM28.3333 18.3333C28.3333 19.2533 27.5883 20 26.6667 20H23.3333C22.4117 20 21.6667 19.2533 21.6667 18.3333C21.6667 17.4133 22.4117 16.6667 23.3333 16.6667H26.6667C27.5883 16.6667 28.3333 17.4133 28.3333 18.3333ZM28.3333 28.3333C28.3333 29.2533 27.5883 30 26.6667 30H23.3333C22.4117 30 21.6667 29.2533 21.6667 28.3333C21.6667 27.4133 22.4117 26.6667 23.3333 26.6667H26.6667C27.5883 26.6667 28.3333 27.4133 28.3333 28.3333Z" fill="#1D968F"/>
</g>
<defs>
<clipPath id="clip0_277_7049">
<rect width="40" height="40" fill="white"/>
</clipPath>
</defs>
</svg>
