<svg width="40" height="40" viewBox="0 0 40 40" fill="none" xmlns="http://www.w3.org/2000/svg">
<path d="M38 20C38 20.828 37.328 21.5 36.5 21.5H15.446L20.3105 26.3645C20.897 26.951 20.897 27.899 20.3105 28.4855C20.018 28.778 19.634 28.925 19.25 28.925C18.866 28.925 18.482 28.778 18.1895 28.4855L11.825 22.121C10.655 20.951 10.655 19.049 11.825 17.879L18.1895 11.5145C18.776 10.928 19.724 10.928 20.3105 11.5145C20.897 12.101 20.897 13.049 20.3105 13.6355L15.446 18.5H36.5C37.328 18.5 38 19.172 38 20ZM35.921 24.602C35.147 24.3005 34.2785 24.683 33.9785 25.454C31.7135 31.253 26.228 35 20.0015 35C11.7305 35 5.0015 28.271 5.0015 20C5.0015 11.729 11.729 5 20 5C26.2265 5 31.7135 8.747 33.977 14.546C34.2785 15.317 35.144 15.698 35.9195 15.398C36.692 15.0965 37.073 14.2265 36.7715 13.4555C34.055 6.497 27.4715 2 20 2C10.0745 2 2 10.0745 2 20C2 29.9255 10.0745 38 20 38C27.4715 38 34.055 33.503 36.773 26.546C37.0745 25.7735 36.6935 24.905 35.921 24.6035V24.602Z" fill="#1D968F"/>
</svg>
