<svg width="40" height="40" viewBox="0 0 40 40" fill="none" xmlns="http://www.w3.org/2000/svg">
<path d="M36.7746 15.0836C36.2956 13.6309 34.8698 11.9344 32.4278 11.9344H26.2372L24.3565 6.06975C23.6039 3.72701 21.5404 2.89648 20.0012 2.89648C18.4621 2.89648 16.3985 3.72842 15.6474 6.07117L13.7666 11.9344H7.57175C5.11562 11.9344 3.69552 13.6337 3.22923 15.0793C2.74736 16.5363 2.88909 18.7515 4.87327 20.1985L9.92017 23.8877L8.00402 29.8175C7.24578 32.1589 8.43203 34.0382 9.6764 34.9311C10.3666 35.4299 11.3346 35.8168 12.3961 35.8168C13.3605 35.813 14.2972 35.494 15.0634 34.9084L19.9998 31.2802L24.9333 34.907C26.549 36.0932 28.7798 36.0549 30.3076 34.941C31.5619 34.0453 32.7552 32.166 31.9942 29.8175L30.078 23.8877L35.1235 20.1999C37.1006 18.7586 37.248 16.5462 36.7732 15.0836H36.7746ZM33.4539 17.911L27.5794 22.204C27.3383 22.3798 27.159 22.6273 27.0671 22.9111C26.9753 23.1949 26.9755 23.5005 27.0677 23.7842L29.2985 30.6906C29.6713 31.8414 28.8322 32.5118 28.6494 32.6422C28.3524 32.8575 27.9942 32.9719 27.6273 32.9686C27.2605 32.9652 26.9044 32.8444 26.6114 32.6237L20.8374 28.379C20.5941 28.2004 20.3002 28.104 19.9984 28.1041V5.73103C20.381 5.73103 21.3051 5.84866 21.6552 6.93712L23.8519 13.7854C23.9438 14.071 24.1239 14.3202 24.3663 14.497C24.6088 14.6737 24.9011 14.769 25.2012 14.769H32.4264C33.5631 14.769 33.9613 15.6094 34.079 15.9651C34.1966 16.3265 34.3709 17.2407 33.4539 17.911Z" fill="#1D968F"/>
</svg>
