<svg xmlns="http://www.w3.org/2000/svg" enable-background="new 0 0 500 500" viewBox="0 0 500 500"><path fill="#d5dbdb" d="M211.6,235.81h-3.07c-0.54-2.39-1.46-4.64-2.68-6.69l0,0l2.26-2.26c0.8-0.8,0.8-2.09,0-2.89l-4.95-4.95
			c-0.8-0.8-2.09-0.8-2.89,0l-2.17,2.17c-2.02-1.27-4.25-2.23-6.62-2.84v-3.19c0-1.13-0.92-2.04-2.04-2.04h-6.99
			c-1.13,0-2.04,0.92-2.04,2.04v3.07c-2.39,0.54-4.64,1.46-6.69,2.68l-2.26-2.26c-0.8-0.8-2.09-0.8-2.89,0l-4.95,4.95
			c-0.8,0.8-0.8,2.09,0,2.89l2.17,2.17c-1.28,2.02-2.23,4.24-2.84,6.62h-3.19c-1.13,0-2.04,0.92-2.04,2.04v6.99
			c0,1.13,0.92,2.04,2.04,2.04h3.08c0.53,2.39,1.45,4.64,2.67,6.68l-2.26,2.26c-0.8,0.8-0.8,2.09,0,2.89l4.95,4.95
			c0.8,0.8,2.09,0.8,2.89,0l2.17-2.17c0,0,0,0,0,0c2.02,1.27,4.24,2.23,6.62,2.84c0,0,0,0,0,0v3.19c0,1.13,0.92,2.04,2.04,2.04h6.99
			c1.13,0,2.04-0.92,2.04-2.04v-3.07c0,0,0,0,0,0c2.39-0.54,4.64-1.45,6.68-2.68c0,0,0,0,0,0l2.26,2.26c0.8,0.8,2.09,0.8,2.89,0
			l4.95-4.95c0.8-0.8,0.8-2.09,0-2.89l-2.17-2.17c0,0,0,0,0,0c1.28-2.02,2.24-4.24,2.85-6.62h3.18c1.13,0,2.04-0.92,2.04-2.04v-6.99
			C213.64,236.72,212.73,235.81,211.6,235.81z M185.68,254.1c-7.18,0-13.01-5.82-13.01-13.01c0-7.19,5.83-13.01,13.01-13.01
			c7.19,0,13.02,5.82,13.02,13.01C198.7,248.28,192.87,254.1,185.68,254.1z"/><path fill="#f4f4f4" d="M438.01,166.34h-2.76c-0.49-2.15-1.31-4.17-2.41-6.01l0,0l2.03-2.03c0.72-0.72,0.72-1.88,0-2.6l-4.45-4.45
			c-0.72-0.72-1.88-0.72-2.6,0l-1.95,1.95c-1.81-1.14-3.82-2.01-5.96-2.55v-2.87c0-1.02-0.82-1.84-1.84-1.84h-6.29
			c-1.02,0-1.84,0.82-1.84,1.84v2.76c-2.15,0.49-4.17,1.31-6.02,2.41l-2.03-2.03c-0.72-0.72-1.88-0.72-2.6,0l-4.45,4.45
			c-0.72,0.72-0.72,1.88,0,2.6l1.96,1.96c-1.15,1.82-2.01,3.82-2.55,5.95h-2.87c-1.02,0-1.84,0.82-1.84,1.84V174
			c0,1.02,0.82,1.84,1.84,1.84h2.77c0.48,2.15,1.31,4.17,2.41,6.01l-2.03,2.03c-0.72,0.72-0.72,1.88,0,2.6l4.45,4.45
			c0.72,0.72,1.88,0.72,2.6,0l1.95-1.95c0,0,0,0,0,0c1.82,1.14,3.82,2.01,5.95,2.55c0,0,0,0,0,0v2.87c0,1.02,0.82,1.84,1.84,1.84
			h6.29c1.02,0,1.84-0.82,1.84-1.84v-2.76c0,0,0,0,0,0c2.15-0.49,4.17-1.31,6.01-2.41c0,0,0,0,0,0l2.03,2.03
			c0.72,0.72,1.88,0.72,2.6,0l4.45-4.45c0.72-0.72,0.72-1.88,0-2.6l-1.95-1.95c0,0,0,0,0,0c1.15-1.82,2.02-3.82,2.56-5.95h2.86
			c1.02,0,1.84-0.82,1.84-1.84v-6.29C439.85,167.16,439.02,166.34,438.01,166.34z M414.69,182.8c-6.46,0-11.71-5.24-11.71-11.71
			c0-6.47,5.24-11.71,11.71-11.71c6.47,0,11.71,5.24,11.71,11.71C426.4,177.56,421.16,182.8,414.69,182.8z"/><path fill="#1D968F" d="M436.53,349.75c-31.52,10.54-33.08,32.08-41.53,28.14c-0.44-0.2-0.81-0.42-1.14-0.69
					c-5.7-4.52,5.07-17.46-3.55-48.01c-5.44-19.33-16.52-54.8-3.56-62.08c11.1-6.22,15.12,24.11,31.28,16.4
					c11.75-5.6-10.91-23.53-1.16-30.98c10.81-8.25,17.07,15.31,25.54,5.99c8.45-9.31,5.97-30.84,16.82-27.79
					c0.17,0.05,0.33,0.11,0.48,0.16c10.18,3.38,5.01,19.31,1.1,29.58c-3.96,10.43-5.85,13.33-2.55,14.29
					c3.3,0.96,18.64-5.89,20.51,4.61c1.86,10.51-25.79,16.29-31.24,29.48c-5.46,13.2,19.36,0.49,17.21,14.39
					C463.5,331.22,452.19,344.53,436.53,349.75z"/><polygon fill="#15827c" points="452.58 325.41 419.01 332.36 434.24 298.11 434.26 298.15 459.66 286.24 435.53 295.2 453.32 255.2 441.77 278.1 429.87 265.4 440.68 280.26 423.06 315.21 396.6 289.39 422.03 317.25 399.98 361.35 404.17 363.34 417.9 334.86"/><path fill="#1D968F" d="M340.84,391.06c-0.8-1.73-4.02-8.4-4.87-12.64s-3.25-7.65-3.36-9.77c-0.11-2.13,3.35-3.46,4.16-7.85
				c0.81-4.39,2.48-11.57,3.62-11.38c1.14,0.19,2.09,8,3.22,9.91c1.12,1.91,4.09,4.24,1.9,7.07c-2.19,2.83-0.91,6.13,1.23,8.99
				c2.14,2.86-3.64,6.61-2.98,10.55c0.67,3.94-0.3,9.28-0.3,9.28L340.84,391.06z"/><path fill="#15827c" d="M341.66,382.6c-0.17,0-0.33-0.12-0.35-0.3c-0.35-2.6-1.18-4.56-1.85-6.15c-0.53-1.25-0.99-2.32-1.05-3.34
					c-0.08-1.25,0.6-2.24,1.26-3.19c0.61-0.88,1.24-1.8,1.37-2.99c0.27-2.49-2.09-7.94-2.12-7.99c-0.08-0.17,0-0.38,0.18-0.45
					c0.18-0.08,0.38,0,0.45,0.18c0.1,0.23,2.46,5.67,2.17,8.34c-0.15,1.36-0.86,2.39-1.48,3.3c-0.64,0.94-1.2,1.75-1.14,2.76
					c0.06,0.9,0.47,1.88,1,3.11c0.69,1.62,1.55,3.63,1.9,6.32c0.03,0.19-0.11,0.36-0.3,0.39C341.69,382.6,341.67,382.6,341.66,382.6
					z"/><path fill="#1D968F" d="M334.98,389.88c-0.85-0.36-1.23-4.97-2.8-5.62c-1.56-0.65-2.73-2.78-3.3-5c-0.57-2.23-5.15-3.07-6.07-5.46
				c-0.92-2.39,1.63-4.17,1.4-6.4s-2.19-5.37-0.85-6.87c1.34-1.49,3.87,3.53,5.18,4.53c1.31,1,3.84,2.06,3.19,3.97
				c-0.64,1.91,0.37,4.99,4.89,6.6C341.15,377.25,344.46,393.88,334.98,389.88z"/><path fill="#15827c" d="M335.49,381.95c-0.15,0-0.28-0.09-0.33-0.23c-0.94-2.67-2.35-3.7-3.98-4.89c-0.84-0.61-1.71-1.25-2.57-2.15
					c-2.57-2.71-1.51-7.57-1.46-7.77c0.04-0.19,0.22-0.3,0.41-0.26c0.19,0.04,0.3,0.23,0.26,0.41c-0.01,0.05-1.02,4.7,1.29,7.15
					c0.81,0.86,1.66,1.48,2.47,2.07c1.65,1.21,3.21,2.34,4.23,5.22c0.06,0.18-0.03,0.38-0.21,0.44
					C335.56,381.94,335.52,381.95,335.49,381.95z"/><path fill="#1D968F" d="M343.34,390.2c0.21-0.69,0.37-3.68,1.96-4.41c1.59-0.73,3.19-1.22,4.4-3.32s-0.12-5.28,1.2-7.49
				c1.33-2.21,4.47-0.22,6.03-2.44c1.56-2.22-2.09-5.92-0.86-7.56c1.22-1.64,2.85-6.04,1.11-6.57c-1.73-0.53-6.48,2.68-7.68,5.46
				c-1.2,2.78-3.69,4.45-4.21,6.64c-0.52,2.19-2.33,3.38-2.74,5.57s0.36,5.5-0.39,7.93C341.42,386.46,343.34,390.2,343.34,390.2z"/><path fill="#15827c" d="M346.37,382.1c-0.01,0-0.02,0-0.03,0c-0.19-0.01-0.34-0.17-0.33-0.36c0.3-5.96,2.29-9.24,4.4-11.89
					c1.61-2.02,2.54-5.86,2.55-5.9c0.04-0.18,0.23-0.3,0.42-0.25c0.18,0.04,0.3,0.23,0.25,0.42c-0.04,0.16-0.98,4.02-2.68,6.16
					c-2.04,2.56-3.96,5.73-4.25,11.5C346.7,381.95,346.55,382.09,346.37,382.1z"/><path fill="#15827c" d="M133.55,337.68c2.73-2.52,17.72-16.81,10.47-20.87c-6.95-3.9-10.13,15.09-10.83,19.96
			c-2.14-5.35-4.31-10.29-6.5-14.86c3.81-3.59,16.69-16.48,9.87-20.31c-6.45-3.62-9.66,12.49-10.64,18.71
			c-2.19-4.48-4.39-8.59-6.58-12.36c2.07-4.02,10.56-21.54,2.6-22.86c-7.21-1.2-4.9,14.64-3.7,20.98
			c-2.92-4.89-5.82-9.16-8.65-12.92c1.49-4.43,7.17-22.79-0.85-22.92c-7.17-0.11-2.85,14.62-0.67,20.94
			c-4.04-5.16-7.91-9.24-11.47-12.47c0.4-4.95,1.41-23.64-6.31-21.87c-6.69,1.53,0.08,13.76,3.85,19.73
			c-0.71-0.59-1.41-1.16-2.08-1.68c-3.11-2.41-6-4.25-8.65-5.68c-0.63-4.35-3.85-23.75-11.14-20.2c-6.5,3.16,4.24,14.51,8.98,19.09
			c-7.04-3.4-11.79-3.69-12.71-3.71c-4.45-4.25-16.7-15.01-20.06-8.4c-3.39,6.68,13.29,9.2,19.36,9.88
			c0.15,0.13,0.33,0.21,0.54,0.21c0.07,0,4.88,0.06,12.28,3.65c-6.27-0.41-22.23-0.76-20.59,6.4c1.82,7.93,18.68-3.07,22.3-5.54
			c2.67,1.42,5.63,3.29,8.79,5.75c1.03,0.81,2.11,1.7,3.22,2.67c-5.82-0.32-22.85-0.66-21.04,6.7c1.92,7.8,18.19-3.07,22.06-5.79
			c3.76,3.41,7.88,7.8,12.2,13.44c-5.23-0.33-23.44-0.96-21.58,6.63c1.93,7.89,18.56-3.29,22.19-5.84
			c2.95,3.92,5.99,8.44,9.05,13.63c-5.11-0.85-23.27-3.35-22.18,4.42c1.12,8.05,18.83-1.42,22.68-3.58
			c2.39,4.1,4.79,8.61,7.18,13.57c-4.61-1.02-23.39-4.73-22.68,3.25c0.73,8.22,19.47-0.77,23.02-2.55c2.15,4.5,4.28,9.35,6.38,14.62
			c-4.69-1.04-23.34-4.69-22.64,3.26c0.73,8.17,19.2-0.64,22.93-2.5c1.36,3.43,2.7,7.01,4.02,10.77c0.14,0.4,0.54,0.62,0.94,0.56
			c0.05-0.01,0.09-0.02,0.14-0.04c0.44-0.15,0.67-0.64,0.52-1.08C136.25,344.7,134.9,341.12,133.55,337.68z"/><path fill="#232e35" d="M241.41,182.8c-17.37,0-30.12,5.71-38.24,17.14c-8.14,11.43-12.2,28.9-12.2,52.41v27.15
				c0.08,6.21,0.47,11.99,1.15,17.35c1.79,14.05,5.66,25.17,11.6,33.35c8.2,11.32,20.84,16.98,37.91,16.98
				c17.29,0,30-5.78,38.13-17.37c8.12-11.57,12.2-29.26,12.2-53.07v-26.37c-0.23-23-4.4-40.02-12.54-51.04
				C271.3,188.31,258.62,182.8,241.41,182.8z M271.63,282.24c-0.22,16.71-2.76,28.94-7.63,36.7c-4.88,7.76-12.33,11.65-22.37,11.65
				c-10.18,0-17.79-4.11-22.8-12.35c-4.07-6.68-6.49-16.33-7.26-28.95c-0.19-2.96-0.28-6.07-0.28-9.35v-32.52
				c0.16-16.26,2.61-28.32,7.37-36.15c4.76-7.84,12.34-11.77,22.75-11.77c10.47,0,18.12,3.94,22.97,11.81
				c4.83,7.88,7.25,20.43,7.25,37.64V282.24z"/><path fill="#232e35" d="M152.89,219.57L152.89,219.57c-15.23,0-29.43,7.73-37.69,20.52l-59.21,91.63v0
					c0,7.9,6.41,14.31,14.31,14.31h58.54v25.12c0,6.64,5.38,12.02,12.02,12.02h0c6.64,0,12.02-5.38,12.02-12.02v-25.12h12.1
					c5.58,0,10.1-4.52,10.1-10.1l0,0c0-5.58-4.52-10.1-10.1-10.1h-12.1V219.57z M84.16,325.84l44.68-69.89v69.89H84.16z"/><path fill="#232e35" d="M405,325.68V219.42h0c-15.23,0-29.43,7.73-37.69,20.52l-59.21,91.63l0,0c0,7.9,6.41,14.31,14.31,14.31
					h58.54V371c0,6.64,5.38,12.02,12.02,12.02h0c6.64,0,12.02-5.38,12.02-12.02v-25.12h12.1c5.58,0,10.1-4.52,10.1-10.1v0
					c0-5.58-4.52-10.1-10.1-10.1H405z M336.27,325.68l44.68-69.89v69.89H336.27z"/><path fill="#d8a17c" d="M243.95,256.76c4.13,1.06,6.51,5.66,5.21,9.96c-1.03,3.43-2.89,7.84-6.2,13
					c-8.27,12.9-14.52,30.1-20.57,30.1c-6.05,0-8.27-10.61-2.62-24.51c5.1-12.57,9.68-29.02,14.12-29.88
					C236.13,255,240.34,255.83,243.95,256.76z"/><path fill="#d8a17c" d="M247.31,310.66c4.58-13.25,35.32,31.82,41.69,46.09s-2.27,7.64-18.24-11.07
					C254.79,326.98,245.51,315.87,247.31,310.66z"/><polygon fill="#d8a17c" points="288.85 354.89 292.62 359.54 286.5 364.55 282.57 360.37"/><path fill="#d8a17c" d="M218.08,302.3c11.96-7.31,7,49.26,2.83,64.33c-4.17,15.06-6.61,2.21-7.03-22.39
					C213.46,319.65,213.37,305.17,218.08,302.3z"/><polygon fill="#d8a17c" points="222.61 361.58 221.9 371.24 214.38 371.24 213.96 362.18"/><path fill="#d8a17c" d="M251.59,255.92c4.41-1.03,8.74,1.94,9.43,6.42c0.55,3.56,0.76,8.39-0.08,14.59
					c-2.09,15.48-0.34,33.84-6.1,36.73c-5.76,2.89-12.63-5.53-13.49-20.65c-0.77-13.67-3.79-30.57,0.05-33.46
					C243.34,258.09,247.73,256.82,251.59,255.92z"/><path fill="#15827c" d="M289.62,355.53l-7.12,6.07c0,0-39.43-42.3-41.21-48.69c-0.57-2.09-1-10.48-1.55-23.04
					c-2.07,8-8.25,16.12-10.87,19.81c-0.23,0.3-0.43,0.57-0.57,0.8c-0.3,0.48-0.52,0.82-0.59,1.02c-0.02,0.07-0.02,0.09-0.02,0.14
					c0.68,31.13-4.3,52.83-4.3,52.83l-10.53,0.11c0,0-0.93-45.39-0.41-58.03c0.45-10.53,14.85-47.23,14.85-47.23
					s26.79-17.71,29.31-0.55c1.71,0.23,3.18,0.43,4.23,0.59c1.09,0.16,1.73,0.27,1.73,0.27s4.64,7.03,4,18.87
					c-0.64,11.85-8,30.52-5.59,33.45C278.8,333.59,289.62,355.53,289.62,355.53z"/><path fill="#1d262d" d="M214.17,368.76c0,0-2.83,3.34-8.88,7.6c-6.06,4.27-7.57,3.24-7.76,4.91S222,382.4,222,382.4l0.14-13.75
					C222.13,368.65,214.19,368.41,214.17,368.76z"/><path fill="#1d262d" d="M286.15,364.11c0,0-0.18,4.37-2.34,11.46s-3.98,7.2-3.11,8.64c0.87,1.44,20.01-14.13,20.01-14.13
					l-8.34-10.94C292.37,359.13,285.95,363.82,286.15,364.11z"/><path fill="#d8a17c" d="M253.81,224.91c-1.18-0.2-2.38,0.81-2.63,2.17c-0.2,1.08-0.45,3.75-0.43,5.62
					c0.04,4.63-0.14,8.93,1.37,9.65c1.51,0.72,3.1-2.1,3.54-6.67c0.4-4.13,1.85-9.18,0.85-9.95
					C256.01,225.35,254.84,225.09,253.81,224.91z"/><path fill="#d8a17c" d="M211.89,244.86c-1.53-1.07-2.32-2.9-2.31-4.77c0.06-9.21,0.55-42.58,4.27-44.16
						c4.31-1.83,5.82,46.32,3.77,47.74C216.04,244.78,214.35,246.58,211.89,244.86z"/><path fill="#d8a17c" d="M212.2,199.68c0,0-1.09-2.64,0.54-5.77c1.22-2.33,3.31-3.36,4.68-2.58c1.37,0.78,1.86,0.9,1.27,3.47
						c-0.36,1.6,1.91,0.13,0.43,2.69c-1.48,2.56-3.03,4.45-3.03,4.45"/><path fill="#d8a17c" d="M238.27,206.37c1.27,1.67,1.31,3.98,0.38,5.85c-4.18,8.38-18.65,36.25-24.98,33.49
					c-7.44-3.24,6.85-27.16,11.85-33.55C229.7,206.85,235.19,202.34,238.27,206.37z"/><path fill="#d8a17c" d="M224.28,237.08c0,0-6.02,10.72-11.87,8.91c-6.48-2.01-1.78-33.61-1.78-33.61L224.28,237.08"/><path fill="#dd5e57" d="M218.73,221.98c0,0,9.76-21.96,18.73-17s-7.56,26.05-7.56,26.05L218.73,221.98z"/><path fill="#dd5e57" d="M268.49,232.14c-0.04,2.17,0.1,8.16,0.31,15.15c0.17,5.8,0.39,12.28,0.59,17.86
					c0.14,3.82,0.25,7.23,0.35,9.71c0.04,0.98-0.53,1.78-1.3,2.16c-0.63,0.28-24.52,0.87-29.55-1.36
					c-10.08-4.44-13.47-5.28-15.42-9.34c-1.26-2.62,3.71-54.03,5.34-58.26c0.9-2.34,4.44-3.33,7.04-3.52
					c1.39-0.1,2.79-0.06,2.91-0.06c0,0,1.02,0.2,0.98,0.34c0,0,13.88-1.18,13.93-1.2v-0.01h0.03c0,0,0.69-0.04,1.75-0.04
					c3.82,0.03,15.2,1.39,15.43,6.72c0.07,1.69-0.45,4.66-1.01,8.39c-0.06,0.36-0.11,0.73-0.18,1.09
					C269.15,223.4,268.6,227.69,268.49,232.14z"/><path fill="#d8a17c" d="M254.07,203.65c-7.11,5.33-15.35,1.08-15.35,1.08c3.62-2.96,3.2-5.9,3.2-5.9
						c-5.01,0.25-7.34-10.43-7.74-12.81c-0.39-2.39-1.55-11.12,9.38-10.68c10.93,0.43,8.87,13.34,8.23,18.45
						C251.16,198.89,254.6,203.25,254.07,203.65z"/><path fill="#1d262d" d="M252.58,181.06c-0.37-2.61-0.49-4.49-2.37-6.29c-2.25-2.16-5.34-1.57-8.01-1.05
						c-1.3,0.25-2.04-0.08-3.37-0.41c-1.29-0.33-3.87-0.55-5.35,0.94c-0.86,0.87-1.16,2.06-1.57,3.17c-0.4,1.06-0.99,1.94-1.89,2.65
						c-1.24,0.98-2.39,3-0.9,4.28c0.51,0.44,1.17,0.66,1.83,0.76c2.26,0.36,4.5-0.29,6.69-0.78c1.4-0.31,2.95-0.68,4.38-0.3
						c3.05,0.82,2.28,4.76,4.43,6.41c0.81,0.62,0.54-1.49,0.53-1.83c-0.01-0.82-0.03-1.65-0.04-2.47c-0.01-0.66-0.03-2.11,0.96-1.99
						c1.12,0.14,1.78,1.55,2.06,2.5c0.43,1.46,0.31,3,0.47,4.49c0.14,1.35-0.45,4.79,1.21,4.78c0.86-0.01,0.9-4.64,0.93-5.22
						C252.73,187.78,253.04,184.29,252.58,181.06z"/><path fill="#d8a17c" d="M244.03,247.01c-1.8-0.49-3.16-1.95-3.78-3.72c-3.03-8.7-13.78-40.3-10.81-43.03
						c3.45-3.17,21.04,41.68,19.59,43.7C247.91,245.54,246.93,247.8,244.03,247.01z"/><path fill="#d8a17c" d="M250.08,223.37c0,0-3.77,6.85-4.11,6.88c-0.34,0.03-8.43-17.95-8.43-17.95l-6.3,2.53
					c0,0,5.91,32.45,13.56,33.4c4.73,0.58,16.41-18.22,16.41-18.22"/><path fill="#d8a17c" d="M268.96,208.65c1.27,1.67,1.31,3.98,0.38,5.85c-4.18,8.38-18.65,36.25-24.98,33.49
					c-7.44-3.24,6.85-27.16,11.85-33.55C260.39,209.13,265.88,204.62,268.96,208.65z"/><path fill="#1d262d" d="M211.18,191.74l14.76-3.73c1.3-0.31,2.64,0.34,3.21,1.55l0,0c0.63,1.34,0.12,2.94-1.17,3.66
								l-14.49,7.37"/><ellipse cx="212.08" cy="196.22" fill="#1d262d" rx="4.11" ry="4.59" transform="rotate(-8.028 212.05 196.178)"/><ellipse cx="211.8" cy="196.26" fill="#fffffd" rx="2.97" ry="3.63" transform="rotate(-12.163 211.793 196.248)"/><path fill="#1d262d" d="M221.04,191.74l14.76-3.73c1.3-0.31,2.64,0.34,3.21,1.55v0c0.63,1.34,0.12,2.94-1.17,3.66l-14.49,7.37"/><ellipse cx="221.94" cy="196.22" fill="#1d262d" rx="4.11" ry="4.59" transform="rotate(-8.028 221.913 196.178)"/><ellipse cx="221.67" cy="196.26" fill="#fffffd" rx="2.97" ry="3.63" transform="rotate(-12.163 221.656 196.248)"/><path fill="#d8a17c" d="M229.12,203.73c-0.09-0.33-3.46-4.14-2.25-4.93c1.12-0.73,1.38,0.55,2.28,0.03
					c0.28-0.16-2.06-3.99,0.14-4.64c2.2-0.66,3.66,0.94,3.8,3.28c0.14,2.34-0.64,5.06-0.64,5.06L229.12,203.73z"/><path fill="#dd5e57" d="M249.43,223.64c0,0,9.76-21.96,18.73-17s-6.85,23.77-6.85,23.77L249.43,223.64z"/><path fill="#232e35" d="M291.96,258.85v17.9c0,23.81-4.07,41.5-12.2,53.07c-8.14,11.59-20.84,17.37-38.13,17.37
				c-17.07,0-29.71-5.66-37.91-16.98c-5.94-8.18-9.81-19.3-11.6-33.35c1.93-0.76,9.36-3.65,19.45-7.57
				c0.77,12.62,3.18,22.27,7.26,28.95c5.01,8.24,12.62,12.35,22.8,12.35c10.04,0,17.49-3.88,22.37-11.65
				c4.87-7.76,7.42-20,7.63-36.7v-15.98C280.27,263.03,287.53,260.36,291.96,258.85z"/><path fill="#f4f4f4" d="M203.94,120.36C203.94,120.36,203.94,120.36,203.94,120.36c0.03-0.31,0.05-0.63,0.05-0.95
			c0-5.61-4.55-10.16-10.16-10.16c-4.55,0-8.39,2.99-9.69,7.11c-0.24-0.02-0.47-0.04-0.72-0.04c-1.81,0-3.47,0.64-4.77,1.71
			c-1.48-0.84-3.19-1.33-5.02-1.33c-4.85,0-8.91,3.41-9.91,7.96h0c0,0,0,0-0.01,0c-0.62-0.17-30.52,0-30.52,0
			c-3.68,0-6.66,2.98-6.66,6.66c0,3.68,2.98,6.66,6.66,6.66h24.13h2.87h3.9h2.1h0.37h13.14h1.24c0.07-0.07,0.13-0.13,0.19-0.2
			c0.1,0.07,0.2,0.13,0.3,0.2h5.1h5.84h4.49h8.69h5.07c2.02-1.85,3.28-4.51,3.28-7.47C213.89,124.97,209.45,120.46,203.94,120.36z"/><path fill="#f4f4f4" d="M359.09,200.92C359.09,200.92,359.08,200.92,359.09,200.92c0.01-0.17,0.03-0.34,0.03-0.52
			c0-3.07-2.49-5.55-5.55-5.55c-2.49,0-4.59,1.63-5.3,3.88c-0.13-0.01-0.26-0.02-0.39-0.02c-0.99,0-1.9,0.35-2.61,0.93
			c-0.81-0.46-1.74-0.73-2.74-0.73c-2.65,0-4.87,1.86-5.42,4.35h0c0,0,0,0,0,0c-0.34-0.09-16.68,0-16.68,0
			c-2.01,0-3.64,1.63-3.64,3.64s1.63,3.64,3.64,3.64h13.19h1.57h2.13h1.15h0.2h7.19h0.68c0.04-0.04,0.07-0.07,0.1-0.11
			c0.06,0.04,0.11,0.07,0.16,0.11h2.79h3.19h2.45h4.75h2.77c1.1-1.01,1.79-2.47,1.79-4.08C364.53,203.44,362.1,200.97,359.09,200.92
			z"/><ellipse cx="243.11" cy="390.72" fill="#fff" rx="221.97" ry="8.39"/><ellipse cx="243.11" cy="384.53" fill="#d5dbdb" rx="221.97" ry="2.19"/><path fill="#dd5e57" d="M359.07,168.43h-74.33c-1.33,0-2.41-1.08-2.41-2.41v-24.17c0-1.33,1.08-2.41,2.41-2.41h74.33
				c1.33,0,2.41,1.08,2.41,2.41v24.17C361.49,167.35,360.41,168.43,359.07,168.43z"/><text fill="#f9fbfc" font-family="Roboto-Regular" font-size="14.422" letter-spacing="1" transform="translate(298.704 159.415)">ERROR</text><g><path fill="#dd5e57" d="M159.82,197.29h-29.26c-0.84,0-1.52-0.68-1.52-1.52v-29.26c0-0.84,0.68-1.52,1.52-1.52h29.26
				c0.84,0,1.52,0.68,1.52,1.52v29.26C161.34,196.61,160.66,197.29,159.82,197.29z"/><rect width="6.67" height="1.2" x="134.9" y="173.85" fill="#f9fbfc" transform="rotate(-45.001 138.234 174.451)"/><rect width="1.2" height="6.67" x="137.63" y="171.11" fill="#f9fbfc" transform="rotate(-44.992 138.239 174.453)"/><rect width="6.67" height="1.2" x="148.82" y="173.85" fill="#f9fbfc" transform="rotate(-45.001 152.151 174.451)"/><rect width="1.2" height="6.67" x="151.55" y="171.11" fill="#f9fbfc" transform="rotate(-45.001 152.151 174.451)"/><path fill="#f9fbfc" d="M153.8,186.58h-17.2c-0.49,0-0.88-0.39-0.88-0.88v-0.38c0-0.49,0.39-0.88,0.88-0.88h17.2
						c0.49,0,0.88,0.39,0.88,0.88v0.38C154.68,186.18,154.28,186.58,153.8,186.58z"/><path fill="#f9fbfc" d="M150.13,190.19h-0.7c-0.89,0-1.62-0.72-1.62-1.62v-3.5h3.93v3.5
						C151.75,189.47,151.02,190.19,150.13,190.19z"/></g><g><rect width="8.25" height="1.49" x="312.18" y="240.1" fill="#d5dbdb" transform="rotate(-45.001 316.307 240.85)"/><rect width="1.49" height="8.25" x="315.57" y="236.72" fill="#d5dbdb" transform="rotate(-44.992 316.316 240.853)"/><rect width="8.25" height="1.49" x="329.39" y="240.1" fill="#d5dbdb" transform="rotate(-45.001 333.51 240.85)"/><rect width="1.49" height="8.25" x="332.77" y="236.72" fill="#d5dbdb" transform="rotate(-45.001 333.51 240.85)"/></g><g><rect width="8.25" height="1.49" x="231.14" y="138.52" fill="#d5dbdb" transform="rotate(-45.001 235.263 139.268)"/><rect width="1.49" height="8.25" x="234.52" y="135.14" fill="#d5dbdb" transform="rotate(-44.992 235.269 139.269)"/><rect width="8.25" height="1.49" x="248.34" y="138.52" fill="#d5dbdb" transform="rotate(-45.001 252.466 139.268)"/><rect width="1.49" height="8.25" x="251.72" y="135.14" fill="#d5dbdb" transform="rotate(-45.001 252.466 139.268)"/></g></svg>