<svg width="24" height="24" viewBox="0 0 24 24" fill="none" xmlns="http://www.w3.org/2000/svg">
<g id="Frame">
<path id="Vector" d="M6.85483 5.86774C7.20967 5.44195 7.42256 4.90967 7.42256 4.34193C7.42256 3.06452 6.35804 2 5.08063 2C3.80322 2 2.7387 3.06452 2.7387 4.34193C2.7387 4.90967 2.95159 5.44195 3.30643 5.86774C1.78063 6.50642 1 7.60644 1 9.06129C1 9.70002 1.14194 10.1258 1.46129 10.4097C1.99352 10.871 3.12904 10.6581 3.51933 10.5871C3.98062 10.5162 4.5129 10.4452 5.08063 10.4452C5.64837 10.4452 6.18065 10.5161 6.64193 10.5871C7.49356 10.7291 8.20324 10.8355 8.70002 10.4097C9.01936 10.1614 9.16131 9.70006 9.16131 9.06134C9.16131 7.60644 8.38063 6.50642 6.85483 5.86774ZM5.08063 2.74513C5.96771 2.74513 6.71288 3.49031 6.71288 4.37738C6.71288 5.26446 5.96775 6.00968 5.08063 6.00968C4.19351 6.00968 3.44838 5.26451 3.44838 4.37743C3.44838 3.49035 4.19355 2.74513 5.08063 2.74513ZM8.23873 9.87742C7.99034 10.0903 7.42261 9.98387 6.74843 9.87742C6.25164 9.80647 5.68391 9.70002 5.08068 9.70002C4.47744 9.70002 3.90971 9.77097 3.41293 9.87742C2.73874 10.0194 2.17101 10.0903 1.92262 9.87742C1.78067 9.77097 1.70972 9.48708 1.70972 9.09679C1.70972 7.78388 2.4549 6.93226 3.94521 6.43551C4.26455 6.61296 4.65489 6.7194 5.08068 6.7194C5.50646 6.7194 5.8968 6.61296 6.21614 6.43551C7.70645 6.9323 8.45163 7.81938 8.45163 9.09679C8.45163 9.48708 8.38063 9.77097 8.23873 9.87742ZM20.6936 5.90323C21.0484 5.47744 21.2613 4.94516 21.2613 4.37743C21.2613 3.10002 20.1968 2.0355 18.9194 2.0355C17.642 2.0355 16.5774 3.10002 16.5774 4.37743C16.5774 4.94516 16.7903 5.47744 17.1452 5.90323C15.6194 6.54196 14.8387 7.64193 14.8387 9.09679C14.8387 9.73552 14.9807 10.1613 15.3 10.4452C15.8323 10.9065 16.9678 10.6936 17.3581 10.6226C17.8194 10.5516 18.3871 10.4806 18.9194 10.4806C19.4871 10.4806 20.0194 10.5516 20.4807 10.6226C21.3323 10.7645 22.042 10.871 22.5387 10.4452C22.8581 10.1968 23 9.73552 23 9.09679C23 7.64193 22.2194 6.54192 20.6936 5.90323ZM18.9194 2.74513C19.8065 2.74513 20.5516 3.49031 20.5516 4.37738C20.5516 5.26446 19.8064 6.00964 18.9194 6.00964C18.0323 6.00964 17.2871 5.26446 17.2871 4.37738C17.2871 3.49031 18.0322 2.74513 18.9194 2.74513ZM22.0774 9.87742C21.829 10.0903 21.2613 9.98387 20.5871 9.87742C20.0903 9.80647 19.5226 9.70002 18.9194 9.70002C18.3161 9.70002 17.7484 9.77097 17.2516 9.87742C16.5774 9.98387 16.0097 10.0548 15.7613 9.87742C15.6194 9.77097 15.5484 9.48708 15.5484 9.09679C15.5484 7.78388 16.2936 6.93226 17.7839 6.43551C18.1032 6.61296 18.4936 6.7194 18.9194 6.7194C19.3452 6.7194 19.7355 6.61296 20.0548 6.43551C21.5451 6.9323 22.2903 7.81938 22.2903 9.09679C22.2903 9.48708 22.2194 9.77097 22.0774 9.87742ZM13.7742 17.7903C14.129 17.3645 14.3419 16.8323 14.3419 16.2645C14.3419 14.9871 13.2774 13.9226 12 13.9226C10.7226 13.9226 9.65805 14.9871 9.65805 16.2645C9.65805 16.8323 9.87094 17.3645 10.2258 17.7903C8.69998 18.4291 7.91935 19.529 7.91935 20.9839C7.91935 21.6226 8.06129 22.0484 8.38063 22.3323C8.91287 22.7936 10.0484 22.5807 10.4387 22.5097C10.9 22.4388 11.4677 22.3678 12 22.3678C12.5678 22.3678 13.1 22.4387 13.5613 22.5097C14.4129 22.6517 15.1226 22.7581 15.6194 22.3323C15.9387 22.0839 16.0807 21.6226 16.0807 20.9839C16.0807 19.529 15.3 18.429 13.7742 17.7903ZM12 14.6322C12.8871 14.6322 13.6323 15.3774 13.6323 16.2645C13.6323 17.1516 12.8871 17.8967 12 17.8967C11.1129 17.8967 10.3678 17.1516 10.3678 16.2645C10.3677 15.3774 11.1129 14.6322 12 14.6322ZM15.1581 21.8C14.9097 22.0129 14.342 21.9065 13.6678 21.8C13.171 21.7291 12.6033 21.6226 12 21.6226C11.3968 21.6226 10.8291 21.6935 10.3323 21.8C9.65809 21.9065 9.09036 21.9774 8.84196 21.8C8.70002 21.6936 8.62907 21.4097 8.62907 21.0194C8.62907 19.7065 9.37425 18.8549 10.8646 18.3581C11.1839 18.5355 11.5742 18.642 12 18.642C12.4258 18.642 12.8161 18.5356 13.1355 18.3581C14.6258 18.8549 15.371 19.742 15.371 21.0194C15.371 21.4097 15.3 21.6581 15.1581 21.8ZM19.8064 11.2613C19.7 13.958 18.1387 16.4419 15.7258 17.7548L16.0807 18.3936C18.7065 16.9742 20.3742 14.2419 20.5161 11.2968L19.8064 11.2613ZM12.0355 2.39029C10.6161 2.39029 9.19676 2.74513 7.95484 3.41931L8.30968 4.05804C9.4097 3.41931 10.6871 3.09997 12 3.09997C13.3129 3.09997 14.5903 3.41931 15.7258 4.05804L16.0807 3.41931C14.8387 2.74513 13.4548 2.39029 12.0355 2.39029ZM4.19355 11.2613L3.48388 11.2968C3.62582 14.4193 5.47097 17.2226 8.27419 18.6065L8.59353 17.9323C6.00321 16.6903 4.3355 14.1355 4.19355 11.2613ZM11.6452 9.84192H12.3549V10.5516H11.6452V9.84192ZM13.0645 9.84192H13.7742V10.5516H13.0645V9.84192ZM10.2258 9.84192H10.9355V10.5516H10.2258V9.84192Z" fill="#777777"/>
<path id="Vector (Stroke)" fill-rule="evenodd" clip-rule="evenodd" d="M2.4887 4.34193C2.4887 2.92645 3.66515 1.75 5.08063 1.75C6.49612 1.75 7.67256 2.92645 7.67256 4.34193C7.67256 4.86086 7.51258 5.35034 7.2398 5.76722C7.89768 6.08658 8.41684 6.50294 8.78322 7.01251C9.20274 7.59598 9.41131 8.28699 9.41131 9.06134C9.41131 9.71872 9.26842 10.2809 8.85826 10.6034C8.55268 10.8631 8.18954 10.9515 7.81045 10.9613C7.43671 10.9708 7.02266 10.904 6.60233 10.834C6.14441 10.7635 5.62802 10.6952 5.08063 10.6952C4.53397 10.6952 4.01822 10.7634 3.56072 10.8337L3.54818 10.836C3.34894 10.8723 2.95814 10.9434 2.54631 10.948C2.13634 10.9525 1.63733 10.8931 1.29755 10.5986L1.29517 10.5966C0.89945 10.2448 0.75 9.7334 0.75 9.06129C0.75 8.28697 0.958556 7.59597 1.37806 7.01251C1.74444 6.50294 2.26359 6.08658 2.92146 5.76722C2.64869 5.35034 2.4887 4.86086 2.4887 4.34193ZM5.08063 2.25C3.94129 2.25 2.9887 3.20259 2.9887 4.34193C2.9887 4.84592 3.17758 5.32261 3.49849 5.70769L3.71515 5.96767L3.40297 6.09835C2.67304 6.40389 2.13741 6.81289 1.78402 7.30439C1.43176 7.79433 1.25 8.38076 1.25 9.06129C1.25 9.66563 1.38398 10.0057 1.62617 10.2218C1.8188 10.3878 2.15312 10.4523 2.54076 10.448C2.90966 10.4439 3.26573 10.3792 3.46437 10.343L3.48131 10.34C3.94554 10.2686 4.49317 10.1952 5.08063 10.1952C5.66809 10.1952 6.2157 10.2686 6.67996 10.3401L6.68304 10.3405C7.11381 10.4123 7.47988 10.4696 7.79764 10.4614C8.10864 10.4535 8.34705 10.383 8.53733 10.2199L8.54636 10.2122C8.77123 10.0373 8.91131 9.67888 8.91131 9.06134C8.91131 8.38078 8.72954 7.79434 8.37727 7.3044C8.02386 6.81289 7.48822 6.40389 6.7583 6.09835L6.44611 5.96767L6.66278 5.70769C6.98368 5.32261 7.17256 4.84592 7.17256 4.34193C7.17256 3.20259 6.21997 2.25 5.08063 2.25ZM16.3274 4.37743C16.3274 2.96194 17.5039 1.7855 18.9194 1.7855C20.3349 1.7855 21.5113 2.96194 21.5113 4.37743C21.5113 4.89636 21.3513 5.38584 21.0785 5.80272C21.7364 6.12208 22.2556 6.53844 22.6219 7.04801C23.0414 7.63146 23.25 8.32247 23.25 9.09679C23.25 9.75417 23.1071 10.3163 22.697 10.6388C22.3914 10.8986 22.0283 10.987 21.6492 10.9967C21.2754 11.0063 20.8614 10.9395 20.4411 10.8694C19.9832 10.799 19.4668 10.7306 18.9194 10.7306C18.4077 10.7306 17.8564 10.799 17.3995 10.8692L17.3872 10.8714C17.188 10.9077 16.7971 10.9789 16.3851 10.9835C15.9751 10.988 15.4761 10.9286 15.1363 10.6341L15.1339 10.6321C14.7382 10.2803 14.5887 9.7689 14.5887 9.09679C14.5887 8.32247 14.7973 7.63147 15.2168 7.04802C15.5832 6.53846 16.1023 6.12209 16.7602 5.80273C16.4874 5.38584 16.3274 4.89636 16.3274 4.37743ZM18.9194 2.2855C17.78 2.2855 16.8274 3.23809 16.8274 4.37743C16.8274 4.88142 17.0163 5.35811 17.3372 5.74318L17.5539 6.00316L17.2417 6.13384C16.5118 6.4394 15.9761 6.8484 15.6228 7.33991C15.2705 7.82984 15.0887 8.41626 15.0887 9.09679C15.0887 9.70113 15.2227 10.0412 15.4649 10.2573C15.6575 10.4233 15.9919 10.4878 16.3795 10.4835C16.7486 10.4794 17.1048 10.4146 17.3034 10.3784L17.32 10.3754C17.785 10.3039 18.3677 10.2306 18.9194 10.2306C19.5068 10.2306 20.0544 10.3041 20.5187 10.3755L20.5218 10.376C20.9526 10.4478 21.3186 10.505 21.6364 10.4969C21.9474 10.4889 22.1858 10.4185 22.376 10.2554L22.385 10.2476C22.6099 10.0727 22.75 9.71433 22.75 9.09679C22.75 8.41626 22.5682 7.82982 22.216 7.33989C21.8626 6.84838 21.327 6.43938 20.597 6.13385L20.2849 6.00317L20.5015 5.74318C20.8224 5.35811 21.0113 4.88142 21.0113 4.37743C21.0113 3.23809 20.0587 2.2855 18.9194 2.2855ZM7.83557 3.1996C9.11476 2.50519 10.5752 2.14029 12.0355 2.14029C13.4968 2.14029 14.9216 2.50569 16.1999 3.1996L16.4218 3.32004L15.8223 4.39916L15.6032 4.27593C14.507 3.6593 13.2722 3.34997 12 3.34997C10.7272 3.34997 9.49379 3.65958 8.43522 4.27424L8.21488 4.40218L7.61371 3.32004L7.83557 3.1996ZM8.29792 3.52208L8.40677 3.718C9.49586 3.13805 10.7341 2.84997 12 2.84997C13.2694 2.84997 14.5092 3.1396 15.6273 3.72058L15.7377 3.52193C14.5906 2.94357 13.3282 2.64029 12.0355 2.64029C10.7417 2.64029 9.44801 2.94404 8.29792 3.52208ZM5.08063 2.99513C4.33163 2.99513 3.69838 3.62841 3.69838 4.37743C3.69838 5.12644 4.33159 5.75968 5.08063 5.75968C5.82967 5.75968 6.46288 5.1264 6.46288 4.37738C6.46288 3.62838 5.82964 2.99513 5.08063 2.99513ZM3.19838 4.37743C3.19838 3.35229 4.05547 2.49513 5.08063 2.49513C6.10578 2.49513 6.96288 3.35224 6.96288 4.37738C6.96288 5.40252 6.10584 6.25968 5.08063 6.25968C4.05544 6.25968 3.19838 5.40257 3.19838 4.37743ZM18.9194 2.99513C18.1703 2.99513 17.5371 3.62838 17.5371 4.37738C17.5371 5.12639 18.1704 5.75964 18.9194 5.75964C19.6684 5.75964 20.3016 5.12639 20.3016 4.37738C20.3016 3.62837 19.6684 2.99513 18.9194 2.99513ZM17.0371 4.37738C17.0371 3.35224 17.8942 2.49513 18.9194 2.49513C19.9446 2.49513 20.8016 3.35224 20.8016 4.37738C20.8016 5.40253 19.9445 6.25964 18.9194 6.25964C17.8942 6.25964 17.0371 5.40253 17.0371 4.37738ZM6.19086 6.16356L6.2952 6.19834C7.06908 6.45631 7.67313 6.82328 8.08418 7.31262C8.49855 7.80591 8.70163 8.40572 8.70163 9.09679C8.70163 9.30487 8.68293 9.4968 8.63995 9.65797C8.59935 9.81023 8.52793 9.96948 8.39543 10.0723C8.19055 10.2434 7.89783 10.2602 7.64034 10.2468C7.39928 10.2344 7.11657 10.1893 6.82798 10.1432C6.78915 10.137 6.75023 10.1308 6.71128 10.1247C6.61787 10.1113 6.52341 10.097 6.42786 10.0825C6.00175 10.0179 5.55398 9.95002 5.08068 9.95002C4.49672 9.95002 3.94658 10.0187 3.4653 10.1219C3.12611 10.1933 2.79693 10.2507 2.51671 10.2603C2.25204 10.2695 1.96613 10.2397 1.76589 10.0723C1.63338 9.96945 1.56198 9.8102 1.52138 9.65796C1.47841 9.49679 1.45972 9.30486 1.45972 9.09679C1.45972 8.38918 1.66213 7.78844 2.07797 7.29834C2.48985 6.81292 3.09447 6.45555 3.86615 6.19834L3.97049 6.16356L4.06663 6.21698C4.34789 6.37327 4.69629 6.4694 5.08068 6.4694C5.46506 6.4694 5.81346 6.37327 6.09472 6.21698L6.19086 6.16356ZM20.0296 6.16356L20.1339 6.19834C20.9078 6.45631 21.5118 6.82328 21.9229 7.31262C22.3372 7.80591 22.5403 8.40572 22.5403 9.09679C22.5403 9.30486 22.5216 9.49679 22.4787 9.65796C22.4381 9.81021 22.3667 9.96947 22.2341 10.0723C22.0292 10.2434 21.7365 10.2602 21.479 10.2468C21.238 10.2344 20.9553 10.1893 20.6667 10.1432C20.6279 10.137 20.5889 10.1308 20.55 10.1247C20.4566 10.1113 20.3621 10.097 20.2666 10.0825C19.8404 10.0179 19.3927 9.95002 18.9194 9.95002C18.3354 9.95002 17.7853 10.0187 17.304 10.1219L17.2907 10.1247C16.9548 10.1778 16.63 10.2242 16.3554 10.2337C16.0955 10.2427 15.8143 10.2225 15.616 10.0809L15.6113 10.0775C15.4744 9.97486 15.4014 9.81276 15.3601 9.65796C15.3171 9.49679 15.2984 9.30486 15.2984 9.09679C15.2984 8.38918 15.5008 7.78844 15.9167 7.29834C16.3285 6.81292 16.9332 6.45555 17.7048 6.19834L17.8092 6.16356L17.9053 6.21698C18.1866 6.37327 18.535 6.4694 18.9194 6.4694C19.3038 6.4694 19.6522 6.37327 19.9334 6.21698L20.0296 6.16356ZM2.45923 7.62183C2.12991 8.00996 1.95972 8.49149 1.95972 9.09679C1.95972 9.27901 1.97651 9.42417 2.0045 9.52914C2.03418 9.64046 2.0675 9.67358 2.07261 9.67741L2.07912 9.6823L2.08531 9.6876C2.1332 9.72865 2.25229 9.76915 2.49949 9.76063C2.73369 9.75256 3.0262 9.70335 3.36101 9.63287C3.87319 9.52315 4.45836 9.45002 5.08068 9.45002C5.59549 9.45002 6.08826 9.52496 6.51566 9.58995C6.60824 9.60403 6.69776 9.61765 6.78377 9.62993L6.78742 9.63045C6.82784 9.63683 6.86754 9.64318 6.90654 9.64939C7.20045 9.69618 7.45382 9.73652 7.66616 9.74751C7.92066 9.76067 8.03279 9.72467 8.07604 9.6876L8.08221 9.68231L8.08871 9.67743C8.09382 9.6736 8.12715 9.64046 8.15684 9.52913C8.18483 9.42416 8.20163 9.279 8.20163 9.09679C8.20163 8.51045 8.03212 8.02801 7.70133 7.63422C7.38291 7.25515 6.90139 6.9422 6.23673 6.70692C5.90006 6.8732 5.50475 6.9694 5.08068 6.9694C4.65657 6.9694 4.26124 6.87319 3.92455 6.70688C3.25792 6.94208 2.77689 7.24745 2.45923 7.62183ZM16.2979 7.62183C15.9686 8.00996 15.7984 8.49149 15.7984 9.09679C15.7984 9.27901 15.8152 9.42417 15.8432 9.52914C15.871 9.63335 15.902 9.66903 15.91 9.67631C15.9623 9.71118 16.0891 9.7426 16.3382 9.73401C16.5765 9.72579 16.8704 9.68445 17.206 9.63153C17.7167 9.52256 18.2996 9.45002 18.9194 9.45002C19.4342 9.45002 19.927 9.52496 20.3543 9.58995C20.4469 9.60403 20.5365 9.61765 20.6225 9.62993L20.6261 9.63045C20.6665 9.63683 20.7062 9.64318 20.7452 9.64939C21.0391 9.69618 21.2925 9.73652 21.5049 9.74751C21.7594 9.76067 21.8715 9.72467 21.9147 9.6876L21.9209 9.6823L21.9274 9.67741C21.9325 9.67358 21.9659 9.64046 21.9955 9.52914C22.0235 9.42417 22.0403 9.27901 22.0403 9.09679C22.0403 8.51045 21.8708 8.02801 21.54 7.63422C21.2216 7.25515 20.7401 6.9422 20.0754 6.70691C19.7387 6.8732 19.3434 6.9694 18.9194 6.9694C18.4953 6.9694 18.0999 6.87319 17.7633 6.70688C17.0966 6.94208 16.6156 7.24745 16.2979 7.62183ZM9.97582 9.59192H11.1855V10.8016H9.97582V9.59192ZM10.4758 10.0919V10.3016H10.6855V10.0919H10.4758ZM11.3952 9.59192H12.6049V10.8016H11.3952V9.59192ZM11.8952 10.0919V10.3016H12.1049V10.0919H11.8952ZM12.8145 9.59192H14.0242V10.8016H12.8145V9.59192ZM13.3145 10.0919V10.3016H13.5242V10.0919H13.3145ZM19.5666 10.999L20.7778 11.0596L20.7658 11.3088C20.6198 14.3391 18.9044 17.1514 16.1995 18.6135L15.9821 18.731L15.3848 17.6558L15.6063 17.5352C17.9436 16.2635 19.4537 13.8583 19.5566 11.2514L19.5666 10.999ZM4.43091 10.9991L4.44325 11.2489C4.58076 14.0334 6.19568 16.5054 8.70161 17.7068L8.92598 17.8144L8.53375 18.6425C8.87554 18.2639 9.31364 17.9457 9.84081 17.6898C9.56804 17.2729 9.40805 16.7835 9.40805 16.2645C9.40805 14.849 10.5845 13.6726 12 13.6726C13.4155 13.6726 14.5919 14.849 14.5919 16.2645C14.5919 16.7835 14.4319 17.2729 14.1591 17.6898C14.817 18.0092 15.3362 18.4255 15.7026 18.9351C16.1221 19.5186 16.3307 20.2096 16.3307 20.9839C16.3307 21.6413 16.1878 22.2034 15.7776 22.5259C15.472 22.7857 15.1089 22.8741 14.7298 22.8839C14.3561 22.8934 13.9422 22.8267 13.5219 22.7566C13.5213 22.7565 13.5208 22.7564 13.5202 22.7563L13.5613 22.5097L13.5233 22.7568C13.5228 22.7568 13.5224 22.7567 13.5219 22.7566C13.0639 22.6862 12.5475 22.6178 12 22.6178C11.4883 22.6178 10.937 22.6861 10.4801 22.7563L10.4834 22.7557L10.4387 22.5097L10.4767 22.7568C10.4778 22.7567 10.479 22.7565 10.4801 22.7563L10.4675 22.7586C10.2682 22.7949 9.87745 22.866 9.46566 22.8706C9.05568 22.8751 8.55668 22.8157 8.2169 22.5212L8.21453 22.5191C7.81881 22.1674 7.66935 21.656 7.66935 20.9839C7.66935 20.2096 7.8779 19.5186 8.29741 18.9351C8.3042 18.9257 8.31105 18.9163 8.31795 18.9069L8.16352 18.8306C5.27928 17.4068 3.38025 14.5224 3.23413 11.3081L3.22283 11.0595L4.43091 10.9991ZM3.74865 11.5338C3.96388 14.3802 5.6369 16.9248 8.15867 18.2663L8.26272 18.0467C5.7893 16.7654 4.18134 14.3026 3.95996 11.5233L3.74865 11.5338ZM20.0422 11.5234C19.8539 14.1293 18.3547 16.5109 16.0649 17.8505L16.1773 18.0528C18.5272 16.6877 20.0399 14.2169 20.2506 11.5338L20.0422 11.5234ZM12 14.1726C10.8606 14.1726 9.90805 15.1252 9.90805 16.2645C9.90805 16.7685 10.0969 17.2452 10.4178 17.6303L10.6345 17.8903L10.3223 18.0209C9.59239 18.3265 9.05676 18.7355 8.70337 19.227C8.35111 19.7169 8.16935 20.3034 8.16935 20.9839C8.16935 21.5883 8.30334 21.9284 8.54555 22.1444C8.73819 22.3104 9.07249 22.3749 9.46011 22.3706C9.82899 22.3665 10.185 22.3018 10.3837 22.2656L10.4007 22.2626C10.8657 22.191 11.4484 22.1178 12 22.1178C12.5875 22.1178 13.1351 22.1912 13.5994 22.2626L13.6024 22.2631C14.0332 22.3349 14.3993 22.3922 14.717 22.384C15.028 22.376 15.2664 22.3056 15.4567 22.1425L15.4657 22.1347C15.6906 21.9598 15.8307 21.6014 15.8307 20.9839C15.8307 20.3034 15.6489 19.7169 15.2966 19.227C14.9432 18.7355 14.4076 18.3265 13.6776 18.0209L13.3655 17.8903L13.5821 17.6303C13.903 17.2452 14.0919 16.7685 14.0919 16.2645C14.0919 15.1252 13.1393 14.1726 12 14.1726ZM12 14.8822C11.251 14.8822 10.6177 15.5155 10.6178 16.2645C10.6178 17.0135 11.251 17.6467 12 17.6467C12.749 17.6467 13.3823 17.0135 13.3823 16.2645C13.3823 15.5155 12.749 14.8822 12 14.8822ZM10.1178 16.2645C10.1177 15.2393 10.9748 14.3822 12 14.3822C13.0252 14.3822 13.8823 15.2393 13.8823 16.2645C13.8823 17.2896 13.0252 18.1467 12 18.1467C10.9749 18.1467 10.1178 17.2896 10.1178 16.2645ZM13.1102 18.0862L13.2145 18.1209C13.9884 18.3789 14.5925 18.7459 15.0035 19.2352C15.4179 19.7285 15.621 20.3283 15.621 21.0194C15.621 21.4249 15.5504 21.7612 15.3349 21.9768L15.3281 21.9836L15.3208 21.9898C15.1156 22.1657 14.8197 22.1829 14.5597 22.1694C14.3186 22.157 14.0359 22.1119 13.7473 22.0658C13.7085 22.0596 13.6695 22.0534 13.6306 22.0472C13.5371 22.0339 13.4425 22.0195 13.3469 22.005C12.9209 21.9404 12.4732 21.8726 12 21.8726C11.4161 21.8726 10.8659 21.9413 10.3847 22.0445L10.3713 22.0473C10.0355 22.1003 9.71068 22.1468 9.43606 22.1563C9.17617 22.1653 8.89495 22.1451 8.69667 22.0035L8.69193 22.0001C8.5551 21.8975 8.482 21.7354 8.44073 21.5806C8.39775 21.4194 8.37907 21.2275 8.37907 21.0194C8.37907 20.3118 8.58147 19.711 8.99732 19.2209C9.4092 18.7355 10.0138 18.3782 10.7855 18.1209L10.8898 18.0862L10.986 18.1396C11.2672 18.2958 11.6157 18.392 12 18.392C12.3844 18.392 12.7328 18.2959 13.0141 18.1396L13.1102 18.0862ZM9.37857 19.5444C9.04925 19.9326 8.87907 20.4141 8.87907 21.0194C8.87907 21.2016 8.89586 21.3468 8.92385 21.4517C8.95163 21.5559 8.98259 21.5916 8.99063 21.5989C9.04293 21.6338 9.16974 21.6652 9.41883 21.6566C9.65714 21.6484 9.95103 21.607 10.2866 21.5541C10.7973 21.4451 11.3802 21.3726 12 21.3726C12.5147 21.3726 13.0074 21.4475 13.4347 21.5125C13.5274 21.5266 13.617 21.5402 13.7031 21.5525L13.7068 21.553C13.7472 21.5595 13.7869 21.5658 13.8259 21.572C14.1198 21.6188 14.3732 21.6591 14.5855 21.6701C14.8277 21.6826 14.941 21.6506 14.9886 21.6156C15.0546 21.5431 15.121 21.381 15.121 21.0194C15.121 20.433 14.9515 19.9506 14.6207 19.5568C14.3023 19.1777 13.8207 18.8648 13.1561 18.6295C12.8194 18.7958 12.4241 18.892 12 18.892C11.5759 18.892 11.1806 18.7957 10.8439 18.6295C10.1773 18.8647 9.69624 19.17 9.37857 19.5444Z" fill="#777777"/>
</g>
</svg>
