<svg width="22" height="17" viewBox="0 0 22 17" fill="none" xmlns="http://www.w3.org/2000/svg">
<g id="Group">
<path id="Vector" d="M21.707 9.2193L14.707 16.2193C14.5184 16.4014 14.2658 16.5022 14.0036 16.5C13.7414 16.4977 13.4906 16.3925 13.3052 16.2071C13.1198 16.0217 13.0146 15.7709 13.0123 15.5087C13.01 15.2465 13.1108 14.9939 13.293 14.8053L18.586 9.5123L1 9.5123C0.734784 9.5123 0.48043 9.40694 0.292893 9.21941C0.105357 9.03187 0 8.77752 0 8.5123C0 8.24709 0.105357 7.99273 0.292893 7.8052C0.48043 7.61766 0.734784 7.5123 1 7.5123L18.586 7.5123L13.293 2.21931C13.1975 2.12707 13.1213 2.01672 13.0689 1.89472C13.0165 1.77271 12.9889 1.64149 12.9877 1.50871C12.9866 1.37594 13.0119 1.24426 13.0622 1.12136C13.1125 0.998466 13.1867 0.886813 13.2806 0.79292C13.3745 0.699028 13.4861 0.624774 13.609 0.574493C13.7319 0.524213 13.8636 0.498911 13.9964 0.500065C14.1292 0.501219 14.2604 0.528806 14.3824 0.581215C14.5044 0.633624 14.6148 0.709805 14.707 0.805314L21.707 7.8053C21.8945 7.99283 21.9998 8.24714 21.9998 8.5123C21.9998 8.77747 21.8945 9.03177 21.707 9.2193Z" fill="#0D0D0D"/>
</g>
</svg>
