<svg width="24" height="24" viewBox="0 0 24 24" fill="none" xmlns="http://www.w3.org/2000/svg">
<g id="Frame">
<g id="Group">
<path id="Vector" d="M20.3205 1.07751H10.856C9.3785 1.07751 8.1765 2.27926 8.1765 3.75726V8.51576H3.67775C2.20125 8.51601 1 9.71776 1 11.1943V17.1443C1 18.6208 2.20125 19.8228 3.67775 19.8228H4.097V21.6758C4.097 22.179 4.3835 22.6175 4.84475 22.8183C5.00525 22.8883 5.17525 22.9225 5.34375 22.9225C5.66017 22.9224 5.96483 22.8026 6.1965 22.587L9.13925 19.8228H13.145C14.622 19.8228 15.8235 18.621 15.8235 17.1443V13.2853L17.8055 15.142C17.9822 15.3087 18.204 15.4199 18.4433 15.4617C18.6827 15.5034 18.929 15.474 19.1518 15.377C19.3747 15.2806 19.5645 15.121 19.6977 14.918C19.831 14.715 19.9019 14.4774 19.9018 14.2345V12.3868H20.3207C21.798 12.387 23 11.185 23 9.70726V3.75726C23 2.27951 21.798 1.07751 20.3205 1.07751ZM13.145 18.4703H8.87175C8.69972 18.4704 8.53419 18.536 8.40875 18.6538L5.4495 21.434V19.1465C5.44953 19.0577 5.43206 18.9697 5.39809 18.8877C5.36412 18.8056 5.31431 18.7311 5.2515 18.6683C5.1887 18.6055 5.11414 18.5556 5.03208 18.5217C4.95002 18.4877 4.86207 18.4702 4.77325 18.4703H3.67775C3.32626 18.4699 2.9893 18.33 2.74083 18.0814C2.49236 17.8328 2.3527 17.4958 2.3525 17.1443V11.1943C2.3527 10.8428 2.49236 10.5057 2.74083 10.2571C2.9893 10.0085 3.32626 9.86866 3.67775 9.86826H8.18475C8.26875 11.271 9.433 12.387 10.856 12.387H14.4707V17.1443C14.4706 17.4958 14.3308 17.833 14.0822 18.0816C13.8337 18.3302 13.4966 18.47 13.145 18.4703ZM21.6475 9.70726C21.6471 10.0591 21.5072 10.3964 21.2584 10.6452C21.0096 10.8941 20.6723 11.0341 20.3205 11.0345H19.2253C19.1364 11.0345 19.0485 11.052 18.9664 11.0859C18.8844 11.1199 18.8098 11.1697 18.747 11.2325C18.6842 11.2953 18.6344 11.3699 18.6004 11.4519C18.5664 11.534 18.549 11.6219 18.549 11.7108V13.9865L15.6135 11.2315L15.5995 11.2183L15.5977 11.2203L15.5942 11.217C15.4689 11.0997 15.3035 11.0345 15.1318 11.0348H10.856C10.5042 11.0343 10.1669 10.8943 9.91809 10.6455C9.66932 10.3967 9.5294 10.0594 9.529 9.70751V9.70626H9.534L9.529 3.75776C9.5294 3.40592 9.66932 3.0686 9.91809 2.81978C10.1669 2.57097 10.5042 2.43098 10.856 2.43051H20.3205C20.6723 2.43098 21.0096 2.57097 21.2584 2.81978C21.5072 3.0686 21.6471 3.40592 21.6475 3.75776V9.70726Z" fill="#1d968f"/>
<path id="Vector_2" d="M18.2932 4.66199H12.8837C12.7043 4.66199 12.5323 4.73323 12.4055 4.86006C12.2787 4.98688 12.2074 5.15888 12.2074 5.33824C12.2074 5.51759 12.2787 5.6896 12.4055 5.81642C12.5323 5.94324 12.7043 6.01449 12.8837 6.01449H18.2934C18.3823 6.01447 18.4702 5.99696 18.5522 5.96296C18.6343 5.92896 18.7088 5.87914 18.7716 5.81633C18.8344 5.75352 18.8842 5.67896 18.9181 5.59691C18.9521 5.51486 18.9696 5.42692 18.9696 5.33811C18.9696 5.24931 18.952 5.16137 18.918 5.07933C18.884 4.99729 18.8342 4.92275 18.7714 4.85997C18.7086 4.79718 18.634 4.74739 18.552 4.71342C18.4699 4.67945 18.382 4.66197 18.2932 4.66199ZM18.2932 7.36674H12.8837C12.7043 7.36674 12.5323 7.43798 12.4055 7.56481C12.2787 7.69163 12.2074 7.86363 12.2074 8.04299C12.2074 8.22234 12.2787 8.39435 12.4055 8.52117C12.5323 8.64799 12.7043 8.71924 12.8837 8.71924H18.2934C18.3823 8.71922 18.4702 8.70171 18.5522 8.66771C18.6343 8.63371 18.7088 8.58389 18.7716 8.52108C18.8344 8.45827 18.8842 8.38371 18.9181 8.30166C18.9521 8.21961 18.9696 8.13167 18.9696 8.04286C18.9696 7.95406 18.952 7.86612 18.918 7.78408C18.884 7.70204 18.8342 7.6275 18.7714 7.56472C18.7086 7.50193 18.634 7.45214 18.552 7.41817C18.4699 7.3842 18.382 7.36672 18.2932 7.36674ZM5.7132 13.5095C5.6322 13.536 5.56445 13.59 5.49695 13.6442C5.3752 13.779 5.29395 13.956 5.29395 14.1315C5.29395 14.307 5.37495 14.4827 5.49695 14.6042C5.6322 14.739 5.79445 14.8077 5.9702 14.8077C6.0647 14.8077 6.1597 14.78 6.2407 14.7535C6.32195 14.7257 6.38945 14.6715 6.45695 14.6042C6.5787 14.4827 6.65995 14.307 6.65995 14.1315C6.65995 13.956 6.5787 13.7787 6.45695 13.6442C6.2677 13.4687 5.9702 13.4012 5.7132 13.5095ZM8.94545 13.5095C8.68845 13.4012 8.39095 13.4685 8.2017 13.6442C8.07995 13.779 8.01245 13.956 8.01245 14.1315C8.01245 14.307 8.07995 14.4827 8.2017 14.6042C8.2692 14.6715 8.33695 14.7257 8.41795 14.7535C8.5127 14.78 8.5937 14.8077 8.68845 14.8077C8.86445 14.8077 9.0267 14.739 9.16195 14.6042C9.2837 14.4827 9.36495 14.307 9.36495 14.1315C9.36495 13.956 9.2837 13.7787 9.16195 13.6442C9.0942 13.5902 9.0267 13.536 8.94545 13.5095ZM11.6504 13.5095C11.4882 13.4407 11.2987 13.4407 11.1229 13.5095C11.0419 13.536 10.9742 13.59 10.9067 13.6442C10.7849 13.779 10.7037 13.956 10.7037 14.1315C10.7037 14.307 10.7847 14.4827 10.9067 14.6042C11.0419 14.739 11.2042 14.8077 11.3802 14.8077C11.4747 14.8077 11.5694 14.78 11.6507 14.7535C11.7319 14.7257 11.7994 14.6715 11.8672 14.6042C11.9889 14.4827 12.0564 14.307 12.0564 14.1315C12.0564 13.956 11.9887 13.7787 11.8672 13.6442C11.7992 13.5902 11.7317 13.536 11.6504 13.5095Z" fill="#1d968f"/>
</g>
</g>
</svg>
