<svg width="20" height="20" viewBox="0 0 20 20" fill="none" xmlns="http://www.w3.org/2000/svg">
<g id="Layer_1" clip-path="url(#clip0_135_4285)">
<path id="Vector" d="M19.9167 9.53088C19.5893 7.0104 18.3144 4.70916 16.3512 3.09492C14.388 1.48067 11.8837 0.674559 9.34747 0.840423C6.81122 1.00629 4.4333 2.13168 2.69703 3.98786C0.960757 5.84405 -0.00356686 8.29172 6.17117e-05 10.8334C-0.00474196 12.1938 0.270943 13.5406 0.809907 14.7898C1.34887 16.0389 2.13954 17.1635 3.13256 18.0934C3.89201 18.7965 4.89269 19.1808 5.92756 19.1667H14.0667C15.16 19.1693 16.2104 18.7415 16.9909 17.9759C18.1032 16.8938 18.947 15.5665 19.455 14.1002C19.963 12.6339 20.1211 11.0692 19.9167 9.53088ZM15.8259 16.7809C15.357 17.2428 14.7249 17.5012 14.0667 17.5H5.92756C5.31862 17.5126 4.72797 17.2916 4.27673 16.8825C3.44946 16.1076 2.79075 15.1706 2.34169 14.1298C1.89264 13.089 1.66287 11.9669 1.66673 10.8334C1.66755 9.66025 1.91571 8.50047 2.39501 7.42972C2.87431 6.35897 3.57399 5.40131 4.44839 4.61922C5.96768 3.24914 7.94259 2.49369 9.98839 2.50005C10.3153 2.50019 10.6419 2.51855 10.9667 2.55505C12.5297 2.73658 14.0093 3.35719 15.2342 4.34499C16.459 5.33279 17.3789 6.64736 17.8874 8.13646C18.3959 9.62555 18.4721 11.2282 18.1073 12.7589C17.7424 14.2895 16.9514 15.6855 15.8259 16.785V16.7809ZM6.5059 14.4042C6.66392 14.5589 6.75401 14.7701 6.75636 14.9912C6.7587 15.2123 6.6731 15.4254 6.51839 15.5834C6.36369 15.7414 6.15254 15.8315 5.9314 15.8338C5.71026 15.8362 5.49725 15.7506 5.33923 15.5959C4.39336 14.6694 3.74481 13.4822 3.47624 12.1857C3.20766 10.8891 3.33124 9.542 3.83122 8.31598C4.33119 7.08996 5.18491 6.04058 6.28356 5.30162C7.38221 4.56265 8.67601 4.16756 10.0001 4.16672C10.3188 4.16662 10.6371 4.18918 10.9526 4.23422C11.0609 4.24984 11.1651 4.28665 11.2592 4.34256C11.3534 4.39847 11.4355 4.47238 11.5011 4.56006C11.5666 4.64774 11.6143 4.74748 11.6413 4.85357C11.6683 4.95967 11.6741 5.07004 11.6584 5.17838C11.644 5.28732 11.6081 5.39229 11.5525 5.48712C11.497 5.58195 11.4231 5.66472 11.3351 5.73056C11.2472 5.7964 11.1469 5.84399 11.0403 5.87052C10.9337 5.89705 10.8228 5.90199 10.7142 5.88505C9.6713 5.73608 8.60797 5.92035 7.67597 6.41155C6.74398 6.90276 5.99095 7.67579 5.52436 8.62035C5.05777 9.5649 4.90145 10.6327 5.07771 11.6714C5.25397 12.71 5.75381 13.6665 6.5059 14.4042ZM16.5992 9.88088C16.6443 10.1964 16.6668 10.5147 16.6667 10.8334C16.6694 11.7214 16.4931 12.6009 16.1484 13.4193C15.8036 14.2378 15.2974 14.9783 14.6601 15.5967C14.5018 15.7514 14.2886 15.8369 14.0673 15.8344C13.846 15.8319 13.6348 15.7416 13.4801 15.5834C13.3254 15.4251 13.2398 15.2119 13.2423 14.9906C13.2448 14.7693 13.3351 14.5581 13.4934 14.4034C14.0564 13.8546 14.4816 13.1803 14.7342 12.4357C14.9868 11.6911 15.0596 10.8973 14.9467 10.1192C14.9151 9.9003 14.9718 9.6778 15.1042 9.50066C15.2367 9.32351 15.4341 9.20624 15.653 9.17463C15.8719 9.14303 16.0944 9.19968 16.2715 9.33213C16.4487 9.46458 16.566 9.66197 16.5976 9.88088H16.5992ZM11.6051 10.4067C11.7053 10.7673 11.6834 11.151 11.5426 11.4979C11.4018 11.8447 11.1501 12.1351 10.8268 12.3238C10.5035 12.5125 10.1269 12.5888 9.75566 12.5408C9.38443 12.4928 9.03955 12.3232 8.77487 12.0586C8.5102 11.7939 8.34062 11.449 8.29264 11.0778C8.24466 10.7066 8.32097 10.3299 8.50965 10.0066C8.69833 9.68334 8.98877 9.43165 9.33559 9.29086C9.68241 9.15007 10.0661 9.1281 10.4267 9.22838L13.5776 6.07755C13.6544 5.99796 13.7464 5.93447 13.8481 5.8908C13.9497 5.84712 14.0591 5.82414 14.1697 5.82317C14.2804 5.82221 14.3901 5.8433 14.4925 5.8852C14.5949 5.9271 14.688 5.98898 14.7662 6.06722C14.8445 6.14546 14.9063 6.23851 14.9482 6.34092C14.9901 6.44334 15.0112 6.55307 15.0103 6.66372C15.0093 6.77437 14.9863 6.88372 14.9426 6.98539C14.899 7.08706 14.8355 7.17901 14.7559 7.25588L11.6051 10.4067Z" fill="#1D968F"/>
</g>
<defs>
<clipPath id="clip0_135_4285">
<rect width="20" height="20" fill="white"/>
</clipPath>
</defs>
</svg>
