<svg width="47" height="54" viewBox="0 0 47 54" fill="none" xmlns="http://www.w3.org/2000/svg">
<g id="Group 196">
<path id="Vector" d="M23.4501 54C23.1711 53.7292 22.8183 53.5979 22.4901 53.4092C20.4141 52.203 18.3299 51.0132 16.2457 49.807C14.4652 48.7731 12.6846 47.7311 10.8958 46.6972C9.18906 45.7043 7.47413 44.7279 5.75919 43.7432C4.06887 42.7668 2.39496 41.7575 0.68002 40.8139C0.269748 40.5841 0.163086 40.3544 0.163086 39.9113C0.179497 31.1971 0.179492 22.4912 0.171287 13.777C0.171287 13.5227 0.236931 13.375 0.466683 13.2437C1.58262 12.6201 2.67394 11.9718 3.78168 11.34C4.873 10.7082 5.97253 10.0764 7.06385 9.44457C8.17159 8.81275 9.27112 8.18094 10.3789 7.54091C11.4702 6.9091 12.5615 6.26907 13.661 5.63726C14.6211 5.07929 15.5893 4.53773 16.5493 3.97976C17.6325 3.35615 18.7156 2.71613 19.8069 2.09252C20.7587 1.54275 21.7106 1.00119 22.6706 0.451432C22.8429 0.352967 23.0316 0.287323 23.1793 0.164242C23.4665 -0.0901261 23.7127 -0.0162773 24.0081 0.164242C27.0605 1.93661 30.1129 3.70898 33.1654 5.47315C34.2649 6.10497 35.3808 6.70396 36.3737 7.49989C37.3091 8.24658 38.1953 9.02609 38.8025 10.0764C38.9666 10.3636 39.0979 10.6672 39.1553 11.0692C38.663 10.7821 38.2117 10.5277 37.7686 10.2733C35.028 8.68967 32.2874 7.11423 29.5468 5.53059C27.758 4.4967 25.9692 3.47103 24.1886 2.42894C24.0163 2.33047 23.9014 2.33868 23.7373 2.42894C19.8643 4.66902 15.9914 6.90089 12.1184 9.14097C9.12342 10.8723 6.12843 12.5955 3.11704 14.3104C2.81344 14.4827 2.70677 14.6714 2.71498 15.0161C2.72318 22.885 2.72318 30.7458 2.71498 38.6148C2.71498 38.9102 2.80524 39.0661 3.05961 39.2138C5.9233 40.8549 8.77879 42.5124 11.6425 44.1617C14.6129 45.8766 17.5832 47.5916 20.5536 49.3065C21.5957 49.9055 22.6296 50.5045 23.6635 51.1117C23.8522 51.2266 23.9999 51.2348 24.205 51.1117C26.2482 49.9219 28.3077 48.7403 30.3591 47.5587C30.5806 47.4357 30.753 47.4275 30.9909 47.5341C31.672 47.8623 32.3612 48.1577 33.0997 48.4942C32.6566 48.7485 32.2546 48.9947 31.8361 49.2327C29.1365 50.7917 26.4369 52.3425 23.7373 53.9015C23.6963 53.9261 23.6635 53.959 23.6224 53.9918H23.4419L23.4501 54Z" fill="#B4B9A1"/>
<path id="Vector_2" d="M22.0304 40.2475C22.3832 40.7645 22.6622 41.3306 23.0478 41.823C23.9258 42.9389 24.9843 43.8579 26.1249 44.6866C27.4049 45.6139 28.7506 46.418 30.1455 47.1401C30.203 47.1729 30.2604 47.2057 30.3507 47.2549C29.7599 47.5996 29.1937 47.9278 28.6193 48.256C27.1424 49.1012 25.6736 49.9463 24.2048 50.8079C24.0161 50.9146 23.893 50.9228 23.7043 50.8079C20.9637 49.216 18.2231 47.6406 15.4824 46.057C12.7993 44.5061 10.1243 42.9553 7.4411 41.4045C6.04617 40.6003 4.65125 39.788 3.24812 38.9921C3.0758 38.8936 3.00195 38.7869 3.00195 38.5818C3.00195 30.7128 3.01016 22.852 3.00195 14.983C3.00195 14.7861 3.0594 14.6712 3.23992 14.5646C6.39081 12.7512 9.54169 10.9378 12.6926 9.11616C16.344 7.00736 19.9954 4.90677 23.6468 2.78978C23.852 2.6667 24.0079 2.65028 24.2376 2.78157C27.4788 4.66882 30.7363 6.54786 33.9857 8.4269C35.6514 9.38693 37.3253 10.3552 38.991 11.307C39.1715 11.4055 39.2044 11.5121 39.1715 11.7091C39.0238 12.464 38.5315 12.9481 37.9325 13.3502C37.8094 13.4322 37.6781 13.5061 37.5551 13.5799C38.2033 13.7112 39.59 13.2845 40.1644 12.6035C40.8537 11.7911 40.8619 10.8557 40.6977 9.82182C41.0013 10.0105 41.305 10.1008 41.5101 10.347C41.5675 10.8065 41.625 11.266 41.5429 11.7255C41.3624 12.743 40.7798 13.4896 39.9757 14.0968C38.9828 14.8435 37.8258 15.2292 36.6525 15.5574C32.8451 16.6405 29.0296 17.6744 25.3125 19.0447C23.294 19.7914 21.3001 20.6119 19.4292 21.6787C17.1235 22.9915 15.5645 24.9116 14.785 27.4553C14.3583 28.842 14.4732 30.1631 14.9409 31.4677C15.1624 29.7282 16.106 28.4235 17.3533 27.3158C18.3872 26.3968 19.5687 25.7239 20.8406 25.1906C22.695 24.4111 24.6233 23.8203 26.5434 23.2049C30.482 21.933 34.4862 20.8581 38.4823 19.7668C39.869 19.3893 41.0506 18.6919 41.9532 17.5595C43.2332 15.9677 43.3563 14.2117 42.6588 12.3491C42.5029 11.9388 42.2404 11.5778 42.1337 11.1429C42.265 11.1593 42.2896 11.2824 42.3552 11.3644C42.8804 12.0537 43.2989 12.8004 43.7173 13.5553C43.7173 13.6702 43.7173 13.7932 43.7338 13.9081C43.9799 15.7379 43.4794 17.3216 42.2075 18.6673C41.2065 19.7176 39.9757 20.4314 38.671 21.014C36.7755 21.8674 34.7734 22.4007 32.7549 22.8931C28.9804 23.8121 25.2961 25.0101 21.7186 26.5116C20.1841 27.1517 18.7564 27.9804 17.6323 29.2358C16.3768 30.639 15.8353 32.2801 16.0978 34.1509C16.2948 35.5294 16.8445 36.7848 17.5584 37.9746C18.8795 40.1573 20.619 41.9789 22.5063 43.6692C22.7853 43.9235 23.056 44.2025 23.4007 44.383C23.4089 44.3995 23.4171 44.4405 23.4499 44.3995C23.4499 44.3995 23.4253 44.383 23.4171 44.3666C23.3843 44.2271 23.2776 44.1287 23.2037 44.022C21.9893 42.3645 20.9801 40.6003 20.6683 38.5326C20.5862 38.0074 20.5042 37.4659 20.6272 36.9325C20.8324 37.6218 21.0375 38.3192 21.3493 38.9757C21.5545 39.4106 21.735 39.8701 22.055 40.2475H22.0304ZM27.4624 10.4536C25.9033 10.4536 24.6151 11.7337 24.6479 13.2927C24.6807 14.8599 25.8459 16.1072 27.5034 16.0908C29.2676 16.0744 30.3097 14.6384 30.3015 13.2599C30.3015 11.6927 29.046 10.4454 27.4624 10.4454V10.4536Z" fill="#B4B9A1"/>
<path id="Vector_3" d="M41.5184 10.3635C41.6333 10.3142 41.7071 10.4045 41.781 10.4455C43.4467 11.4055 45.1124 12.3738 46.7863 13.3256C46.9422 13.4159 46.9996 13.5061 46.9996 13.6949C46.9996 22.5485 46.9996 31.3939 46.9996 40.2476C46.9996 40.4527 46.9176 40.543 46.7617 40.6332C45.2273 41.4866 43.7093 42.3564 42.1912 43.2426C39.4835 44.8344 36.751 46.377 34.0433 47.9689C33.8299 48.092 33.674 48.1002 33.4607 47.9853C31.2862 46.8858 29.2267 45.6139 27.4707 43.899C26.0101 42.4795 24.8696 40.8548 24.3116 38.8609C23.7372 36.8177 23.8931 34.8238 24.7465 32.8873C24.7629 32.8545 24.7711 32.8217 24.7465 32.7478C24.648 32.8299 24.5496 32.912 24.4511 32.994C23.4418 33.8474 22.5638 34.8156 22.0059 36.0136C21.4397 37.2362 21.4233 38.508 21.8664 39.7799C21.9238 39.9358 22.0305 40.0753 22.0059 40.2558C21.6859 39.8783 21.5053 39.4271 21.3002 38.984C20.9884 38.3275 20.7915 37.6301 20.5781 36.9408C20.6192 35.5869 21.1607 34.4135 21.9648 33.3632C23.13 31.8535 24.6562 30.8524 26.4122 30.1303C28.6359 29.2195 30.8924 28.3826 33.1735 27.6277C35.4874 26.8563 37.7603 25.9784 39.8855 24.7886C41.5758 23.845 43.0118 22.6141 44.0293 20.9402C45.498 18.5443 45.3503 15.6231 43.6682 13.5554C43.258 12.8005 42.8313 12.0538 42.3061 11.3645C42.2405 11.2825 42.2159 11.1594 42.0846 11.143C42.0928 11.0855 42.0846 11.0445 42.0189 11.0281C42.0025 11.0035 41.9861 10.9789 41.9697 10.9542C41.7974 10.7655 41.7071 10.5029 41.4856 10.347L41.5184 10.3635Z" fill="#1D968F"/>
<path id="Vector_4" d="M42.1181 11.1513C42.0442 11.1513 42.0442 11.0938 42.0524 11.0364C42.1181 11.0528 42.1345 11.0938 42.1181 11.1513Z" fill="#B4B9A1"/>
<path id="Vector_5" d="M42.0523 11.0444C42.0112 11.0444 41.9948 11.0116 42.003 10.9706C42.0194 10.9952 42.0358 11.0198 42.0523 11.0444Z" fill="#B4B9A1"/>
</g>
</svg>
