<svg width="17" height="13" viewBox="0 0 17 13" fill="none" xmlns="http://www.w3.org/2000/svg">
<g id="Encapsulated Group" clip-path="url(#clip0_332_3445)">
<g id="Group 195">
<path id="Vector" d="M16.0112 4.73236C14.9776 3.0024 12.6265 0.0999756 8.5 0.0999756C4.37353 0.0999756 2.0224 3.0024 0.988783 4.73236C0.669253 5.26347 0.5 5.87555 0.5 6.49998C0.5 7.1244 0.669253 7.73648 0.988783 8.2676C2.0224 9.99755 4.37353 12.9 8.5 12.9C12.6265 12.9 14.9776 9.99755 16.0112 8.2676C16.3307 7.73648 16.5 7.1244 16.5 6.49998C16.5 5.87555 16.3307 5.26347 16.0112 4.73236ZM14.875 7.55055C13.9873 9.03395 11.978 11.5303 8.5 11.5303C5.02196 11.5303 3.0127 9.03395 2.12503 7.55055C1.93519 7.23486 1.83464 6.87108 1.83464 6.49998C1.83464 6.12887 1.93519 5.76509 2.12503 5.4494C3.0127 3.966 5.02196 1.46969 8.5 1.46969C11.978 1.46969 13.9873 3.96326 14.875 5.4494C15.0648 5.76509 15.1654 6.12887 15.1654 6.49998C15.1654 6.87108 15.0648 7.23486 14.875 7.55055Z" fill="#0D6EFD"/>
<path id="Vector_2" d="M8.49935 3.26257C7.84008 3.26257 7.19561 3.45244 6.64745 3.80817C6.09929 4.1639 5.67204 4.66951 5.41975 5.26106C5.16746 5.85262 5.10145 6.50355 5.23007 7.13154C5.35868 7.75953 5.67615 8.33637 6.14233 8.78913C6.6085 9.24189 7.20245 9.55022 7.84905 9.67513C8.49565 9.80005 9.16587 9.73594 9.77496 9.49091C10.384 9.24588 10.9046 8.83093 11.2709 8.29855C11.6372 7.76616 11.8327 7.14025 11.8327 6.49996C11.8316 5.64166 11.4801 4.81882 10.8552 4.21192C10.2303 3.60501 9.38308 3.2636 8.49935 3.26257ZM8.49935 8.44238C8.10379 8.44238 7.71711 8.32846 7.38821 8.11503C7.05931 7.90159 6.80297 7.59822 6.65159 7.24329C6.50022 6.88836 6.46061 6.4978 6.53778 6.12101C6.61495 5.74421 6.80543 5.3981 7.08514 5.12645C7.36484 4.8548 7.72121 4.6698 8.10917 4.59485C8.49713 4.5199 8.89927 4.55837 9.26472 4.70538C9.63017 4.8524 9.94253 5.10137 10.1623 5.4208C10.3821 5.74023 10.4994 6.11578 10.4994 6.49996C10.4994 7.01512 10.2886 7.50918 9.91356 7.87346C9.53849 8.23774 9.02978 8.44238 8.49935 8.44238Z" fill="#0D6EFD"/>
</g>
</g>
<defs>
<clipPath id="clip0_332_3445">
<rect width="16" height="12.8" fill="white" transform="translate(0.5 0.0999756)"/>
</clipPath>
</defs>
</svg>
