<svg width="44" height="50" viewBox="0 0 44 50" fill="none" xmlns="http://www.w3.org/2000/svg">
<path d="M22.1916 50.0077C21.9332 49.757 21.6065 49.6354 21.3025 49.4606C19.38 48.3436 17.4499 47.2418 15.5198 46.1247C13.8709 45.1673 12.222 44.2022 10.5654 43.2448C8.98487 42.3253 7.39673 41.4211 5.80859 40.5092C4.24324 39.605 2.69308 38.6703 1.10494 37.7965C0.724997 37.5837 0.626221 37.3709 0.626221 36.9606C0.641418 28.8907 0.641414 20.8284 0.633815 12.7585C0.633815 12.5229 0.694606 12.3861 0.907372 12.2646C1.94081 11.6871 2.95144 11.0867 3.97728 10.5016C4.98791 9.91654 6.00615 9.33143 7.01679 8.74632C8.04262 8.16122 9.06087 7.57611 10.0867 6.98341C11.0973 6.3983 12.108 5.80559 13.1262 5.22049C14.0153 4.70377 14.9119 4.20225 15.801 3.68553C16.804 3.10803 17.8071 2.51532 18.8177 1.93781C19.6992 1.42869 20.5806 0.927175 21.4697 0.418057C21.6293 0.326871 21.804 0.266081 21.9408 0.152099C22.2068 -0.0834629 22.4347 -0.0150739 22.7083 0.152099C25.535 1.79344 28.3618 3.43477 31.1885 5.06851C32.2068 5.65362 33.2402 6.20833 34.1596 6.94541C35.0259 7.6369 35.8466 8.35879 36.4089 9.33143C36.5609 9.59739 36.6824 9.87854 36.7356 10.2509C36.2797 9.98492 35.8618 9.74936 35.4514 9.5138C32.9134 8.04724 30.3755 6.58827 27.8375 5.1217C26.1809 4.16426 24.5244 3.21441 22.8755 2.24936C22.7159 2.15818 22.6095 2.16578 22.4575 2.24936C18.8709 4.32383 15.2843 6.3907 11.6976 8.46517C8.92409 10.0685 6.15053 11.6643 3.36178 13.2524C3.08062 13.412 2.98184 13.5867 2.98944 13.9059C2.99704 21.1931 2.99704 28.4728 2.98944 35.76C2.98944 36.0336 3.07303 36.1779 3.30859 36.3147C5.96057 37.8345 8.60494 39.3694 11.2569 40.8968C14.0077 42.4849 16.7584 44.0731 19.5092 45.6612C20.4742 46.2159 21.4317 46.7706 22.3891 47.3329C22.5639 47.4393 22.7007 47.4469 22.8906 47.3329C24.7827 46.2311 26.69 45.1369 28.5897 44.0427C28.7949 43.9287 28.9545 43.9211 29.1748 44.0199C29.8055 44.3238 30.4438 44.5974 31.1277 44.9089C30.7174 45.1445 30.3451 45.3725 29.9575 45.5928C27.4575 47.0366 24.9575 48.4728 22.4575 49.9165C22.4195 49.9393 22.3891 49.9697 22.3511 50.0001H22.184L22.1916 50.0077Z" fill="#B4B9A1"/>
<path d="M20.877 37.2721C21.2037 37.7508 21.4621 38.2752 21.8192 38.7311C22.6323 39.7645 23.6125 40.6156 24.6688 41.3831C25.8542 42.2417 27.1004 42.9864 28.3921 43.6551C28.4453 43.6855 28.4985 43.7159 28.5821 43.7615C28.035 44.0806 27.5107 44.3846 26.9788 44.6885C25.611 45.4712 24.2508 46.2539 22.8906 47.0518C22.7159 47.1505 22.6019 47.1581 22.4271 47.0518C19.8891 45.5776 17.3511 44.1186 14.8131 42.6521C12.3283 41.2159 9.85112 39.7797 7.36632 38.3436C6.07452 37.5989 4.78273 36.8466 3.48334 36.1095C3.32376 36.0183 3.25537 35.9195 3.25537 35.7296C3.25537 28.4423 3.26297 21.1627 3.25537 13.8755C3.25537 13.6931 3.30857 13.5867 3.47574 13.4879C6.39368 11.8086 9.3116 10.1293 12.2295 8.44234C15.611 6.48945 18.9925 4.54416 22.3739 2.58367C22.5639 2.46969 22.7083 2.4545 22.921 2.57608C25.9225 4.3238 28.9393 6.06392 31.9484 7.80404C33.4909 8.6931 35.0411 9.58975 36.5836 10.4712C36.7508 10.5624 36.7812 10.6612 36.7508 10.8436C36.614 11.5426 36.1581 11.991 35.6034 12.3633C35.4894 12.4393 35.3678 12.5077 35.2539 12.5761C35.8542 12.6977 37.1384 12.3025 37.6703 11.6718C38.3086 10.9195 38.3162 10.0533 38.1642 9.09583C38.4453 9.2706 38.7265 9.35419 38.9165 9.58215C38.9697 10.0077 39.0229 10.4332 38.9469 10.8587C38.7797 11.801 38.2402 12.4925 37.4955 13.0548C36.576 13.7463 35.5046 14.1034 34.418 14.4074C30.8921 15.4104 27.3587 16.3679 23.9165 17.6369C22.0472 18.3284 20.2007 19.0882 18.4681 20.0761C16.3329 21.2919 14.8891 23.07 14.1672 25.4256C13.7721 26.7098 13.8785 27.9332 14.3116 29.1414C14.5168 27.5305 15.3906 26.3223 16.5456 25.2964C17.5031 24.4454 18.5973 23.8223 19.7751 23.3284C21.4925 22.6065 23.2782 22.0594 25.0563 21.4894C28.7037 20.3116 32.4119 19.3162 36.1125 18.3056C37.3967 17.956 38.4909 17.3101 39.3268 16.2615C40.5122 14.7873 40.6262 13.1612 39.9803 11.4363C39.8359 11.0563 39.5928 10.722 39.494 10.3192C39.6156 10.3344 39.6384 10.4484 39.6991 10.5244C40.1855 11.1627 40.573 11.8542 40.9605 12.5533C40.9605 12.6597 40.9605 12.7736 40.9757 12.88C41.2037 14.5746 40.7402 16.0411 39.5624 17.2873C38.6353 18.26 37.4955 18.9211 36.2873 19.4606C34.532 20.2508 32.6779 20.7448 30.8086 21.2007C27.3131 22.0518 23.9013 23.1612 20.5882 24.5518C19.1672 25.1445 17.845 25.9119 16.804 27.0746C15.6414 28.3739 15.1399 29.8937 15.383 31.6262C15.5654 32.9028 16.0745 34.0654 16.7356 35.1673C17.959 37.1885 19.57 38.8755 21.3177 40.4408C21.576 40.6764 21.8268 40.9347 22.1459 41.1019C22.1535 41.1171 22.1611 41.1551 22.1915 41.1171C22.1915 41.1171 22.1687 41.1019 22.1611 41.0867C22.1308 40.9575 22.032 40.8663 21.9636 40.7676C20.839 39.2326 19.9043 37.5989 19.6156 35.684C19.5396 35.1977 19.4636 34.6961 19.5776 34.2022C19.7675 34.8405 19.9575 35.4864 20.2463 36.0943C20.4362 36.497 20.6034 36.9226 20.8997 37.2721H20.877ZM25.9073 9.68094C24.4636 9.68094 23.2706 10.8663 23.301 12.3101C23.3314 13.7615 24.4104 14.9165 25.9453 14.9013C27.5791 14.8861 28.5441 13.5563 28.5365 12.2797C28.5365 10.8284 27.3739 9.67334 25.9073 9.67334V9.68094Z" fill="#B4B9A1"/>
<path d="M38.9241 9.59735C39.0305 9.55176 39.0988 9.63534 39.1672 9.67334C40.7098 10.5624 42.2523 11.4591 43.8025 12.3405C43.9469 12.4241 44.0001 12.5077 44.0001 12.6825C44.0001 20.8815 44.0001 29.073 44.0001 37.2721C44.0001 37.4621 43.9241 37.5457 43.7797 37.6293C42.3587 38.4195 40.953 39.225 39.5472 40.0457C37.0396 41.5198 34.5092 42.9484 32.0016 44.4226C31.804 44.5366 31.6596 44.5442 31.4621 44.4378C29.4484 43.4195 27.5411 42.2417 25.915 40.6536C24.5624 39.339 23.5061 37.8344 22.9894 35.9879C22.4575 34.0958 22.6019 32.2493 23.3922 30.456C23.4074 30.4256 23.415 30.3952 23.3922 30.3268C23.301 30.4028 23.2098 30.4788 23.1186 30.5548C22.184 31.3451 21.3709 32.2417 20.8542 33.3512C20.3299 34.4834 20.3147 35.6612 20.725 36.839C20.7782 36.9834 20.877 37.1125 20.8542 37.2797C20.5578 36.9302 20.3906 36.5122 20.2007 36.1019C19.9119 35.494 19.7296 34.8481 19.532 34.2098C19.57 32.956 20.0715 31.8694 20.8162 30.8967C21.8952 29.4986 23.3086 28.5715 24.9347 27.9028C26.994 27.0594 29.0837 26.2843 31.1961 25.5852C33.339 24.8709 35.4438 24.0578 37.4119 22.956C38.9773 22.0822 40.3071 20.9423 41.2493 19.3922C42.6095 17.1733 42.4727 14.4682 40.915 12.5533C40.535 11.8542 40.1399 11.1627 39.6536 10.5244C39.5928 10.4484 39.57 10.3344 39.4484 10.3192C39.456 10.266 39.4484 10.228 39.3876 10.2129C39.3724 10.1901 39.3572 10.1673 39.342 10.1445C39.1824 9.96969 39.0989 9.72653 38.8937 9.58215L38.9241 9.59735Z" fill="#1D968F"/>
<path d="M39.4787 10.3268C39.4103 10.3268 39.4103 10.2737 39.4179 10.2205C39.4787 10.2357 39.4939 10.2737 39.4787 10.3268Z" fill="#B4B9A1"/>
<path d="M39.4179 10.2281C39.3799 10.2281 39.3647 10.1977 39.3723 10.1597C39.3875 10.1825 39.4027 10.2053 39.4179 10.2281Z" fill="#B4B9A1"/>
</svg>