<svg width="144" height="50" viewBox="0 0 144 50" fill="none" xmlns="http://www.w3.org/2000/svg">
<path d="M122.192 50.0077C121.933 49.757 121.606 49.6354 121.303 49.4606C119.38 48.3436 117.45 47.2418 115.52 46.1247C113.871 45.1673 112.222 44.2022 110.565 43.2448C108.985 42.3253 107.397 41.4211 105.809 40.5092C104.243 39.605 102.693 38.6703 101.105 37.7965C100.725 37.5837 100.626 37.3709 100.626 36.9606C100.641 28.8907 100.641 20.8284 100.634 12.7585C100.634 12.5229 100.695 12.3861 100.907 12.2646C101.941 11.6871 102.951 11.0867 103.977 10.5016C104.988 9.91654 106.006 9.33143 107.017 8.74632C108.043 8.16122 109.061 7.57611 110.087 6.98341C111.097 6.3983 112.108 5.80559 113.126 5.22049C114.015 4.70377 114.912 4.20225 115.801 3.68553C116.804 3.10803 117.807 2.51532 118.818 1.93781C119.699 1.42869 120.581 0.927175 121.47 0.418057C121.629 0.326871 121.804 0.266081 121.941 0.152099C122.207 -0.0834629 122.435 -0.0150739 122.708 0.152099C125.535 1.79344 128.362 3.43477 131.189 5.06851C132.207 5.65362 133.24 6.20833 134.16 6.94541C135.026 7.6369 135.847 8.35879 136.409 9.33143C136.561 9.59739 136.682 9.87854 136.736 10.2509C136.28 9.98492 135.862 9.74936 135.451 9.5138C132.913 8.04724 130.375 6.58827 127.837 5.1217C126.181 4.16426 124.524 3.21441 122.875 2.24936C122.716 2.15818 122.609 2.16578 122.458 2.24936C118.871 4.32383 115.284 6.3907 111.698 8.46517C108.924 10.0685 106.151 11.6643 103.362 13.2524C103.081 13.412 102.982 13.5867 102.989 13.9059C102.997 21.1931 102.997 28.4728 102.989 35.76C102.989 36.0336 103.073 36.1779 103.309 36.3147C105.961 37.8345 108.605 39.3694 111.257 40.8968C114.008 42.4849 116.758 44.0731 119.509 45.6612C120.474 46.2159 121.432 46.7706 122.389 47.3329C122.564 47.4393 122.701 47.4469 122.891 47.3329C124.783 46.2311 126.69 45.1369 128.59 44.0427C128.795 43.9287 128.954 43.9211 129.175 44.0199C129.806 44.3238 130.444 44.5974 131.128 44.9089C130.717 45.1445 130.345 45.3725 129.958 45.5928C127.458 47.0366 124.958 48.4728 122.458 49.9165C122.42 49.9393 122.389 49.9697 122.351 50.0001H122.184L122.192 50.0077Z" fill="#B4B9A1"/>
<path d="M0.732483 17.5457C0.831267 17.4697 0.808471 17.3405 0.861662 17.2417C1.03643 16.9074 1.2644 16.6338 1.65953 16.5351C2.36622 16.3603 3.06531 16.3299 3.78719 16.4971C4.22792 16.5958 4.46349 16.8694 4.56987 17.2873C4.74464 17.9408 4.81303 18.6171 4.94981 19.2782C5.003 19.5442 5.05619 19.8025 5.10938 20.0685C5.13218 20.1825 5.19297 20.2585 5.29935 20.2737C5.71729 20.3192 6.12762 20.2813 6.48476 20.0229C6.77352 19.8177 6.80391 19.5214 6.80391 19.2098C6.80391 18.374 6.81151 17.5381 6.80391 16.6946C6.80391 16.4895 6.8571 16.4363 7.06227 16.4439C7.46501 16.4591 7.46501 16.4439 7.46501 16.8542C7.46501 17.6521 7.46501 18.4575 7.46501 19.2554C7.46501 19.8937 7.58659 20.0761 8.20969 20.2281C8.65042 20.342 9.10634 20.342 9.54707 20.1825C10.0106 20.0153 10.2234 19.6354 10.2234 19.0199C10.2234 17.4241 10.2234 15.836 10.2234 14.2402C10.2234 14.1186 10.1474 13.9363 10.2842 13.8907C10.4589 13.8375 10.6641 13.8527 10.8465 13.8831C10.9604 13.8983 10.9073 14.0351 10.9073 14.1186C10.9073 15.7144 10.9073 17.3025 10.9073 18.8983C10.9073 19.0503 10.9149 19.2098 10.9301 19.3618C10.9756 19.8557 11.2948 20.1901 11.7963 20.2585C12.3054 20.3344 12.8221 20.3344 13.3617 20.304C13.0273 19.7721 13.1641 19.1946 13.1489 18.6475C13.1413 18.1916 13.2781 17.7889 13.7872 17.5457C13.4908 17.4849 13.2553 17.4089 13.0121 17.3861C12.7766 17.3557 12.7994 17.2113 12.8145 17.0518C12.8145 17.0366 12.8373 17.0214 12.8373 17.0062C12.8449 16.6946 12.9817 16.6566 13.2857 16.7174C14.4863 16.9682 15.6945 17.1582 16.8875 17.4393C18.2097 17.7509 18.6428 19.0351 18.2629 20.0837C18.0881 20.5776 17.4726 20.9727 16.8951 20.9803C15.2082 20.9803 13.5212 21.0031 11.8419 20.9727C11.3632 20.9651 10.9073 20.7828 10.5425 20.3876C9.91941 21.0183 9.11394 21.0335 8.30847 20.9803C7.91333 20.9575 7.53339 20.8056 7.22944 20.5168C7.13066 20.418 7.05467 20.4256 6.95589 20.5168C6.34798 21.0411 5.6033 21.0183 4.86622 20.9727C4.60026 20.9575 4.3951 20.5548 4.34191 20.1597C4.24312 19.453 4.09874 18.7463 3.98476 18.0396C3.95437 17.8648 3.90877 17.7053 3.85558 17.5381C3.7492 17.2113 3.52124 17.0518 3.20209 17.0138C2.86774 16.9758 2.5258 16.9986 2.19905 17.0822C1.77352 17.1961 1.51516 17.4773 1.46956 17.9028C1.40877 18.4651 1.40118 19.0351 1.46956 19.5898C1.53795 20.0457 1.77352 20.2281 2.23704 20.2813C2.80695 20.3496 3.38446 20.3192 3.95437 20.3116C4.17473 20.3116 4.25072 20.3724 4.22032 20.5852C4.20513 20.6688 4.22032 20.7524 4.22032 20.8284C4.22792 20.9499 4.17473 20.9879 4.06075 20.9879C3.36166 20.9879 2.65498 21.0259 1.95589 20.9727C1.49996 20.9347 1.08203 20.722 0.869261 20.2509C0.838866 20.1825 0.846464 20.0533 0.717285 20.0609V17.5457H0.732483ZM13.6428 19.0958C13.6428 19.2174 13.6428 19.3314 13.6428 19.453C13.6732 19.8861 13.8784 20.1293 14.2507 20.2205C14.851 20.3648 15.4285 20.2205 15.6261 19.8861C15.6717 19.8101 15.7021 19.7189 15.7173 19.6354C15.7857 19.2478 15.7857 18.8527 15.7021 18.4727C15.6565 18.2372 15.5045 18.07 15.2766 17.9788C14.3267 17.5837 13.6276 18.0396 13.6276 19.0503C13.6276 19.0654 13.6276 19.0882 13.6276 19.1034L13.6428 19.0958ZM16.0516 20.3116C16.3556 20.3116 16.6367 20.3268 16.9179 20.2737C17.5182 20.1673 17.8601 19.681 17.769 19.0806C17.693 18.6247 17.4346 18.3284 17.0243 18.146C16.7203 18.0092 16.3936 17.9788 16.0668 17.9332C16.348 18.7007 16.348 19.5366 16.0516 20.3116Z" fill="#1D968F"/>
<path d="M120.877 37.2721C121.204 37.7508 121.462 38.2752 121.819 38.7311C122.632 39.7645 123.613 40.6156 124.669 41.3831C125.854 42.2417 127.1 42.9864 128.392 43.6551C128.445 43.6855 128.499 43.7159 128.582 43.7615C128.035 44.0806 127.511 44.3846 126.979 44.6885C125.611 45.4712 124.251 46.2539 122.891 47.0518C122.716 47.1505 122.602 47.1581 122.427 47.0518C119.889 45.5776 117.351 44.1186 114.813 42.6521C112.328 41.2159 109.851 39.7797 107.366 38.3436C106.075 37.5989 104.783 36.8466 103.483 36.1095C103.324 36.0183 103.255 35.9195 103.255 35.7296C103.255 28.4423 103.263 21.1627 103.255 13.8755C103.255 13.6931 103.309 13.5867 103.476 13.4879C106.394 11.8086 109.312 10.1293 112.23 8.44234C115.611 6.48945 118.992 4.54416 122.374 2.58367C122.564 2.46969 122.708 2.4545 122.921 2.57608C125.923 4.3238 128.939 6.06392 131.948 7.80404C133.491 8.6931 135.041 9.58975 136.584 10.4712C136.751 10.5624 136.781 10.6612 136.751 10.8436C136.614 11.5426 136.158 11.991 135.603 12.3633C135.489 12.4393 135.368 12.5077 135.254 12.5761C135.854 12.6977 137.138 12.3025 137.67 11.6718C138.309 10.9195 138.316 10.0533 138.164 9.09583C138.445 9.2706 138.727 9.35419 138.916 9.58215C138.97 10.0077 139.023 10.4332 138.947 10.8587C138.78 11.801 138.24 12.4925 137.495 13.0548C136.576 13.7463 135.505 14.1034 134.418 14.4074C130.892 15.4104 127.359 16.3679 123.916 17.6369C122.047 18.3284 120.201 19.0882 118.468 20.0761C116.333 21.2919 114.889 23.07 114.167 25.4256C113.772 26.7098 113.878 27.9332 114.312 29.1414C114.517 27.5305 115.391 26.3223 116.546 25.2964C117.503 24.4454 118.597 23.8223 119.775 23.3284C121.492 22.6065 123.278 22.0594 125.056 21.4894C128.704 20.3116 132.412 19.3162 136.113 18.3056C137.397 17.956 138.491 17.3101 139.327 16.2615C140.512 14.7873 140.626 13.1612 139.98 11.4363C139.836 11.0563 139.593 10.722 139.494 10.3192C139.616 10.3344 139.638 10.4484 139.699 10.5244C140.185 11.1627 140.573 11.8542 140.961 12.5533C140.961 12.6597 140.961 12.7736 140.976 12.88C141.204 14.5746 140.74 16.0411 139.562 17.2873C138.635 18.26 137.495 18.9211 136.287 19.4606C134.532 20.2508 132.678 20.7448 130.809 21.2007C127.313 22.0518 123.901 23.1612 120.588 24.5518C119.167 25.1445 117.845 25.9119 116.804 27.0746C115.641 28.3739 115.14 29.8937 115.383 31.6262C115.565 32.9028 116.075 34.0654 116.736 35.1673C117.959 37.1885 119.57 38.8755 121.318 40.4408C121.576 40.6764 121.827 40.9347 122.146 41.1019C122.154 41.1171 122.161 41.1551 122.192 41.1171C122.192 41.1171 122.169 41.1019 122.161 41.0867C122.131 40.9575 122.032 40.8663 121.964 40.7676C120.839 39.2326 119.904 37.5989 119.616 35.684C119.54 35.1977 119.464 34.6961 119.578 34.2022C119.768 34.8405 119.957 35.4864 120.246 36.0943C120.436 36.497 120.603 36.9226 120.9 37.2721H120.877ZM125.907 9.68094C124.464 9.68094 123.271 10.8663 123.301 12.3101C123.331 13.7615 124.41 14.9165 125.945 14.9013C127.579 14.8861 128.544 13.5563 128.537 12.2797C128.537 10.8284 127.374 9.67334 125.907 9.67334V9.68094Z" fill="#B4B9A1"/>
<path d="M138.924 9.59735C139.03 9.55176 139.099 9.63534 139.167 9.67334C140.71 10.5624 142.252 11.4591 143.802 12.3405C143.947 12.4241 144 12.5077 144 12.6825C144 20.8815 144 29.073 144 37.2721C144 37.4621 143.924 37.5457 143.78 37.6293C142.359 38.4195 140.953 39.225 139.547 40.0457C137.04 41.5198 134.509 42.9484 132.002 44.4226C131.804 44.5366 131.66 44.5442 131.462 44.4378C129.448 43.4195 127.541 42.2417 125.915 40.6536C124.562 39.339 123.506 37.8344 122.989 35.9879C122.458 34.0958 122.602 32.2493 123.392 30.456C123.407 30.4256 123.415 30.3952 123.392 30.3268C123.301 30.4028 123.21 30.4788 123.119 30.5548C122.184 31.3451 121.371 32.2417 120.854 33.3512C120.33 34.4834 120.315 35.6612 120.725 36.839C120.778 36.9834 120.877 37.1125 120.854 37.2797C120.558 36.9302 120.391 36.5122 120.201 36.1019C119.912 35.494 119.73 34.8481 119.532 34.2098C119.57 32.956 120.071 31.8694 120.816 30.8967C121.895 29.4986 123.309 28.5715 124.935 27.9028C126.994 27.0594 129.084 26.2843 131.196 25.5852C133.339 24.8709 135.444 24.0578 137.412 22.956C138.977 22.0822 140.307 20.9423 141.249 19.3922C142.609 17.1733 142.473 14.4682 140.915 12.5533C140.535 11.8542 140.14 11.1627 139.654 10.5244C139.593 10.4484 139.57 10.3344 139.448 10.3192C139.456 10.266 139.448 10.228 139.388 10.2129C139.372 10.1901 139.357 10.1673 139.342 10.1445C139.182 9.96969 139.099 9.72653 138.894 9.58215L138.924 9.59735Z" fill="#1D968F"/>
<path d="M53.8479 16.3983C55.2537 16.7326 56.6291 17.0518 57.9969 17.3937C58.4832 17.5153 58.9695 17.6597 59.2811 18.0852C59.7142 18.6779 59.7142 19.3238 59.4862 19.9925C59.4558 20.0761 59.357 20.1901 59.5242 20.2205C60.1397 20.3268 60.7704 20.4104 61.3251 20.0229C61.6671 19.7873 61.7203 19.3922 61.7203 19.0123C61.7279 17.4013 61.7203 15.7904 61.7203 14.1794C61.7203 14.0806 61.6519 13.9211 61.7886 13.8983C61.9786 13.8603 62.1838 13.8527 62.3814 13.9135C62.4345 13.9287 62.4117 14.0123 62.4117 14.0654C62.4117 15.8056 62.4345 17.5457 62.3966 19.2858C62.3738 20.3496 61.8646 20.8588 60.6184 20.9803C60.0561 21.0335 59.4862 21.0335 58.9619 20.7448C58.8707 20.6916 58.8023 20.7448 58.7339 20.7752C58.4376 20.912 58.1336 20.9955 57.7993 20.9879C55.9756 20.9803 54.1519 20.9879 52.3282 20.9727C51.9558 20.9727 51.5835 20.9423 51.2719 20.6916C51.1883 20.6232 51.1352 20.6916 51.082 20.7144C50.3525 21.0715 49.5622 21.0867 48.8099 20.8968C48.3844 20.7828 48.0273 20.76 47.6245 20.912C47.3814 21.0031 47.1078 20.9879 46.8494 20.9879C44.7902 20.9879 42.7309 21.0031 40.6716 20.9727C40.2537 20.9727 39.8206 20.8436 39.5242 20.4864C39.471 20.418 39.4102 20.3268 39.3114 20.4408C38.8403 20.9499 38.2248 20.9955 37.5941 20.9879C37.1154 20.9879 36.6671 20.8816 36.2491 20.6156C35.816 20.342 35.6336 19.9317 35.626 19.4682C35.6032 17.7053 35.626 15.9347 35.6108 14.1718C35.6108 13.9211 35.6792 13.8679 35.9148 13.8755C36.3175 13.8983 36.3175 13.8755 36.3175 14.2858C36.3175 15.836 36.3175 17.3785 36.3175 18.9287C36.3175 19.0958 36.3099 19.263 36.3327 19.4226C36.4087 19.8557 36.6671 20.1369 37.1002 20.2281C37.6093 20.3344 38.1184 20.3648 38.6124 20.1217C38.9391 19.9621 39.0987 19.7113 39.0987 19.3542C39.0987 18.4727 39.1139 17.5837 39.0987 16.7022C39.0911 16.4059 39.2431 16.4363 39.433 16.4363C39.6382 16.4363 39.7598 16.4363 39.7522 16.7174C39.7294 17.5609 39.7522 18.412 39.7446 19.2554C39.737 19.9089 39.9725 20.1977 40.7096 20.2737C41.5227 20.3572 42.351 20.3192 43.164 20.3192C43.3236 20.3192 43.3692 20.2813 43.316 20.1065C43.202 19.7417 43.0197 19.4226 42.7461 19.1642C42.4801 18.9135 42.237 18.6323 41.9178 18.4347C41.819 18.374 41.7431 18.2676 41.7507 18.1156C41.7659 17.7509 41.7659 17.3861 41.7507 17.0214C41.7507 16.8694 41.8038 16.8162 41.9406 16.7934C42.7841 16.6642 43.62 16.5275 44.4634 16.4059C44.8054 16.3527 45.1093 16.4971 45.3601 16.7098C45.8312 17.1126 46.1352 17.6293 46.3707 18.1992C46.4847 18.4727 46.4467 18.7235 46.2871 18.9667C46.0592 19.3162 45.854 19.6734 45.6336 20.0305C45.588 20.1065 45.4969 20.1901 45.5424 20.2661C45.588 20.3496 45.7096 20.3116 45.7932 20.3116C46.3327 20.3116 46.8646 20.304 47.4042 20.2737C47.7233 20.2585 47.7233 20.2281 47.6397 19.9241C47.4649 19.2934 47.5789 18.6475 47.5637 18.0016C47.5637 17.7509 47.6245 17.5153 47.7233 17.2873C48.0045 16.6262 48.5896 16.4819 49.2127 16.4135C49.7142 16.3527 50.2081 16.3907 50.6944 16.5275C51.4315 16.7402 51.857 17.2949 51.8722 18.1232C51.8874 18.7691 51.9558 19.4302 51.7051 20.0609C51.6443 20.2205 51.7735 20.1977 51.8342 20.2205C52.2218 20.3344 52.6321 20.304 53.0273 20.3116C54.5774 20.3268 56.1276 20.3192 57.6777 20.3116C57.9589 20.3116 58.2324 20.2889 58.4908 20.1521C58.8023 19.9849 58.9619 19.7037 58.9999 19.377C59.0759 18.7007 58.6959 18.2296 58.0349 18.0852C57.2066 17.9028 56.3859 17.7129 55.5652 17.5305C55.0257 17.4089 54.4862 17.2797 53.9391 17.1658C53.7567 17.1278 53.7719 16.991 53.8099 16.8922C53.8783 16.7326 53.8555 16.573 53.8707 16.3907L53.8479 16.3983ZM51.1504 18.6855C51.1504 18.4879 51.1655 18.2828 51.1504 18.0852C51.1124 17.5305 50.8464 17.2189 50.3069 17.0974C49.889 16.9986 49.4558 16.9986 49.0379 17.1126C48.5744 17.2341 48.3084 17.5381 48.2552 18.0168C48.2096 18.4575 48.2096 18.9059 48.2552 19.3466C48.3008 19.8101 48.5592 20.1141 49.0151 20.2357C49.4558 20.3496 49.8966 20.3496 50.3373 20.2509C50.8312 20.1369 51.1124 19.8025 51.1504 19.2934C51.1655 19.0958 51.1504 18.8907 51.1504 18.6931V18.6855ZM42.3206 17.6901C42.3358 17.8572 42.2902 17.9788 42.4421 18.07C43.0197 18.412 43.43 18.9211 43.7719 19.4834C43.9163 19.7265 44.0607 19.9697 44.2583 20.1749C44.3646 20.2889 44.4482 20.3116 44.5546 20.1597C44.8662 19.7113 45.1853 19.2706 45.5273 18.8451C45.664 18.6703 45.6944 18.5031 45.6184 18.3132C45.4817 17.956 45.2993 17.6217 45.0561 17.3253C44.8662 17.0898 44.6154 17.0214 44.3266 17.0822C43.7491 17.2037 43.1716 17.3329 42.5865 17.4317C42.3814 17.4697 42.2826 17.5305 42.3206 17.6977V17.6901Z" fill="#1D968F"/>
<path d="M71.2644 20.7676C71.2644 21.0943 71.2948 21.4059 71.2644 21.7098C71.1885 22.3633 70.7933 22.804 70.2386 23.1232C69.6611 23.4499 69.0304 23.5791 68.3845 23.5487C67.7538 23.5183 67.1383 23.3739 66.6824 22.8648C66.462 22.6141 66.3176 22.3405 66.3252 21.9986C66.3252 21.2235 66.3252 20.4484 66.3252 19.6733C66.3252 19.4606 66.3784 19.3694 66.5912 19.4074C66.6292 19.4074 66.6672 19.4074 66.6976 19.4074C66.9179 19.3694 66.9939 19.4454 66.9863 19.6809C66.9711 20.2812 67.0015 20.8815 66.9787 21.4818C66.9483 22.2569 67.1003 22.6065 68.035 22.804C68.6809 22.9408 69.3268 22.8876 69.9119 22.5077C70.3678 22.2113 70.5882 21.8086 70.5806 21.2691C70.5806 19.7265 70.5806 18.1916 70.5806 16.649C70.5806 16.4135 70.6261 16.2843 70.8845 16.3375C70.9453 16.3451 71.0137 16.3451 71.0745 16.3375C71.2417 16.3147 71.2948 16.3755 71.2872 16.5502C71.2796 17.3861 71.2872 18.222 71.2872 19.0654C71.2872 19.9697 71.9331 20.5244 72.8298 20.38C73.1717 20.3268 73.5061 20.2356 73.81 20.0381C74.0684 19.8709 74.1748 19.6505 74.1824 19.3694C74.1824 18.6323 74.19 17.8952 74.1824 17.1581C74.1824 16.953 74.2356 16.8922 74.4407 16.8998C74.8511 16.915 74.8511 16.8998 74.8511 17.3025C74.8511 17.9332 74.8511 18.5563 74.8511 19.187C74.8511 19.9165 75.0714 20.2052 75.7857 20.3496C76.2265 20.4408 76.652 20.4332 77.0699 20.1901C77.503 19.9393 77.6398 19.5745 77.6474 19.1338C77.6626 18.2904 77.6626 17.4393 77.6474 16.5958C77.6474 16.3831 77.7082 16.3375 77.9058 16.3451C78.3617 16.3603 78.3617 16.3451 78.3617 16.801C78.3617 17.5989 78.3541 18.4043 78.3541 19.2022C78.3541 19.4606 78.3237 19.7113 78.2401 19.9469C78.1945 20.0837 78.2097 20.1749 78.3541 20.2052C78.9772 20.3192 79.6079 20.4256 80.1778 20.0229C80.5046 19.7949 80.5806 19.4454 80.5806 19.0806C80.5806 17.5761 80.5806 16.0791 80.5806 14.5745C80.5806 14.3922 80.5806 14.2098 80.5806 14.0274C80.5806 13.9135 80.6261 13.8755 80.7401 13.8679C81.2644 13.8299 81.2644 13.8223 81.2644 14.3466C81.2644 15.8587 81.2644 17.3709 81.2644 18.8831C81.2644 19.1186 81.2568 19.3618 81.3328 19.5821C81.5 20.0609 81.8496 20.2736 82.4575 20.2964C83.9544 20.3496 85.4438 20.3116 86.9407 20.3192C87.2979 20.3192 87.6474 20.3344 88.0046 20.2888C88.5213 20.228 88.9088 19.8785 88.962 19.415C89.0304 18.7919 88.8176 18.4119 88.2705 18.1992C87.5638 17.9256 86.8192 17.8344 86.0897 17.6445C85.3602 17.4545 84.6079 17.3101 83.8708 17.1505C83.7189 17.1201 83.734 16.9986 83.7644 16.915C83.8252 16.7478 83.8252 16.5806 83.8252 16.3907C84.8663 16.6414 85.8845 16.8846 86.9103 17.1277C87.3891 17.2417 87.8754 17.3557 88.3465 17.4925C89.5775 17.8572 89.8283 18.9742 89.4787 19.9317C89.4103 20.1141 89.4027 20.228 89.6155 20.2508C90.0866 20.2964 90.5578 20.3268 91.0213 20.2356C91.1733 20.2052 91.2341 20.1597 91.1353 20.0077C91.0213 19.8177 91.0289 19.5973 91.0213 19.3846C91.0213 18.8299 90.9909 18.2676 91.0441 17.7204C91.0897 17.2645 91.31 16.8238 91.7508 16.6414C92.6626 16.2539 93.6049 16.2615 94.5091 16.6718C95.0638 16.9226 95.269 17.4241 95.3222 17.994C95.3678 18.5563 95.383 19.1186 95.2766 19.6809C95.1398 20.3876 94.6611 20.798 93.9772 20.9119C93.2629 21.0335 92.5334 21.0867 91.8496 20.7372C91.7736 20.6992 91.6976 20.7068 91.614 20.7372C90.7325 21.0867 89.8511 21.0943 88.9696 20.7372C88.8632 20.6916 88.7948 20.722 88.7189 20.76C88.4301 20.9043 88.1337 20.9727 87.8146 20.9727C85.9377 20.9727 84.0608 20.9879 82.1839 20.9575C81.8116 20.9575 81.4164 20.8208 81.1125 20.5396C80.9909 20.4256 80.8769 20.3876 80.7173 20.5244C80.3602 20.8283 79.9195 20.9347 79.4635 20.9651C78.9848 20.9955 78.4909 21.0107 78.0578 20.798C77.7614 20.6536 77.5562 20.7524 77.2903 20.8283C76.4316 21.0791 75.535 21.1247 74.7979 20.5624C74.4787 20.3192 74.38 20.4028 74.152 20.5928C73.8404 20.8435 73.4453 20.9043 73.0502 20.9803C72.4423 21.0943 71.8724 20.9651 71.272 20.76L71.2644 20.7676ZM94.6231 18.7159C94.6231 18.5259 94.6307 18.3359 94.6231 18.146C94.5851 17.5305 94.3268 17.2037 93.7872 17.0821C93.3541 16.9834 92.921 16.9834 92.4879 17.0973C92.0395 17.2189 91.7964 17.5153 91.728 17.9636C91.6596 18.4271 91.6672 18.8907 91.7204 19.3466C91.7736 19.8025 92.0243 20.0989 92.4651 20.2204C92.9514 20.3572 93.4377 20.3496 93.9164 20.1976C94.2736 20.0913 94.4939 19.8405 94.5775 19.4682C94.6383 19.2174 94.6155 18.959 94.6155 18.7083L94.6231 18.7159Z" fill="#1D968F"/>
<path d="M71.6519 30.1977C71.6519 29.187 71.6519 28.1764 71.6519 27.1657C71.6519 26.7706 71.6975 26.7326 72.0927 26.7326C72.2598 26.7326 72.4194 26.7478 72.5866 26.7326C72.9513 26.687 73.1489 26.8542 73.3009 27.1809C73.9012 28.4879 74.5319 29.7873 75.1474 31.0943C75.3753 31.5806 75.6033 32.0746 75.8313 32.5609C75.8616 32.6293 75.8768 32.7509 75.9756 32.7357C76.0896 32.7129 76.0288 32.5989 76.0288 32.5305C76.0364 30.7144 76.044 28.8907 76.044 27.0746C76.044 26.8238 76.0896 26.725 76.3632 26.7402C76.9103 26.763 76.9103 26.7402 76.9103 27.3025C76.9103 29.2326 76.9103 31.1627 76.9103 33.0928C76.9103 33.5107 76.8343 33.5791 76.424 33.5867C76.234 33.5867 76.044 33.5867 75.8464 33.5867C75.4665 33.5867 75.3601 33.5031 75.2157 33.1688C74.8814 32.3861 74.4863 31.6338 74.1291 30.8664C73.8176 30.2053 73.4908 29.5442 73.1945 28.8755C73.0121 28.4727 72.8221 28.07 72.6398 27.6673C72.617 27.6141 72.617 27.5685 72.541 27.5685C72.4574 27.5685 72.465 27.6293 72.4726 27.6825C72.579 28.5183 72.5106 29.3542 72.5182 30.1901C72.5334 31.2387 72.5182 32.2797 72.5258 33.3284C72.5258 33.5335 72.4726 33.5867 72.2674 33.5867C71.6367 33.5791 71.6367 33.5867 71.6367 32.9712C71.6367 32.0518 71.6367 31.1323 71.6367 30.2129L71.6519 30.1977Z" fill="#1D968F"/>
<path d="M87.2067 33.7083C86.6216 33.6855 86.0517 33.6323 85.5502 33.2828C85.2994 33.108 85.1246 32.8724 85.003 32.5989C84.7751 32.0974 84.6611 31.5731 84.6307 31.0259C84.6003 30.38 84.5927 29.7341 84.6307 29.0883C84.6687 28.5411 84.8055 28.0016 85.079 27.5153C85.2994 27.1278 85.6413 26.9074 86.0593 26.7782C86.8647 26.5351 87.6702 26.5351 88.4681 26.7554C89.2128 26.9606 89.6155 27.5077 89.7979 28.2296C89.9119 28.6931 89.9726 29.1642 89.9802 29.6506C89.9878 30.4332 90.003 31.2159 89.8131 31.991C89.5699 33.0016 88.9924 33.5259 87.959 33.6551C87.7082 33.6855 87.4499 33.6855 87.1991 33.7083H87.2067ZM89.1064 30.0381C89.1216 29.8101 89.076 29.4606 89.0456 29.1186C89.0304 28.9591 88.9924 28.7919 88.9544 28.6399C88.7644 27.8269 88.3769 27.4621 87.541 27.4089C86.2112 27.3253 85.7857 27.8572 85.6337 28.7995C85.4742 29.7645 85.4742 30.7448 85.6717 31.7022C85.8237 32.4393 86.2264 32.8041 86.9483 32.8876C87.1459 32.9104 87.3511 32.9104 87.5486 32.8952C88.3085 32.8572 88.7644 32.4773 88.9392 31.7402C89.0684 31.2159 89.0912 30.6764 89.0988 30.0229L89.1064 30.0381Z" fill="#1D968F"/>
<path d="M83.3312 31.5807C83.3312 32.1658 83.3312 32.7433 83.3312 33.3284C83.3312 33.4956 83.3008 33.5715 83.1108 33.5639C82.6701 33.5639 82.6321 33.5411 82.6093 33.0852C82.6093 33.0244 82.6321 32.9408 82.5713 32.9104C82.4877 32.8649 82.4498 32.9636 82.4042 33.0092C81.5759 33.6779 80.6488 33.9211 79.6382 33.5335C79.0531 33.3132 78.7871 32.7737 78.62 32.2038C78.3692 31.3527 78.3844 30.4864 78.3996 29.6126C78.4148 28.9895 78.4984 28.3816 78.7339 27.7965C79.0075 27.1202 79.5546 26.801 80.2385 26.6794C81.1504 26.5199 82.0622 26.5807 82.9665 26.763C83.1336 26.7934 83.1564 26.8618 83.1336 26.9986C83.0653 27.4849 83.0653 27.4697 82.5713 27.4317C81.9786 27.3785 81.3859 27.3405 80.8008 27.4165C79.965 27.5153 79.585 27.8421 79.4406 28.6703C79.2583 29.719 79.2583 30.7828 79.471 31.8314C79.6762 32.8497 80.4589 33.0548 81.2947 32.8725C81.7203 32.7813 82.047 32.4925 82.4194 32.2949C82.5181 32.2418 82.4725 32.1278 82.4801 32.0442C82.4801 31.3147 82.4801 30.5852 82.4801 29.8633C82.4801 29.681 82.5181 29.6126 82.7157 29.6126C83.3312 29.6126 83.3312 29.6126 83.3312 30.2205C83.3312 30.6764 83.3312 31.1323 83.3312 31.5883V31.5807Z" fill="#1D968F"/>
<path d="M62.0166 33.6932C61.5607 33.6704 61.1199 33.678 60.7096 33.4956C60.1701 33.26 59.9345 32.7889 59.8206 32.2646C59.737 31.8771 59.6458 31.4667 59.6914 31.0716C59.7598 30.4409 59.7674 29.7874 60.1777 29.2403C60.3373 29.0275 60.5424 28.8907 60.7704 28.8148C61.4847 28.5792 62.2066 28.5716 62.9361 28.7464C63.5592 28.8907 63.9543 29.2783 64.1063 29.9014C64.3266 30.798 64.3342 31.6871 64.0531 32.5686C63.8327 33.26 63.2704 33.5716 62.5865 33.6552C62.3889 33.678 62.1838 33.678 62.009 33.6932H62.0166ZM63.3996 31.102C63.3844 30.912 63.3768 30.6689 63.3388 30.4257C63.2476 29.7418 62.9513 29.4379 62.3054 29.3619C62.1002 29.3391 61.8874 29.3391 61.6823 29.3619C61.0972 29.4303 60.816 29.6734 60.702 30.2509C60.5728 30.8892 60.5804 31.5351 60.7248 32.1734C60.8312 32.6369 61.1427 32.9029 61.5987 32.9485C62.1382 33.0017 62.7005 33.0549 63.1108 32.561C63.2172 32.4318 63.2628 32.2722 63.3008 32.1126C63.3768 31.8011 63.392 31.4819 63.4072 31.1096L63.3996 31.102Z" fill="#1D968F"/>
<path d="M32.427 33.7007C32.0699 33.6627 31.7508 33.6627 31.4316 33.5639C30.8085 33.374 30.4894 32.9408 30.3222 32.3481C30.1626 31.7858 30.2006 31.2083 30.2158 30.6384C30.231 30.1749 30.345 29.7037 30.6185 29.3086C30.8237 29.0198 31.1125 28.8527 31.4544 28.7615C32.0623 28.6019 32.6778 28.6019 33.2857 28.7083C34.0532 28.8451 34.5243 29.339 34.6687 30.1445C34.7903 30.8664 34.8055 31.5882 34.6307 32.3025C34.4255 33.1384 33.9468 33.5715 33.0881 33.6627C32.8526 33.6855 32.617 33.6931 32.4118 33.7007H32.427ZM31.1125 31.1931C31.1201 31.3603 31.1201 31.573 31.1429 31.7782C31.2188 32.4925 31.4544 32.8192 32.0167 32.9332C32.3587 33.0016 32.7006 32.994 33.0425 32.918C33.4149 32.8268 33.658 32.6065 33.7492 32.2417C33.9316 31.5122 33.9392 30.7828 33.7492 30.0609C33.6201 29.5746 33.2249 29.3998 32.7766 29.3694C32.2371 29.339 31.6824 29.301 31.3404 29.8557C31.2644 29.9773 31.234 30.1217 31.196 30.266C31.1201 30.5624 31.1277 30.8588 31.1125 31.2007V31.1931Z" fill="#1D968F"/>
<path d="M24.6306 30.1901C24.6306 29.5366 24.6534 28.9439 24.7978 28.3512C25.1017 27.105 25.7704 26.7479 26.8267 26.6415C27.5409 26.5731 28.2552 26.6263 28.9695 26.7707C29.1595 26.8087 29.1899 26.8847 29.1595 27.0442C29.1519 27.0898 29.1367 27.1278 29.1291 27.1734C29.0683 27.4774 28.9467 27.523 28.6276 27.4774C27.8753 27.3862 27.1154 27.2646 26.3783 27.599C25.93 27.8041 25.7552 28.2145 25.6868 28.64C25.5045 29.6962 25.4741 30.76 25.7324 31.8163C25.892 32.4926 26.4011 32.8877 27.1002 32.9029C27.7613 32.9181 28.43 32.9181 29.0835 32.8193C29.1899 32.8041 29.2431 32.8421 29.2583 32.9257C29.2887 33.0777 29.3115 33.2296 29.3191 33.3816C29.3191 33.4956 29.2203 33.4804 29.1367 33.5032C28.3616 33.7084 27.5789 33.7008 26.7887 33.6552C25.9604 33.6096 25.3221 33.2524 24.9802 32.4698C24.8282 32.1278 24.7598 31.7707 24.699 31.3983C24.6306 30.9728 24.6534 30.5549 24.6382 30.1825L24.6306 30.1901Z" fill="#1D968F"/>
<path d="M31.2719 20.9804C30.1549 20.9804 29.0303 20.988 27.9132 20.9804C27.1078 20.9728 26.6063 20.5624 26.4467 19.7798C26.2947 19.0579 26.2643 18.3284 26.4467 17.6065C26.6367 16.8314 27.2674 16.3679 28.05 16.4439C28.1488 16.4515 28.1944 16.4819 28.1944 16.5883C28.1944 16.7251 28.1944 16.8618 28.1944 16.9986C28.1944 17.1278 28.1184 17.1734 28.0044 17.1734C27.3129 17.1582 27.1154 17.5381 26.9938 18.0472C26.8798 18.526 26.9026 19.0123 27.0318 19.4986C27.161 19.9621 27.4649 20.2357 27.9436 20.2965C28.0728 20.3117 28.1944 20.3269 28.3236 20.3269C30.2461 20.3269 32.1686 20.3269 34.0911 20.3269C34.3038 20.3269 34.3646 20.2737 34.3646 20.0533C34.357 18.9363 34.3646 17.8117 34.3494 16.6947C34.3494 16.3831 34.5242 16.4515 34.6914 16.4439C34.8813 16.4287 34.9801 16.4591 34.9801 16.6947C34.9649 18.0396 34.9725 19.3922 34.9801 20.7372C34.9801 20.9424 34.9345 20.9956 34.7294 20.9956C33.5819 20.988 32.4345 20.9956 31.2871 20.9956L31.2719 20.9804Z" fill="#1D968F"/>
<path d="M19.0608 20.0305C19.3875 20.266 19.7143 20.266 20.0334 20.3192C20.1854 20.342 20.2158 20.2812 20.1854 20.1368C19.8967 18.7919 19.6155 17.4469 19.3343 16.1019C19.266 15.7827 19.1976 15.4636 19.1292 15.1444C19.1292 15.114 19.114 15.0533 19.1292 15.0457C19.3191 14.9241 19.5319 15.0229 19.7295 14.9849C19.8435 14.9697 19.8587 15.0305 19.8815 15.1216C20.0182 15.7751 20.1702 16.421 20.307 17.0745C20.5122 18.07 20.7097 19.0654 20.9149 20.0609C20.9453 20.2128 21.0061 20.2508 21.1505 20.1748C21.5912 19.9317 21.7812 19.5593 21.7812 19.0654C21.7812 17.4697 21.7812 15.8815 21.7812 14.2858C21.7812 13.8527 21.9179 13.7539 22.3511 13.8526C22.4954 13.883 22.4498 13.9818 22.4498 14.0654C22.4498 14.5745 22.4498 15.0837 22.4498 15.5928C22.4498 16.8466 22.4574 18.108 22.4498 19.3618C22.4498 19.9925 22.2067 20.5092 21.5988 20.7827C21.2948 20.9195 20.9757 20.9955 20.6337 20.9879C20.1778 20.9879 19.7219 21.0183 19.2736 20.8435C19.1216 20.7827 19.0532 20.7144 19.0684 20.5548C19.0836 20.4028 19.0684 20.2508 19.0684 20.0305H19.0608Z" fill="#1D968F"/>
<path d="M40.2006 31.1628C40.2006 31.8695 40.2006 32.5838 40.2006 33.2904C40.2006 33.6096 40.2006 33.5944 39.7675 33.6172C39.4939 33.6324 39.4636 33.4728 39.456 33.2752C39.456 33.2221 39.4711 33.1689 39.4711 33.1157C39.4711 32.9713 39.418 32.9029 39.2812 33.0093C38.8101 33.3588 38.2781 33.5792 37.7082 33.7084C37.2827 33.8072 36.462 33.6628 36.2417 33.2221C36.1581 33.0549 36.0821 32.8801 36.0821 32.6901C36.0821 31.4363 36.0745 30.1825 36.0669 28.9211C36.0669 28.792 36.1049 28.754 36.2341 28.7464C36.9028 28.7084 36.9028 28.7084 36.9028 29.3771C36.9028 30.2661 36.9028 31.1628 36.9028 32.0518C36.9028 32.8193 37.1535 33.0929 38.0198 32.9181C38.4833 32.8269 38.8708 32.5382 39.2736 32.3026C39.3724 32.2418 39.3496 32.1278 39.3496 32.029C39.3496 31.026 39.3572 30.0306 39.3496 29.0275C39.3496 28.792 39.418 28.7388 39.6383 28.7464C40.2082 28.7616 40.2082 28.7464 40.2082 29.3163V31.1704L40.2006 31.1628Z" fill="#1D968F"/>
<path d="M42.5258 29.4454C42.9665 29.1566 43.4072 28.8679 43.924 28.7387C44.3343 28.6323 44.7446 28.5867 45.1626 28.6931C45.6185 28.8071 45.9072 29.1566 45.968 29.6354C46.006 29.9773 46.006 30.3269 46.006 30.6688C46.006 31.5503 46.006 32.4317 46.006 33.3208C46.006 33.5031 45.968 33.5715 45.7705 33.5715C45.1398 33.5715 45.1398 33.5715 45.1398 32.956C45.1398 32.0822 45.1398 31.2083 45.1398 30.3345C45.1398 30.1597 45.1246 29.9773 45.0942 29.8025C45.0334 29.4986 44.6686 29.2934 44.2963 29.3542C43.848 29.4226 43.4528 29.6354 43.0425 29.8253C42.6626 30.0001 42.5562 30.2433 42.579 30.646C42.617 31.5351 42.579 32.4317 42.5942 33.3208C42.5942 33.5031 42.5486 33.5715 42.3586 33.5715C41.7583 33.5715 41.7583 33.5715 41.7583 32.9864C41.7583 31.6642 41.7583 30.3421 41.7583 29.0275C41.7583 28.8299 41.7887 28.7387 42.0167 28.7539C42.4194 28.7767 42.4194 28.7539 42.4954 29.149C42.5106 29.2478 42.5258 29.339 42.5486 29.453L42.5258 29.4454Z" fill="#1D968F"/>
<path d="M93.7721 29.3846C93.2934 29.3466 92.8147 29.3238 92.3359 29.3922C92.2068 29.415 92.0928 29.4606 92.0168 29.5746C91.804 29.9013 91.9636 30.4181 92.3283 30.5472C92.8451 30.7296 93.3922 30.8056 93.9317 30.9348C94.1596 30.988 94.3876 31.0412 94.5928 31.1551C95.1323 31.4439 95.2463 31.9834 95.1475 32.6217C95.0259 33.4196 94.6004 33.5032 93.8177 33.6551C93.2022 33.7767 92.5943 33.6247 91.9788 33.6551C91.7888 33.6627 91.5913 33.602 91.3937 33.5944C91.2417 33.5944 91.2037 33.4956 91.2037 33.2904C91.2113 32.8725 91.4165 32.9333 91.69 32.9333C92.3815 32.9485 93.073 33.0016 93.7645 32.8953C94.1293 32.8421 94.3268 32.6521 94.3496 32.3102C94.3648 32.0594 94.2508 31.8466 94.0077 31.763C93.7189 31.6643 93.415 31.5731 93.1186 31.5123C92.6779 31.4211 92.2372 31.3299 91.804 31.1931C91.4545 31.0868 91.1581 30.684 91.1353 30.3193C91.1201 30.0913 91.0821 29.871 91.1201 29.6354C91.2341 28.9743 91.4469 28.7995 91.9712 28.7007C92.6399 28.5716 93.3086 28.602 93.9849 28.6703C94.266 28.7007 94.5472 28.7311 94.8207 28.7311C95.0411 28.7311 95.0259 28.8679 95.0031 29.0047C94.9803 29.1567 95.0715 29.377 94.7827 29.377C94.4484 29.377 94.1065 29.377 93.7721 29.377V29.3846Z" fill="#1D968F"/>
<path d="M65.968 31.5046C65.968 30.8891 65.9604 30.266 65.968 29.6505C65.968 29.453 65.9072 29.3846 65.7248 29.415C65.6412 29.4226 65.5576 29.415 65.4816 29.415C65.1017 29.415 64.9953 29.2706 65.0941 28.8906C65.1093 28.8223 65.1397 28.7995 65.2005 28.7995C65.2385 28.7995 65.2765 28.7995 65.3069 28.7995C65.5196 28.7691 65.816 28.8679 65.93 28.7159C66.0364 28.5715 65.9604 28.2979 65.968 28.0776C65.9832 27.766 65.9452 27.4545 66.0743 27.1505C66.2187 26.7858 66.4695 26.5958 66.8418 26.5274C67.4193 26.4134 68.0044 26.5046 68.5819 26.5274C68.6275 26.5274 68.6883 26.5274 68.6959 26.5806C68.7339 26.763 68.7111 26.9454 68.6427 27.1125C68.5971 27.2341 68.468 27.1657 68.3768 27.1733C68.012 27.1961 67.6473 27.1353 67.2901 27.2189C67.0318 27.2797 66.8874 27.4317 66.8342 27.6976C66.7734 28.0092 66.8114 28.3131 66.7962 28.6247C66.7962 28.7843 66.895 28.7615 66.9938 28.7615C67.3661 28.7615 67.7385 28.7691 68.1108 28.7615C68.2932 28.7615 68.3616 28.8147 68.3312 28.9894C68.3312 29.0274 68.3312 29.0654 68.3312 29.0958C68.3768 29.3542 68.2856 29.453 68.012 29.4302C67.6929 29.3998 67.3737 29.4302 67.0546 29.4226C66.8418 29.415 66.7734 29.4682 66.781 29.6885C66.7962 30.8891 66.781 32.0897 66.7962 33.2903C66.7962 33.5411 66.7278 33.5943 66.4923 33.5867C65.9528 33.5715 65.9528 33.5867 65.9528 33.0472C65.9528 32.5077 65.9528 32.0289 65.9528 31.5198L65.968 31.5046Z" fill="#1D968F"/>
<path d="M49.7903 33.6856C49.19 33.678 48.7797 33.6856 48.377 33.5412C47.7463 33.3132 47.4423 32.8041 47.3359 32.1962C47.2067 31.4515 47.1915 30.6917 47.3815 29.947C47.5411 29.3239 47.8906 28.8832 48.5593 28.7464C49.342 28.5868 50.1247 28.602 50.8998 28.7996C51.0593 28.8376 51.1353 28.9136 51.0745 29.0579C51.0213 29.1871 51.1049 29.4075 50.8086 29.4151C50.3906 29.4227 49.9803 29.3315 49.5624 29.3543C48.6353 29.3999 48.2706 29.7418 48.1794 30.6081C48.1262 31.102 48.1338 31.5807 48.2478 32.0594C48.3846 32.637 48.7721 32.9485 49.3724 32.9637C49.8739 32.9713 50.3754 32.9865 50.8694 32.9181C50.9757 32.9029 51.1505 32.8421 51.1429 33.0625C51.1353 33.2373 51.3405 33.4652 50.9681 33.5412C50.5122 33.6324 50.0639 33.7084 49.7827 33.6932L49.7903 33.6856Z" fill="#1D968F"/>
<path d="M54.813 29.7341C54.813 28.7767 54.813 27.8268 54.813 26.8694C54.813 26.6794 54.8586 26.6262 55.0561 26.6262C55.6565 26.6262 55.6565 26.6262 55.6565 27.2265C55.6565 28.8223 55.6565 30.4104 55.6565 32.0062C55.6565 32.0897 55.6565 32.1733 55.6565 32.2493C55.6868 32.7128 55.8692 32.8876 56.3403 32.9104C56.3555 32.9104 56.3783 32.9104 56.3935 32.9104C56.5227 32.9256 56.6975 32.8496 56.7583 32.9408C56.8495 33.0852 56.8495 33.2828 56.8495 33.4651C56.8495 33.5411 56.7963 33.5867 56.7355 33.5943C56.3403 33.6703 55.9376 33.7083 55.5349 33.5943C55.1017 33.4803 54.8206 33.0092 54.8206 32.6217C54.8206 31.6566 54.8206 30.6916 54.8206 29.7265L54.813 29.7341Z" fill="#1D968F"/>
<path d="M23.8099 17.4393C23.8099 18.5259 23.8099 19.605 23.8099 20.6916C23.8099 20.9195 23.7795 21.0183 23.5212 21.0031C23.1108 20.9803 23.1108 21.0031 23.1108 20.57C23.1108 18.4499 23.1108 16.3299 23.1108 14.2022C23.1108 13.9667 23.1564 13.8375 23.4148 13.8907C23.4756 13.8983 23.544 13.8983 23.6048 13.8907C23.7795 13.8603 23.8099 13.9515 23.8099 14.111C23.8099 15.2205 23.8099 16.3299 23.8099 17.4469V17.4393Z" fill="#1D968F"/>
<path d="M63.7797 17.4393C63.7797 18.5411 63.7797 19.643 63.7797 20.7372C63.7797 20.9423 63.7189 20.9955 63.5213 20.9879C63.0806 20.9727 63.0806 20.9879 63.0806 20.5396C63.0806 18.412 63.0806 16.2843 63.0806 14.1566C63.0806 13.9211 63.149 13.8451 63.3693 13.8831C63.4301 13.8907 63.4985 13.8907 63.5593 13.8831C63.7417 13.8603 63.7873 13.9287 63.7873 14.111C63.7797 15.2205 63.7873 16.3299 63.7873 17.4393H63.7797Z" fill="#1D968F"/>
<path d="M52.3889 31.1552C52.3889 30.4257 52.3889 29.7038 52.3889 28.9743C52.3889 28.7996 52.4345 28.7388 52.6169 28.7388C53.2324 28.7388 53.2324 28.7312 53.2324 29.3391C53.2324 30.6537 53.2324 31.9759 53.2324 33.2904C53.2324 33.5032 53.1792 33.564 52.9589 33.564C52.3813 33.5488 52.3813 33.564 52.3813 32.9789V31.1552H52.3889Z" fill="#1D968F"/>
<path d="M53.2706 27.2494C53.2706 27.7661 52.9742 27.956 52.4879 27.7737C52.3967 27.7357 52.3511 27.6749 52.3359 27.6065C52.2827 27.3633 52.2523 27.105 52.3511 26.8694C52.4879 26.5503 52.7766 26.725 52.997 26.7022C53.1794 26.687 53.263 26.8314 53.2706 27.0062C53.2706 27.0898 53.2706 27.1658 53.2706 27.2494Z" fill="#1D968F"/>
<path d="M38.8328 22.5001C38.734 22.5001 38.6504 22.5001 38.5669 22.5001C38.4529 22.5077 38.4377 22.4545 38.4301 22.3557C38.3845 21.8162 38.3845 21.8162 38.9468 21.8238C39.038 21.8238 39.1976 21.7478 39.2204 21.8998C39.2507 22.0822 39.2659 22.2949 39.1976 22.4621C39.1596 22.5685 38.9468 22.4849 38.8328 22.5001Z" fill="#1D968F"/>
<path d="M86.196 21.8162C86.31 21.839 86.5152 21.7478 86.5608 21.8542C86.6292 22.0214 86.5912 22.2265 86.5912 22.4089C86.5912 22.4469 86.5684 22.4849 86.5228 22.4849C86.2948 22.4849 86.0745 22.4849 85.8465 22.4849C85.7933 22.4849 85.7705 22.4393 85.7705 22.3937C85.7705 22.3405 85.7705 22.2873 85.7705 22.2341C85.7705 21.9555 85.9123 21.8162 86.196 21.8162Z" fill="#1D968F"/>
<path d="M7.73852 21.8162C7.8449 21.839 8.04247 21.7554 8.08047 21.8542C8.14126 22.0214 8.11086 22.2265 8.11086 22.4165C8.11086 22.4697 8.06527 22.4925 8.01208 22.4925C7.81451 22.4925 7.60934 22.4925 7.41177 22.4925C7.34338 22.4925 7.31299 22.4621 7.31299 22.3937C7.31299 22.3405 7.31299 22.2873 7.31299 22.2265C7.31299 21.9479 7.45483 21.8086 7.73852 21.8086V21.8162Z" fill="#1D968F"/>
<path d="M6.51513 21.8162C6.62911 21.839 6.83428 21.7478 6.87987 21.8542C6.94826 22.0214 6.91027 22.2265 6.91027 22.4089C6.91027 22.4469 6.88747 22.4849 6.84188 22.4849C6.61392 22.4849 6.39355 22.4849 6.16559 22.4849C6.1124 22.4849 6.0896 22.4393 6.0896 22.3937C6.0896 22.3405 6.0896 22.2873 6.0896 22.2341C6.0896 21.9555 6.23144 21.8162 6.51513 21.8162Z" fill="#1D968F"/>
<path d="M40.0106 21.8163C40.3982 21.8163 40.535 22.0063 40.4134 22.3938C40.3906 22.4698 40.345 22.4926 40.2766 22.4926C40.0942 22.4926 39.9119 22.4926 39.7295 22.4926C39.6307 22.4926 39.6079 22.4394 39.6079 22.3558C39.6079 22.3102 39.6079 22.2646 39.6079 22.219C39.6079 21.9505 39.7396 21.8163 40.003 21.8163H40.0106Z" fill="#1D968F"/>
<path d="M31.5987 15.1445C31.6975 15.1673 31.8874 15.0761 31.933 15.1901C31.9938 15.3497 31.9558 15.5472 31.9558 15.7296C31.9558 15.7904 31.9102 15.8056 31.8646 15.8056C31.6671 15.8056 31.4619 15.8056 31.2643 15.8056C31.1808 15.8056 31.158 15.7524 31.158 15.684C31.158 15.646 31.158 15.608 31.158 15.5776C31.158 15.2889 31.3074 15.1445 31.6063 15.1445H31.5987Z" fill="#1D968F"/>
<path d="M30.2233 15.8131C30.1169 15.7827 29.9269 15.8891 29.8737 15.7523C29.8129 15.5928 29.8509 15.3952 29.8585 15.2128C29.8585 15.1444 29.9269 15.1444 29.9801 15.1444C30.1169 15.1444 30.2537 15.1596 30.3905 15.1444C30.6184 15.114 30.6564 15.2128 30.6488 15.418C30.6336 15.8131 30.6488 15.8131 30.2233 15.8131Z" fill="#1D968F"/>
<path d="M3.49083 14.871C3.59722 14.871 3.6732 14.871 3.75679 14.871C3.87837 14.8634 3.90117 14.9166 3.90877 15.0306C3.93916 15.5397 3.93916 15.5397 3.42244 15.5321C3.32366 15.5321 3.16409 15.5929 3.12609 15.4789C3.0729 15.3041 3.0577 15.0837 3.12609 14.9242C3.18688 14.795 3.37685 14.9014 3.48323 14.871H3.49083Z" fill="#1D968F"/>
<path d="M2.34332 14.871C2.4421 14.8938 2.63967 14.8102 2.67766 14.9166C2.73845 15.0837 2.70046 15.2889 2.70046 15.4789C2.70046 15.5473 2.62447 15.5397 2.57128 15.5397C2.4345 15.5397 2.29772 15.5245 2.16095 15.5397C1.94818 15.5625 1.90259 15.4865 1.90259 15.2813C1.91779 14.871 1.90259 14.871 2.34332 14.871Z" fill="#1D968F"/>
<path d="M56.2492 22.4925C56.1657 22.4925 56.0821 22.4925 56.0061 22.4925C55.8845 22.5001 55.8389 22.4393 55.8541 22.3329C55.8769 22.1658 55.7629 21.915 55.9073 21.8542C56.0897 21.7706 56.3328 21.8314 56.5532 21.8314C56.6216 21.8314 56.6368 21.8846 56.6368 21.9454C56.6368 21.9986 56.6368 22.0518 56.6368 22.105C56.6368 22.5533 56.69 22.4849 56.2416 22.4925H56.2492Z" fill="#1D968F"/>
<path d="M19.4635 13.45C19.5243 13.4651 19.6383 13.4196 19.6383 13.5487C19.6383 13.6323 19.5775 13.6703 19.4863 13.6703C19.3495 13.6703 19.1748 13.6247 19.1596 13.8451C19.1444 14.0503 19.2659 14.1718 19.4331 14.2782C19.5319 14.339 19.7599 14.2858 19.7371 14.4226C19.7143 14.5746 19.5091 14.4606 19.3875 14.491C19.3191 14.5062 19.2431 14.4986 19.1748 14.529C19.114 14.5518 19.0152 14.5898 18.9772 14.5138C18.924 14.4074 19.038 14.415 19.0912 14.377C19.2203 14.2934 19.0836 14.2402 19.0532 14.187C18.8936 13.8679 19.114 13.4651 19.4559 13.4651L19.4635 13.45Z" fill="#1D968F"/>
<path d="M139.479 10.3268C139.41 10.3268 139.41 10.2737 139.418 10.2205C139.479 10.2357 139.494 10.2737 139.479 10.3268Z" fill="#B4B9A1"/>
<path d="M139.418 10.2281C139.38 10.2281 139.365 10.1977 139.372 10.1597C139.387 10.1825 139.403 10.2053 139.418 10.2281Z" fill="#B4B9A1"/>
</svg>
