<svg width="77" height="9" viewBox="0 0 77 9" fill="none" xmlns="http://www.w3.org/2000/svg">
<g id="Group 197">
<path id="Vector" d="M51.3582 4.35525C51.3582 3.26393 51.3582 2.17261 51.3582 1.08129C51.3582 0.654605 51.4074 0.613575 51.8341 0.613575C52.0146 0.613575 52.187 0.629986 52.3675 0.613575C52.7613 0.564343 52.9747 0.744862 53.1388 1.0977C53.787 2.50903 54.4681 3.91216 55.1327 5.32349C55.3789 5.84863 55.625 6.38199 55.8712 6.90713C55.904 6.98098 55.9204 7.11227 56.0271 7.09586C56.1502 7.07124 56.0845 6.94816 56.0845 6.87431C56.0927 4.91322 56.101 2.94392 56.101 0.98282C56.101 0.712041 56.1502 0.605372 56.4456 0.621782C57.0364 0.646399 57.0364 0.621781 57.0364 1.22898C57.0364 3.31316 57.0364 5.39734 57.0364 7.48151C57.0364 7.93281 56.9543 8.00666 56.5112 8.01486C56.3061 8.01486 56.101 8.01486 55.8876 8.01486C55.4773 8.01486 55.3625 7.9246 55.2066 7.56357C54.8455 6.71841 54.4188 5.90607 54.0332 5.07733C53.6968 4.36345 53.3439 3.64958 53.0239 2.92751C52.827 2.49262 52.6218 2.05773 52.4249 1.62284C52.4003 1.56541 52.4003 1.51617 52.3182 1.51617C52.228 1.51617 52.2362 1.58181 52.2444 1.63925C52.3593 2.54185 52.2854 3.44445 52.2936 4.34704C52.31 5.47939 52.2936 6.60353 52.3018 7.73588C52.3018 7.95743 52.2444 8.01486 52.0228 8.01486C51.3418 8.00666 51.3418 8.01487 51.3418 7.35023C51.3418 6.35737 51.3418 5.36451 51.3418 4.37166L51.3582 4.35525Z" fill="#1D968F"/>
<path id="Vector_2" d="M68.1551 8.14623C67.5233 8.12161 66.9079 8.06418 66.3663 7.68673C66.0956 7.498 65.9068 7.24364 65.7755 6.94824C65.5294 6.40668 65.4063 5.84051 65.3735 5.24972C65.3407 4.55226 65.3325 3.8548 65.3735 3.15734C65.4145 2.56655 65.5622 1.98396 65.8576 1.45882C66.0956 1.04034 66.4648 0.802381 66.9161 0.662889C67.7859 0.400315 68.6557 0.400316 69.5172 0.638273C70.3214 0.85982 70.7562 1.45061 70.9532 2.23012C71.0763 2.73065 71.1419 3.23939 71.1501 3.76454C71.1583 4.60969 71.1747 5.45485 70.9696 6.29181C70.707 7.38313 70.0834 7.9493 68.9675 8.08879C68.6967 8.12161 68.4177 8.12161 68.1469 8.14623H68.1551ZM70.2065 4.18301C70.2229 3.93685 70.1737 3.5594 70.1408 3.19016C70.1244 3.01785 70.0834 2.83733 70.0424 2.67322C69.8372 1.79524 69.4188 1.40138 68.5162 1.34394C67.0802 1.25368 66.6207 1.82806 66.4566 2.84553C66.2843 3.88762 66.2843 4.94612 66.4976 5.98C66.6617 6.77593 67.0966 7.16979 67.8761 7.26005C68.0895 7.28466 68.311 7.28466 68.5244 7.26825C69.3449 7.22722 69.8372 6.81695 70.026 6.02103C70.1655 5.45485 70.1901 4.87227 70.1983 4.1666L70.2065 4.18301Z" fill="#1D968F"/>
<path id="Vector_3" d="M63.9699 5.84867C63.9699 6.48049 63.9699 7.1041 63.9699 7.73592C63.9699 7.91644 63.9371 7.99849 63.7319 7.99029C63.256 7.99029 63.215 7.96567 63.1904 7.47334C63.1904 7.4077 63.215 7.31744 63.1493 7.28462C63.0591 7.23539 63.0181 7.34206 62.9688 7.39129C62.0744 8.11337 61.0734 8.37594 59.982 7.95746C59.3502 7.71951 59.063 7.13692 58.8825 6.52152C58.6117 5.60251 58.6282 4.66709 58.6446 3.72347C58.661 3.05062 58.7512 2.39419 59.0056 1.76237C59.301 1.03209 59.8918 0.687461 60.6303 0.556175C61.6149 0.383861 62.5996 0.449505 63.576 0.646435C63.7566 0.679256 63.7812 0.753106 63.7566 0.900804C63.6827 1.42595 63.6827 1.40954 63.1493 1.36851C62.5093 1.31107 61.8693 1.27005 61.2375 1.3521C60.3349 1.45877 59.9246 1.81161 59.7687 2.706C59.5718 3.83834 59.5718 4.9871 59.8015 6.11945C60.0231 7.21898 60.8682 7.44052 61.7708 7.24359C62.2303 7.14513 62.5832 6.83332 62.9852 6.61998C63.0919 6.56254 63.0427 6.43946 63.0509 6.3492C63.0509 5.56148 63.0509 4.77376 63.0509 3.99425C63.0509 3.79732 63.0919 3.72347 63.3053 3.72347C63.9699 3.72347 63.9699 3.72347 63.9699 4.3799C63.9699 4.87223 63.9699 5.36455 63.9699 5.85688V5.84867Z" fill="#1D968F"/>
<path id="Vector_4" d="M40.9537 8.12999C40.4614 8.10537 39.9855 8.11357 39.5424 7.91664C38.9598 7.66228 38.7054 7.15354 38.5823 6.58737C38.4921 6.16889 38.3936 5.7258 38.4428 5.29912C38.5167 4.61807 38.5249 3.9124 38.968 3.32161C39.1403 3.09186 39.3618 2.94416 39.608 2.86211C40.3793 2.60774 41.1588 2.59953 41.9466 2.78826C42.6194 2.94416 43.0461 3.36264 43.2102 4.03548C43.4482 5.00372 43.4564 5.96375 43.1528 6.91558C42.9148 7.66228 42.3076 7.9987 41.5691 8.08896C41.3558 8.11357 41.1342 8.11358 40.9455 8.12999H40.9537ZM42.4471 5.33194C42.4307 5.1268 42.4225 4.86423 42.3814 4.60165C42.283 3.86317 41.963 3.53495 41.2655 3.4529C41.044 3.42828 40.8142 3.42828 40.5927 3.4529C39.9608 3.52675 39.6572 3.78932 39.5342 4.41293C39.3947 5.10219 39.4029 5.79965 39.5588 6.4889C39.6736 6.98943 40.0101 7.27662 40.5024 7.32585C41.085 7.38329 41.6922 7.44073 42.1353 6.90738C42.2502 6.76789 42.2994 6.59557 42.3404 6.42326C42.4225 6.08684 42.4389 5.74221 42.4553 5.34014L42.4471 5.33194Z" fill="#1D968F"/>
<path id="Vector_5" d="M9.00176 8.13801C8.61611 8.09699 8.27148 8.09699 7.92685 7.99032C7.254 7.78518 6.90937 7.31747 6.72885 6.67745C6.55654 6.07025 6.59757 5.44664 6.61398 4.83123C6.63039 4.3307 6.75347 3.82196 7.04887 3.39528C7.27042 3.08348 7.58222 2.90296 7.95147 2.80449C8.6079 2.63218 9.27254 2.63218 9.92898 2.74705C10.7577 2.89475 11.2665 3.4281 11.4224 4.29788C11.5537 5.07739 11.5701 5.85691 11.3813 6.62822C11.1598 7.53081 10.6429 7.99852 9.71564 8.09699C9.46127 8.1216 9.2069 8.12981 8.98535 8.13801H9.00176ZM7.58222 5.43023C7.59043 5.61075 7.59043 5.8405 7.61504 6.06204C7.6971 6.83335 7.95146 7.18619 8.55867 7.30927C8.92791 7.38312 9.29716 7.37491 9.6664 7.29286C10.0685 7.19439 10.331 6.95643 10.4295 6.56257C10.6264 5.77485 10.6346 4.98713 10.4295 4.20762C10.29 3.68247 9.86333 3.49375 9.37921 3.46092C8.79662 3.4281 8.19763 3.38708 7.82838 3.98607C7.74633 4.11736 7.71351 4.27326 7.67248 4.42916C7.59043 4.74918 7.59863 5.06919 7.58222 5.43843V5.43023Z" fill="#1D968F"/>
<path id="Vector_6" d="M0.583008 4.34726C0.583008 3.64159 0.607624 3.00157 0.763527 2.36154C1.09174 1.01586 1.81382 0.630201 2.95438 0.515325C3.72569 0.441476 4.497 0.498916 5.26831 0.654818C5.47345 0.695846 5.50627 0.7779 5.47345 0.950214C5.46524 0.999447 5.44883 1.04047 5.44063 1.0897C5.37498 1.41792 5.2437 1.46716 4.89907 1.41792C4.08673 1.31946 3.26619 1.18817 2.47026 1.54921C1.98614 1.77076 1.79741 2.21385 1.72356 2.67335C1.52663 3.8139 1.49381 4.96266 1.7728 6.10322C1.94511 6.8335 2.49488 7.26018 3.24978 7.27659C3.96365 7.293 4.68573 7.293 5.3914 7.18633C5.50627 7.16992 5.56371 7.21095 5.58012 7.30121C5.61294 7.46532 5.63756 7.62942 5.64576 7.79353C5.64576 7.91661 5.53909 7.9002 5.44883 7.92482C4.61188 8.14637 3.76672 8.13816 2.91335 8.08893C2.01896 8.03969 1.3297 7.65404 0.960457 6.80888C0.796348 6.43964 0.7225 6.05398 0.656857 5.65192C0.583008 5.19242 0.607623 4.74112 0.591212 4.33905L0.583008 4.34726Z" fill="#1D968F"/>
<path id="Vector_7" d="M17.3954 5.3974C17.3954 6.16051 17.3954 6.93181 17.3954 7.69492C17.3954 8.03955 17.3954 8.02313 16.9277 8.04775C16.6323 8.06416 16.5995 7.89185 16.5913 7.67851C16.5913 7.62107 16.6077 7.56363 16.6077 7.50619C16.6077 7.35029 16.5502 7.27644 16.4025 7.39132C15.8938 7.76877 15.3194 8.00672 14.704 8.14621C14.2445 8.25289 13.3583 8.09698 13.1204 7.62107C13.0301 7.44055 12.9481 7.25182 12.9481 7.04669C12.9481 5.69279 12.9398 4.3389 12.9316 2.9768C12.9316 2.83731 12.9727 2.79628 13.1122 2.78808C13.8342 2.74705 13.8342 2.74705 13.8342 3.46913C13.8342 4.42916 13.8342 5.3974 13.8342 6.35743C13.8342 7.18618 14.105 7.48158 15.0404 7.29285C15.541 7.19439 15.9594 6.88258 16.3943 6.62821C16.501 6.56257 16.4764 6.43949 16.4764 6.33282C16.4764 5.2497 16.4846 4.17479 16.4764 3.09168C16.4764 2.83731 16.5502 2.77987 16.7882 2.78808C17.4036 2.80449 17.4036 2.78808 17.4036 3.40348V5.40561L17.3954 5.3974Z" fill="#1D968F"/>
<path id="Vector_8" d="M19.9069 3.543C20.3828 3.2312 20.8587 2.91939 21.4167 2.7799C21.8598 2.66502 22.3029 2.61579 22.7542 2.73067C23.2465 2.85375 23.5583 3.2312 23.6239 3.74814C23.665 4.11738 23.665 4.49483 23.665 4.86407C23.665 5.8159 23.665 6.76773 23.665 7.72777C23.665 7.9247 23.6239 7.99854 23.4106 7.99854C22.7295 7.99854 22.7295 7.99855 22.7295 7.33391C22.7295 6.39028 22.7295 5.44666 22.7295 4.50304C22.7295 4.31431 22.7131 4.11738 22.6803 3.92866C22.6147 3.60044 22.2208 3.37889 21.8187 3.44454C21.3346 3.51839 20.9079 3.74814 20.4648 3.95328C20.0546 4.142 19.9397 4.40457 19.9643 4.83946C20.0053 5.79949 19.9643 6.76773 19.9807 7.72777C19.9807 7.9247 19.9315 7.99854 19.7264 7.99854C19.0781 7.99854 19.0781 7.99855 19.0781 7.36673C19.0781 5.93899 19.0781 4.51124 19.0781 3.0917C19.0781 2.87836 19.1109 2.7799 19.3571 2.79631C19.792 2.82093 19.792 2.79631 19.8741 3.22299C19.8905 3.32966 19.9069 3.42813 19.9315 3.55121L19.9069 3.543Z" fill="#1D968F"/>
<path id="Vector_9" d="M75.2437 3.47736C74.7267 3.43633 74.2098 3.41171 73.6929 3.48556C73.5534 3.51018 73.4303 3.55941 73.3482 3.68249C73.1185 4.03533 73.2908 4.59329 73.6847 4.73279C74.2426 4.92972 74.8334 5.01177 75.416 5.15126C75.6622 5.2087 75.9083 5.26614 76.1299 5.38922C76.7125 5.70103 76.8355 6.28361 76.7289 6.97287C76.5976 7.83443 76.1381 7.92469 75.2929 8.0888C74.6283 8.22009 73.9718 8.05598 73.3072 8.0888C73.1021 8.09701 72.8887 8.03137 72.6754 8.02316C72.5113 8.02316 72.4702 7.91649 72.4702 7.69494C72.4784 7.24364 72.7 7.30929 72.9954 7.30929C73.7421 7.3257 74.4888 7.38314 75.2355 7.26826C75.6293 7.21082 75.8427 7.00569 75.8673 6.63644C75.8837 6.36566 75.7606 6.13591 75.4981 6.04565C75.1862 5.93898 74.858 5.84052 74.538 5.77487C74.0621 5.67641 73.5862 5.57795 73.1185 5.43025C72.741 5.31537 72.421 4.88048 72.3964 4.48662C72.38 4.24046 72.339 4.00251 72.38 3.74814C72.5031 3.03427 72.7328 2.84554 73.299 2.73887C74.0211 2.59938 74.7432 2.6322 75.4734 2.70605C75.777 2.73887 76.0806 2.77169 76.376 2.77169C76.614 2.77169 76.5976 2.91939 76.573 3.06709C76.5483 3.2312 76.6468 3.46915 76.335 3.46915C75.974 3.46915 75.6047 3.46915 75.2437 3.46915V3.47736Z" fill="#1D968F"/>
<path id="Vector_10" d="M45.2204 5.76669C45.2204 5.10205 45.2122 4.4292 45.2204 3.76456C45.2204 3.55122 45.1548 3.47738 44.9579 3.5102C44.8676 3.5184 44.7773 3.5102 44.6953 3.5102C44.285 3.5102 44.1701 3.35429 44.2768 2.94402C44.2932 2.87017 44.326 2.84556 44.3917 2.84556C44.4327 2.84556 44.4737 2.84556 44.5066 2.84556C44.7363 2.81274 45.0563 2.9194 45.1794 2.7553C45.2943 2.59939 45.2122 2.304 45.2204 2.06604C45.2368 1.72962 45.1958 1.3932 45.3353 1.06498C45.4912 0.671122 45.762 0.465987 46.1641 0.392138C46.7877 0.269057 47.4195 0.367522 48.0431 0.392138C48.0923 0.392138 48.158 0.392138 48.1662 0.449576C48.2072 0.646506 48.1826 0.843433 48.1087 1.02395C48.0595 1.15524 47.92 1.08139 47.8216 1.0896C47.4277 1.11421 47.0338 1.04857 46.6482 1.13883C46.3692 1.20447 46.2133 1.36858 46.1559 1.65577C46.0902 1.99219 46.1312 2.32041 46.1148 2.65683C46.1148 2.82915 46.2215 2.80453 46.3282 2.80453C46.7302 2.80453 47.1323 2.81274 47.5344 2.80453C47.7313 2.80453 47.8051 2.86197 47.7723 3.05069C47.7723 3.09172 47.7723 3.13275 47.7723 3.16557C47.8216 3.44455 47.7231 3.55122 47.4277 3.52661C47.0831 3.49379 46.7384 3.52661 46.3938 3.5184C46.1641 3.5102 46.0902 3.56764 46.0984 3.80559C46.1148 5.10205 46.0984 6.3985 46.1148 7.69496C46.1148 7.96574 46.041 8.02318 45.7866 8.01497C45.204 7.99856 45.204 8.01497 45.204 7.43239C45.204 6.8498 45.204 6.33286 45.204 5.7831L45.2204 5.76669Z" fill="#1D968F"/>
<path id="Vector_11" d="M27.7514 8.12177C27.1031 8.11357 26.66 8.12177 26.2252 7.96587C25.5441 7.71971 25.2159 7.16994 25.101 6.51351C24.9615 5.70938 24.9451 4.88884 25.1502 4.08471C25.3226 3.41186 25.7 2.93595 26.4221 2.78825C27.2672 2.61593 28.1124 2.63235 28.9494 2.84569C29.1217 2.88671 29.2037 2.96877 29.1381 3.12467C29.0806 3.26416 29.1709 3.50212 28.8509 3.51033C28.3996 3.51853 27.9565 3.42007 27.5052 3.44468C26.5041 3.49391 26.1103 3.86316 26.0118 4.79858C25.9544 5.33193 25.9626 5.84887 26.0857 6.36581C26.2334 6.98942 26.6518 7.32585 27.3001 7.34226C27.8416 7.35046 28.3832 7.36687 28.9165 7.29303C29.0314 7.27662 29.2201 7.21097 29.2119 7.44893C29.2037 7.63765 29.4253 7.88382 29.0232 7.96587C28.5309 8.06433 28.0468 8.14639 27.7432 8.12998L27.7514 8.12177Z" fill="#1D968F"/>
<path id="Vector_12" d="M33.1748 3.8548C33.1748 2.82091 33.1748 1.79524 33.1748 0.761352C33.1748 0.556217 33.224 0.498779 33.4374 0.498779C34.0856 0.498779 34.0856 0.49878 34.0856 1.14701C34.0856 2.87015 34.0856 4.58508 34.0856 6.30822C34.0856 6.39848 34.0856 6.48874 34.0856 6.57079C34.1184 7.07132 34.3154 7.26005 34.8241 7.28466C34.8405 7.28466 34.8651 7.28466 34.8815 7.28466C35.021 7.30107 35.2098 7.21902 35.2754 7.31748C35.3739 7.47339 35.3739 7.68673 35.3739 7.88366C35.3739 7.96571 35.3164 8.01495 35.2508 8.02315C34.8241 8.10521 34.3892 8.14623 33.9543 8.02315C33.4866 7.90007 33.183 7.39133 33.183 6.97286C33.183 5.93077 33.183 4.88868 33.183 3.84659L33.1748 3.8548Z" fill="#1D968F"/>
<path id="Vector_13" d="M30.557 5.38924C30.557 4.60152 30.557 3.822 30.557 3.03428C30.557 2.84555 30.6063 2.77991 30.8032 2.77991C31.4678 2.77991 31.4678 2.7717 31.4678 3.42814C31.4678 4.84768 31.4678 6.27542 31.4678 7.69496C31.4678 7.92471 31.4104 7.99035 31.1724 7.99035C30.5488 7.97394 30.5488 7.99035 30.5488 7.35853V5.38924H30.557Z" fill="#1D968F"/>
<path id="Vector_14" d="M31.509 1.17158C31.509 1.72955 31.189 1.93468 30.6639 1.73775C30.5654 1.69673 30.5162 1.63108 30.4998 1.55723C30.4423 1.29466 30.4095 1.01568 30.5162 0.761308C30.6639 0.41668 30.9757 0.605407 31.2136 0.580791C31.4106 0.56438 31.5008 0.720281 31.509 0.909006C31.509 0.999265 31.509 1.08132 31.509 1.17158Z" fill="#1D968F"/>
</g>
</svg>
