<svg width="103" height="12" viewBox="0 0 103 12" fill="none" xmlns="http://www.w3.org/2000/svg">
<g id="Group 198">
<path id="Vector" d="M0.58477 5.24459C0.691441 5.16254 0.666825 5.02305 0.724263 4.91637C0.912988 4.55534 1.15915 4.25994 1.58583 4.15327C2.34894 3.96455 3.10384 3.93172 3.88336 4.11224C4.35927 4.21891 4.61364 4.51431 4.72852 4.96561C4.91724 5.67127 4.99109 6.40156 5.13879 7.11543C5.19623 7.40262 5.25367 7.6816 5.3111 7.96879C5.33572 8.09187 5.40136 8.17393 5.51624 8.19034C5.96754 8.23957 6.41063 8.19854 6.79629 7.91956C7.10809 7.69801 7.14092 7.378 7.14092 7.04158C7.14092 6.13898 7.14912 5.23639 7.14092 4.32558C7.14092 4.10404 7.19835 4.0466 7.4199 4.0548C7.85479 4.07122 7.85479 4.05481 7.85479 4.4979C7.85479 5.35947 7.85479 6.22924 7.85479 7.09081C7.85479 7.78007 7.98608 7.977 8.65892 8.1411C9.13484 8.26419 9.62716 8.26418 10.1031 8.09187C10.6036 7.91135 10.8334 7.50108 10.8334 6.83644C10.8334 5.11331 10.8334 3.39837 10.8334 1.67523C10.8334 1.54395 10.7513 1.34702 10.899 1.29779C11.0877 1.24035 11.3093 1.25676 11.5062 1.28958C11.6293 1.30599 11.5719 1.45369 11.5719 1.54395C11.5719 3.26708 11.5719 4.98202 11.5719 6.70516C11.5719 6.86927 11.5801 7.04158 11.5965 7.20569C11.6457 7.73904 11.9903 8.10008 12.5319 8.17393C13.0817 8.25598 13.6396 8.25598 14.2222 8.22316C13.8612 7.64878 14.0089 7.02517 13.9925 6.43438C13.9843 5.94205 14.132 5.50716 14.6817 5.24459C14.3617 5.17895 14.1073 5.09689 13.8448 5.07228C13.5904 5.03946 13.615 4.88355 13.6314 4.71124C13.6314 4.69483 13.656 4.67842 13.656 4.66201C13.6642 4.32559 13.8119 4.28456 14.1402 4.3502C15.4366 4.62098 16.7413 4.82612 18.0295 5.12972C19.4573 5.46614 19.925 6.85285 19.5147 7.9852C19.326 8.51855 18.6614 8.94524 18.0377 8.95344C16.2161 8.95344 14.3945 8.97806 12.5811 8.94524C12.0642 8.93703 11.5719 8.7401 11.178 8.31342C10.5051 8.99447 9.63537 9.01088 8.76559 8.95344C8.33891 8.92882 7.92864 8.76472 7.60042 8.45291C7.49375 8.34624 7.4117 8.35444 7.30503 8.45291C6.64859 9.01908 5.84446 8.99447 5.04853 8.94524C4.76134 8.92882 4.53979 8.49394 4.48235 8.06726C4.37568 7.30415 4.21978 6.54105 4.0967 5.77794C4.06388 5.58922 4.01464 5.4169 3.95721 5.23639C3.84233 4.88355 3.59617 4.71124 3.25154 4.67021C2.8905 4.62918 2.52125 4.6538 2.16842 4.74406C1.70892 4.86714 1.42993 5.17074 1.3807 5.63025C1.31505 6.23745 1.30685 6.85285 1.3807 7.45185C1.45455 7.94417 1.70892 8.1411 2.20945 8.19854C2.82486 8.27239 3.44847 8.23957 4.06388 8.23136C4.30183 8.23136 4.38389 8.29701 4.35107 8.52676C4.33466 8.61702 4.35107 8.70728 4.35107 8.78933C4.35927 8.92062 4.30183 8.96165 4.17875 8.96165C3.42385 8.96165 2.66075 9.00267 1.90585 8.94524C1.41352 8.90421 0.96222 8.67446 0.732468 8.16572C0.699646 8.09187 0.707852 7.95238 0.568359 7.96058V5.24459H0.58477ZM14.5258 6.9185C14.5258 7.04978 14.5258 7.17286 14.5258 7.30415C14.5586 7.77186 14.7802 8.03443 15.1822 8.1329C15.8305 8.2888 16.4541 8.1329 16.6674 7.77186C16.7167 7.68981 16.7495 7.59134 16.7659 7.50108C16.8397 7.08261 16.8397 6.65592 16.7495 6.24565C16.7003 5.99128 16.5361 5.81077 16.29 5.7123C15.2643 5.28562 14.5094 5.77794 14.5094 6.86926C14.5094 6.88567 14.5094 6.91029 14.5094 6.9267L14.5258 6.9185ZM17.1269 8.23136C17.4552 8.23136 17.7588 8.24777 18.0624 8.19034C18.7106 8.07546 19.0798 7.55031 18.9814 6.90209C18.8993 6.40976 18.6203 6.08975 18.1772 5.89282C17.849 5.74512 17.4962 5.7123 17.1433 5.66307C17.4469 6.49182 17.4469 7.39441 17.1269 8.23136Z" fill="#1D968F"/>
<path id="Vector_2" d="M57.9401 4.00549C59.4581 4.36652 60.9433 4.71115 62.4203 5.0804C62.9454 5.21168 63.4706 5.36759 63.807 5.82709C64.2747 6.46711 64.2747 7.16457 64.0286 7.88665C63.9957 7.97691 63.8891 8.09999 64.0696 8.13281C64.7342 8.24769 65.4153 8.33795 66.0143 7.91947C66.3835 7.6651 66.441 7.23842 66.441 6.82815C66.4492 5.0886 66.441 3.34905 66.441 1.6095C66.441 1.50283 66.3671 1.33052 66.5148 1.3059C66.7199 1.26488 66.9415 1.25667 67.1548 1.32231C67.2123 1.33872 67.1877 1.42898 67.1877 1.48642C67.1877 3.36546 67.2123 5.24451 67.1712 7.12355C67.1466 8.27231 66.5969 8.82207 65.2512 8.95335C64.644 9.01079 64.0286 9.01079 63.4624 8.69899C63.3639 8.64155 63.2901 8.69899 63.2162 8.73181C62.8962 8.87951 62.568 8.96977 62.207 8.96156C60.2376 8.95335 58.2683 8.96156 56.299 8.94515C55.897 8.94515 55.4949 8.91233 55.1585 8.64155C55.0682 8.5677 55.0108 8.64155 54.9533 8.66616C54.1656 9.05182 53.3123 9.06823 52.4999 8.86309C52.0404 8.74001 51.6548 8.7154 51.2199 8.87951C50.9573 8.97797 50.6619 8.96156 50.3829 8.96156C48.1592 8.96156 45.9356 8.97797 43.7119 8.94515C43.2606 8.94515 42.7929 8.80566 42.4729 8.42C42.4154 8.34615 42.3498 8.24769 42.2431 8.37077C41.7344 8.92053 41.0697 8.96977 40.3887 8.96156C39.8717 8.96156 39.3876 8.84668 38.9363 8.55949C38.4686 8.2641 38.2717 7.82101 38.2635 7.32048C38.2389 5.41682 38.2635 3.50496 38.2471 1.6013C38.2471 1.33052 38.3209 1.27308 38.5753 1.28129C39.0102 1.3059 39.0102 1.28129 39.0102 1.72438C39.0102 3.39829 39.0102 5.06399 39.0102 6.73789C39.0102 6.91841 39.002 7.09893 39.0266 7.27124C39.1086 7.73895 39.3876 8.04255 39.8553 8.14102C40.4051 8.25589 40.9549 8.28871 41.4882 8.02614C41.8411 7.85383 42.0134 7.58305 42.0134 7.19739C42.0134 6.24556 42.0298 5.28553 42.0134 4.3337C42.0052 4.01369 42.1693 4.04651 42.3744 4.04651C42.596 4.04651 42.7272 4.04651 42.719 4.35011C42.6944 5.26092 42.719 6.17992 42.7108 7.09072C42.7026 7.79639 42.957 8.1082 43.7529 8.19025C44.6309 8.28051 45.5253 8.23948 46.4033 8.23948C46.5756 8.23948 46.6248 8.19846 46.5674 8.00973C46.4443 7.61587 46.2474 7.27124 45.952 6.99226C45.6648 6.72148 45.4022 6.41788 45.0576 6.20454C44.9509 6.1389 44.8689 6.02402 44.8771 5.85991C44.8935 5.46605 44.8935 5.07219 44.8771 4.67833C44.8771 4.51422 44.9345 4.45678 45.0822 4.43217C45.993 4.29268 46.8956 4.14498 47.8064 4.01369C48.1757 3.95625 48.5039 4.11216 48.7746 4.34191C49.2834 4.7768 49.6116 5.33476 49.866 5.95017C49.9891 6.24557 49.948 6.51635 49.7757 6.77892C49.5295 7.15637 49.308 7.54202 49.07 7.92768C49.0208 8.00973 48.9223 8.09999 48.9716 8.18204C49.0208 8.2723 49.1521 8.23128 49.2424 8.23128C49.8249 8.23128 50.3993 8.22307 50.9819 8.19025C51.3265 8.17384 51.3265 8.14102 51.2363 7.8128C51.0476 7.13175 51.1706 6.43429 51.1542 5.73683C51.1542 5.46605 51.2199 5.21168 51.3265 4.96552C51.6301 4.25165 52.262 4.09575 52.9348 4.0219C53.4764 3.95625 54.0097 3.99728 54.5349 4.14498C55.3308 4.37473 55.7903 4.97373 55.8067 5.86812C55.8231 6.56558 55.897 7.27945 55.6262 7.9605C55.5605 8.13281 55.7 8.1082 55.7657 8.13281C56.1842 8.25589 56.6273 8.22307 57.0539 8.23128C58.7278 8.24769 60.4018 8.23948 62.0757 8.23128C62.3793 8.23128 62.6747 8.20666 62.9536 8.05896C63.2901 7.87844 63.4624 7.57484 63.5034 7.22201C63.5855 6.49173 63.1752 5.98299 62.4613 5.82709C61.5669 5.63016 60.6807 5.42502 59.7946 5.22809C59.212 5.09681 58.6294 4.95731 58.0386 4.83423C57.8417 4.79321 57.8581 4.64551 57.8991 4.53884C57.9729 4.36652 57.9483 4.19421 57.9647 3.99728L57.9401 4.00549ZM55.0272 6.47532C55.0272 6.26198 55.0436 6.04043 55.0272 5.82709C54.9862 5.22809 54.699 4.89167 54.1164 4.76038C53.6651 4.65371 53.1974 4.65371 52.7461 4.7768C52.2455 4.90808 51.9584 5.2363 51.9009 5.75324C51.8517 6.22916 51.8517 6.71327 51.9009 7.18919C51.9502 7.68972 52.2291 8.01794 52.7215 8.14922C53.1974 8.27231 53.6733 8.2723 54.1492 8.16563C54.6826 8.04255 54.9862 7.68151 55.0272 7.13175C55.0436 6.91841 55.0272 6.69686 55.0272 6.48352V6.47532ZM45.4925 5.40041C45.5089 5.58093 45.4597 5.71221 45.6238 5.81068C46.2474 6.17992 46.6905 6.72968 47.0597 7.33689C47.2156 7.59946 47.3715 7.86203 47.5849 8.08358C47.6997 8.20666 47.79 8.23128 47.9049 8.06717C48.2413 7.58305 48.5859 7.10714 48.9552 6.64763C49.1029 6.45891 49.1357 6.27839 49.0536 6.07325C48.9059 5.6876 48.709 5.32656 48.4464 5.00655C48.2413 4.75218 47.9705 4.67833 47.6587 4.74397C47.0351 4.87526 46.4115 5.01475 45.7797 5.12142C45.5581 5.16245 45.4514 5.22809 45.4925 5.40861V5.40041Z" fill="#1D968F"/>
<path id="Vector_3" d="M76.7469 8.72354C76.7469 9.07637 76.7798 9.41279 76.7469 9.74101C76.6649 10.4467 76.2382 10.9226 75.6392 11.2672C75.0156 11.6201 74.3345 11.7595 73.6371 11.7267C72.956 11.6939 72.2914 11.538 71.7991 10.9882C71.5611 10.7175 71.4052 10.4221 71.4134 10.0528C71.4134 9.21586 71.4134 8.37891 71.4134 7.54196C71.4134 7.3122 71.4708 7.21374 71.7006 7.25477C71.7416 7.25477 71.7826 7.25477 71.8155 7.25477C72.0534 7.21374 72.1355 7.29579 72.1273 7.55016C72.1109 8.19839 72.1437 8.84662 72.1191 9.49485C72.0862 10.3318 72.2503 10.7092 73.2596 10.9226C73.9571 11.0703 74.6545 11.0128 75.2864 10.6026C75.7787 10.2826 76.0166 9.84768 76.0084 9.26509C76.0084 7.59939 76.0084 5.9419 76.0084 4.2762C76.0084 4.02183 76.0577 3.88234 76.3367 3.93978C76.4023 3.94798 76.4762 3.94798 76.5418 3.93978C76.7223 3.91516 76.7798 3.9808 76.7715 4.16953C76.7633 5.07213 76.7715 5.97472 76.7715 6.88552C76.7715 7.86197 77.469 8.46096 78.4372 8.30506C78.8065 8.24762 79.1675 8.14916 79.4958 7.93582C79.7747 7.7553 79.8896 7.51734 79.8978 7.21374C79.8978 6.41781 79.906 5.62189 79.8978 4.82596C79.8978 4.60442 79.9553 4.53877 80.1768 4.54698C80.6199 4.56339 80.6199 4.54698 80.6199 4.98187C80.6199 5.66292 80.6199 6.33576 80.6199 7.01681C80.6199 7.80453 80.8579 8.11634 81.6292 8.27224C82.1051 8.3707 82.5646 8.3625 83.0159 8.09993C83.4836 7.82915 83.6313 7.43529 83.6395 6.95937C83.6559 6.04857 83.6559 5.12956 83.6395 4.21876C83.6395 3.98901 83.7051 3.93978 83.9185 3.94798C84.4108 3.96439 84.4108 3.94798 84.4108 4.44031C84.4108 5.30188 84.4026 6.17165 84.4026 7.03322C84.4026 7.3122 84.3698 7.58298 84.2795 7.83735C84.2303 7.98505 84.2467 8.08351 84.4026 8.11634C85.0755 8.23942 85.7565 8.35429 86.3719 7.91941C86.7247 7.67324 86.8068 7.29579 86.8068 6.90193C86.8068 5.27726 86.8068 3.66079 86.8068 2.03612C86.8068 1.83919 86.8068 1.64226 86.8068 1.44533C86.8068 1.32225 86.856 1.28122 86.9791 1.27302C87.5453 1.23199 87.5453 1.22378 87.5453 1.78996C87.5453 3.42284 87.5453 5.05571 87.5453 6.68859C87.5453 6.94296 87.5371 7.20553 87.6191 7.44349C87.7997 7.96043 88.1771 8.19019 88.8335 8.2148C90.45 8.27224 92.0583 8.23121 93.6748 8.23942C94.0604 8.23942 94.4379 8.25583 94.8235 8.2066C95.3815 8.14095 95.8 7.7635 95.8574 7.26297C95.9312 6.59013 95.7015 6.17986 95.1107 5.95011C94.3476 5.65471 93.5435 5.55624 92.7557 5.35111C91.968 5.14597 91.1557 4.99007 90.3598 4.81776C90.1957 4.78493 90.2121 4.65365 90.2449 4.56339C90.3105 4.38287 90.3105 4.20235 90.3105 3.99721C91.4347 4.26799 92.5342 4.53057 93.6419 4.79314C94.1589 4.91622 94.684 5.0393 95.1928 5.187C96.522 5.58086 96.7928 6.78706 96.4154 7.82094C96.3415 8.01787 96.3333 8.14095 96.5631 8.16557C97.0718 8.2148 97.5805 8.24762 98.0811 8.14916C98.2452 8.11634 98.3108 8.0671 98.2042 7.903C98.0811 7.69786 98.0893 7.4599 98.0811 7.23015C98.0811 6.63116 98.0483 6.02395 98.1057 5.43316C98.1549 4.94084 98.3929 4.46492 98.8688 4.26799C99.8535 3.84952 100.871 3.85772 101.847 4.30082C102.446 4.57159 102.668 5.11315 102.725 5.72856C102.775 6.33576 102.791 6.94296 102.676 7.55016C102.528 8.31327 102.011 8.75636 101.273 8.87944C100.502 9.01073 99.714 9.06817 98.9755 8.69072C98.8934 8.64969 98.8114 8.65789 98.7211 8.69072C97.7693 9.06817 96.8174 9.07637 95.8656 8.69072C95.7507 8.64148 95.6769 8.6743 95.5948 8.71533C95.283 8.87123 94.963 8.94508 94.6184 8.94508C92.5916 8.94508 90.5649 8.96149 88.5382 8.92867C88.1361 8.92867 87.7094 8.78098 87.3812 8.47738C87.2499 8.35429 87.1268 8.31327 86.9545 8.46096C86.5688 8.78918 86.0929 8.90406 85.6006 8.93688C85.0837 8.9697 84.5503 8.98611 84.0826 8.75636C83.7626 8.60046 83.541 8.70713 83.2538 8.78918C82.3266 9.05996 81.3584 9.10919 80.5625 8.50199C80.2178 8.23942 80.1112 8.32968 79.865 8.53481C79.5286 8.80559 79.1019 8.87123 78.6752 8.95329C78.0188 9.07637 77.4034 8.93688 76.7551 8.71533L76.7469 8.72354ZM101.97 6.50807C101.97 6.30294 101.979 6.0978 101.97 5.89267C101.929 5.22803 101.65 4.87519 101.068 4.74391C100.6 4.63724 100.132 4.63724 99.6647 4.76032C99.1806 4.89161 98.918 5.21162 98.8442 5.69574C98.7703 6.19627 98.7785 6.6968 98.836 7.18912C98.8934 7.68145 99.1642 8.00146 99.6401 8.13275C100.165 8.28044 100.69 8.27224 101.207 8.10813C101.593 7.99325 101.831 7.72248 101.921 7.32041C101.987 7.04963 101.962 6.77065 101.962 6.49987L101.97 6.50807Z" fill="#1D968F"/>
<path id="Vector_4" d="M33.5629 8.95353C32.3567 8.95353 31.1423 8.96174 29.9361 8.95353C29.0663 8.94533 28.5248 8.50224 28.3525 7.65708C28.1884 6.87756 28.1555 6.08984 28.3525 5.31033C28.5576 4.47338 29.2387 3.97284 30.0838 4.0549C30.1905 4.0631 30.2397 4.09593 30.2397 4.2108C30.2397 4.3585 30.2397 4.5062 30.2397 4.6539C30.2397 4.79339 30.1577 4.84262 30.0346 4.84262C29.2879 4.82621 29.0745 5.23648 28.9433 5.78624C28.8202 6.30318 28.8448 6.82833 28.9843 7.35348C29.1238 7.85401 29.452 8.1494 29.9689 8.21505C30.1084 8.23146 30.2397 8.24787 30.3792 8.24787C32.4552 8.24787 34.5312 8.24787 36.6071 8.24787C36.8369 8.24787 36.9025 8.19043 36.9025 7.95247C36.8943 6.74628 36.9025 5.53187 36.8861 4.32568C36.8861 3.98925 37.0748 4.0631 37.2554 4.0549C37.4605 4.03849 37.5672 4.07131 37.5672 4.32568C37.5508 5.77804 37.559 7.2386 37.5672 8.69096C37.5672 8.91251 37.5179 8.96995 37.2964 8.96995C36.0574 8.96174 34.8184 8.96995 33.5793 8.96995L33.5629 8.95353Z" fill="#1D968F"/>
<path id="Vector_5" d="M20.376 7.92771C20.7288 8.18207 21.0816 8.18207 21.4263 8.23951C21.5904 8.26413 21.6232 8.19848 21.5904 8.04258C21.2786 6.59022 20.975 5.13786 20.6714 3.6855C20.5975 3.34088 20.5237 2.99625 20.4498 2.65162C20.4498 2.6188 20.4334 2.55316 20.4498 2.54495C20.655 2.41367 20.8847 2.52033 21.0981 2.47931C21.2211 2.4629 21.2375 2.52854 21.2622 2.627C21.4099 3.33267 21.574 4.03013 21.7217 4.7358C21.9432 5.81071 22.1566 6.88562 22.3781 7.96053C22.4109 8.12464 22.4766 8.16566 22.6325 8.08361C23.1084 7.82104 23.3135 7.41897 23.3135 6.88562C23.3135 5.16248 23.3135 3.44755 23.3135 1.72441C23.3135 1.2567 23.4612 1.15003 23.9289 1.2567C24.0848 1.28952 24.0356 1.39619 24.0356 1.48645C24.0356 2.03622 24.0356 2.58598 24.0356 3.13574C24.0356 4.48964 24.0438 5.85174 24.0356 7.20563C24.0356 7.88668 23.773 8.44465 23.1166 8.74004C22.7884 8.88774 22.4437 8.9698 22.0745 8.96159C21.5822 8.96159 21.0898 8.99441 20.6057 8.80569C20.4416 8.74004 20.3678 8.66619 20.3842 8.49388C20.4006 8.32977 20.3842 8.16566 20.3842 7.92771H20.376Z" fill="#1D968F"/>
<path id="Vector_6" d="M25.5049 5.12955C25.5049 6.30293 25.5049 7.46809 25.5049 8.64147C25.5049 8.88763 25.4721 8.9943 25.1931 8.97789C24.75 8.95328 24.75 8.97789 24.75 8.51018C24.75 6.22087 24.75 3.93156 24.75 1.63404C24.75 1.37968 24.7992 1.24018 25.0782 1.29762C25.1439 1.30583 25.2177 1.30583 25.2834 1.29762C25.4721 1.2648 25.5049 1.36326 25.5049 1.53558C25.5049 2.73357 25.5049 3.93156 25.5049 5.13776V5.12955Z" fill="#1D968F"/>
<path id="Vector_7" d="M68.6651 5.12972C68.6651 6.3195 68.6651 7.50929 68.6651 8.69087C68.6651 8.91242 68.5994 8.96985 68.3861 8.96165C67.9102 8.94524 67.9102 8.96165 67.9102 8.47753C67.9102 6.18001 67.9102 3.88249 67.9102 1.58498C67.9102 1.33061 67.984 1.24855 68.222 1.28958C68.2876 1.29779 68.3615 1.29779 68.4271 1.28958C68.624 1.26496 68.6733 1.33881 68.6733 1.53574C68.6651 2.73373 68.6733 3.93173 68.6733 5.12972H68.6651Z" fill="#1D968F"/>
<path id="Vector_8" d="M41.7268 10.5944C41.6201 10.5944 41.5298 10.5944 41.4396 10.5944C41.3165 10.6026 41.3001 10.5452 41.2919 10.4385C41.2426 9.85594 41.2426 9.85594 41.8498 9.86414C41.9483 9.86414 42.1206 9.78209 42.1452 9.9462C42.1781 10.1431 42.1945 10.3729 42.1206 10.5534C42.0796 10.6683 41.8498 10.578 41.7268 10.5944Z" fill="#1D968F"/>
<path id="Vector_9" d="M92.8716 9.85608C92.9947 9.88069 93.2162 9.78223 93.2655 9.8971C93.3393 10.0776 93.2983 10.2992 93.2983 10.4961C93.2983 10.5371 93.2737 10.5782 93.2244 10.5782C92.9783 10.5782 92.7403 10.5782 92.4942 10.5782C92.4367 10.5782 92.4121 10.5289 92.4121 10.4797C92.4121 10.4222 92.4121 10.3648 92.4121 10.3074C92.4121 10.0065 92.5653 9.85608 92.8716 9.85608Z" fill="#1D968F"/>
<path id="Vector_10" d="M8.14993 9.85604C8.26481 9.88066 8.47815 9.7904 8.51918 9.89707C8.58482 10.0776 8.552 10.2991 8.552 10.5043C8.552 10.5617 8.50277 10.5863 8.44533 10.5863C8.23199 10.5863 8.01044 10.5863 7.7971 10.5863C7.72325 10.5863 7.69043 10.5535 7.69043 10.4797C7.69043 10.4222 7.69043 10.3648 7.69043 10.2991C7.69043 9.99827 7.8436 9.84784 8.14993 9.84784V9.85604Z" fill="#1D968F"/>
<path id="Vector_11" d="M6.82962 9.85608C6.9527 9.88069 7.17425 9.78223 7.22348 9.8971C7.29733 10.0776 7.2563 10.2992 7.2563 10.4961C7.2563 10.5371 7.23169 10.5782 7.18246 10.5782C6.93629 10.5782 6.69833 10.5782 6.45217 10.5782C6.39473 10.5782 6.37012 10.5289 6.37012 10.4797C6.37012 10.4222 6.37012 10.3648 6.37012 10.3074C6.37012 10.0065 6.52329 9.85608 6.82962 9.85608Z" fill="#1D968F"/>
<path id="Vector_12" d="M42.9984 9.8562C43.4168 9.8562 43.5645 10.0613 43.4333 10.4798C43.4086 10.5619 43.3594 10.5865 43.2856 10.5865C43.0886 10.5865 42.8917 10.5865 42.6948 10.5865C42.5881 10.5865 42.5635 10.529 42.5635 10.4388C42.5635 10.3896 42.5635 10.3403 42.5635 10.2911C42.5635 10.0012 42.7057 9.8562 42.9902 9.8562H42.9984Z" fill="#1D968F"/>
<path id="Vector_13" d="M33.9154 2.65164C34.022 2.67626 34.2272 2.57779 34.2764 2.70087C34.3421 2.87319 34.301 3.08653 34.301 3.28346C34.301 3.3491 34.2518 3.36551 34.2026 3.36551C33.9892 3.36551 33.7677 3.36551 33.5543 3.36551C33.4641 3.36551 33.4395 3.30807 33.4395 3.23422C33.4395 3.1932 33.4395 3.15217 33.4395 3.11935C33.4395 2.80754 33.6008 2.65164 33.9236 2.65164H33.9154Z" fill="#1D968F"/>
<path id="Vector_14" d="M32.4297 3.37378C32.3148 3.34096 32.1097 3.45584 32.0522 3.30814C31.9866 3.13583 32.0276 2.92249 32.0358 2.72556C32.0358 2.65171 32.1097 2.65171 32.1671 2.65171C32.3148 2.65171 32.4625 2.66812 32.6102 2.65171C32.8564 2.61889 32.8974 2.72556 32.8892 2.9471C32.8728 3.37378 32.8892 3.37378 32.4297 3.37378Z" fill="#1D968F"/>
<path id="Vector_15" d="M3.5634 2.35636C3.67828 2.35636 3.76033 2.35636 3.85059 2.35636C3.98188 2.34816 4.0065 2.4056 4.0147 2.52868C4.04752 3.07844 4.04752 3.07844 3.48955 3.07023C3.38288 3.07023 3.21057 3.13588 3.16954 3.0128C3.1121 2.82407 3.09569 2.58611 3.16954 2.4138C3.23518 2.27431 3.44032 2.38918 3.5552 2.35636H3.5634Z" fill="#1D968F"/>
<path id="Vector_16" d="M2.32455 2.35638C2.43122 2.38099 2.64456 2.29073 2.68559 2.40561C2.75123 2.58613 2.7102 2.80767 2.7102 3.01281C2.7102 3.08666 2.62815 3.07845 2.57071 3.07845C2.42301 3.07845 2.27532 3.06204 2.12762 3.07845C1.89787 3.10307 1.84863 3.02101 1.84863 2.79947C1.86504 2.35638 1.84863 2.35638 2.32455 2.35638Z" fill="#1D968F"/>
<path id="Vector_17" d="M60.5337 10.5863C60.4435 10.5863 60.3532 10.5863 60.2711 10.5863C60.1399 10.5945 60.0906 10.5289 60.107 10.414C60.1316 10.2335 60.0086 9.96268 60.1645 9.89703C60.3614 9.80677 60.624 9.87242 60.8619 9.87242C60.9358 9.87242 60.9522 9.92986 60.9522 9.9955C60.9522 10.0529 60.9522 10.1104 60.9522 10.1678C60.9522 10.6519 61.0096 10.5781 60.5255 10.5863H60.5337Z" fill="#1D968F"/>
<path id="Vector_18" d="M20.8115 0.821899C20.8772 0.83831 21.0003 0.789077 21.0003 0.928569C21.0003 1.01883 20.9346 1.05986 20.8362 1.05986C20.6885 1.05986 20.4997 1.01062 20.4833 1.24858C20.4669 1.47013 20.5982 1.60141 20.7787 1.71629C20.8854 1.78193 21.1316 1.72449 21.1069 1.87219C21.0823 2.0363 20.8608 1.91322 20.7295 1.94604C20.6556 1.96245 20.5736 1.95425 20.4997 1.98707C20.4341 2.01169 20.3274 2.05271 20.2864 1.97066C20.229 1.85578 20.352 1.86399 20.4095 1.82296C20.549 1.7327 20.4013 1.67526 20.3684 1.61782C20.1961 1.2732 20.4341 0.838309 20.8033 0.838309L20.8115 0.821899Z" fill="#1D968F"/>
</g>
</svg>
