<svg width="20" height="21" viewBox="0 0 20 21" fill="none" xmlns="http://www.w3.org/2000/svg">
<g id="Frame" clip-path="url(#clip0_69_118)">
<g id="Group">
<path id="Vector" d="M20 9.87248C19.8794 7.9225 19.1909 6.05041 18.0193 4.487C16.8477 2.9236 15.2441 1.73723 13.4064 1.07414C11.5687 0.411063 9.57705 0.300259 7.6771 0.755394C5.77715 1.21053 4.05192 2.21171 2.71409 3.6355C1.37626 5.05929 0.484331 6.84345 0.148249 8.76803C-0.187833 10.6926 0.0466277 12.6735 0.822727 14.4664C1.59883 16.2593 2.88264 17.786 4.51589 18.8581C6.14914 19.9302 8.06043 20.501 10.0141 20.5H15.8333C16.938 20.4989 17.9972 20.0595 18.7784 19.2784C19.5595 18.4972 19.9989 17.438 20 16.3333V9.87248ZM18.3333 16.3333C18.3333 16.9964 18.0699 17.6322 17.6011 18.1011C17.1322 18.5699 16.4963 18.8333 15.8333 18.8333H10.0141C8.83824 18.8328 7.67567 18.5844 6.60221 18.1044C5.52876 17.6244 4.56853 16.9235 3.78413 16.0475C2.99594 15.1719 2.40407 14.1379 2.04821 13.0148C1.69235 11.8917 1.58071 10.7056 1.7208 9.53581C1.94199 7.69076 2.77095 5.9718 4.077 4.64992C5.38304 3.32803 7.09188 2.47841 8.93413 2.23498C9.29349 2.18994 9.65529 2.16712 10.0175 2.16665C11.9595 2.16135 13.8415 2.8399 15.3333 4.08331C16.2046 4.80743 16.9197 5.70094 17.4354 6.70967C17.9511 7.7184 18.2566 8.82135 18.3333 9.95165V16.3333Z" fill="#1D968F"/>
<path id="Vector_2" d="M6.66659 7.99992H9.99992C10.2209 7.99992 10.4329 7.91212 10.5892 7.75584C10.7455 7.59956 10.8333 7.3876 10.8333 7.16659C10.8333 6.94557 10.7455 6.73361 10.5892 6.57733C10.4329 6.42105 10.2209 6.33325 9.99992 6.33325H6.66659C6.44557 6.33325 6.23361 6.42105 6.07733 6.57733C5.92105 6.73361 5.83325 6.94557 5.83325 7.16659C5.83325 7.3876 5.92105 7.59956 6.07733 7.75584C6.23361 7.91212 6.44557 7.99992 6.66659 7.99992ZM13.3333 9.66659H6.66659C6.44557 9.66659 6.23361 9.75438 6.07733 9.91066C5.92105 10.0669 5.83325 10.2789 5.83325 10.4999C5.83325 10.7209 5.92105 10.9329 6.07733 11.0892C6.23361 11.2455 6.44557 11.3333 6.66659 11.3333H13.3333C13.5543 11.3333 13.7662 11.2455 13.9225 11.0892C14.0788 10.9329 14.1666 10.7209 14.1666 10.4999C14.1666 10.2789 14.0788 10.0669 13.9225 9.91066C13.7662 9.75438 13.5543 9.66659 13.3333 9.66659ZM13.3333 12.9999H6.66659C6.44557 12.9999 6.23361 13.0877 6.07733 13.244C5.92105 13.4003 5.83325 13.6122 5.83325 13.8333C5.83325 14.0543 5.92105 14.2662 6.07733 14.4225C6.23361 14.5788 6.44557 14.6666 6.66659 14.6666H13.3333C13.5543 14.6666 13.7662 14.5788 13.9225 14.4225C14.0788 14.2662 14.1666 14.0543 14.1666 13.8333C14.1666 13.6122 14.0788 13.4003 13.9225 13.244C13.7662 13.0877 13.5543 12.9999 13.3333 12.9999Z" fill="#1D968F"/>
</g>
</g>
<defs>
<clipPath id="clip0_69_118">
<rect width="20" height="20" fill="white" transform="translate(0 0.5)"/>
</clipPath>
</defs>
</svg>
