<svg width="12" height="12" viewBox="0 0 12 12" fill="none" xmlns="http://www.w3.org/2000/svg">
<g id="pencil-alt 1" clip-path="url(#clip0_343_5984)">
<path id="Vector" d="M11.67 3.33103L10.5895 4.4115C10.4793 4.52166 10.3012 4.52166 10.191 4.4115L7.58948 1.80994C7.47933 1.69978 7.47933 1.52166 7.58948 1.4115L8.66995 0.33103C9.10823 -0.107251 9.82073 -0.107251 10.2614 0.33103L11.67 1.73962C12.1106 2.17791 12.1106 2.89041 11.67 3.33103ZM6.66136 2.33962L0.506671 8.49431L0.00979621 11.342C-0.0581725 11.7263 0.276984 12.0592 0.661359 11.9935L3.50901 11.4943L9.6637 5.33962C9.77386 5.22947 9.77386 5.05134 9.6637 4.94119L7.06214 2.33962C6.94964 2.22947 6.77152 2.22947 6.66136 2.33962ZM2.90901 7.96697C2.78011 7.83806 2.78011 7.63181 2.90901 7.50291L6.51839 3.89353C6.6473 3.76462 6.85355 3.76462 6.98245 3.89353C7.11136 4.02244 7.11136 4.22869 6.98245 4.35759L3.37308 7.96697C3.24417 8.09587 3.03792 8.09587 2.90901 7.96697ZM2.06292 9.93806H3.18792V10.7888L1.6762 11.0537L0.947296 10.3248L1.21214 8.81306H2.06292V9.93806Z" fill="#1D968F"/>
</g>
<defs>
<clipPath id="clip0_343_5984">
<rect width="12" height="12" fill="white"/>
</clipPath>
</defs>
</svg>
