<svg width="20" height="20" viewBox="0 0 20 20" fill="none" xmlns="http://www.w3.org/2000/svg">
<g id="Frame" clip-path="url(#clip0_69_115)">
<g id="Group">
<path id="Vector" d="M12.4999 20H7.49992C5.20242 20 3.33325 18.1308 3.33325 15.8333V4.16667C3.33325 1.86917 5.20242 0 7.49992 0H12.4999C14.7974 0 16.6666 1.86917 16.6666 4.16667V15.8333C16.6666 18.1308 14.7974 20 12.4999 20ZM7.49992 1.66667C6.12159 1.66667 4.99992 2.78833 4.99992 4.16667V15.8333C4.99992 17.2117 6.12159 18.3333 7.49992 18.3333H12.4999C13.8783 18.3333 14.9999 17.2117 14.9999 15.8333V4.16667C14.9999 2.78833 13.8783 1.66667 12.4999 1.66667H7.49992ZM11.6666 15.8333C11.6666 15.6123 11.5788 15.4004 11.4225 15.2441C11.2662 15.0878 11.0543 15 10.8333 15H9.16658C8.94557 15 8.73361 15.0878 8.57733 15.2441C8.42105 15.4004 8.33325 15.6123 8.33325 15.8333C8.33325 16.0543 8.42105 16.2663 8.57733 16.4226C8.73361 16.5789 8.94557 16.6667 9.16658 16.6667H10.8333C11.0543 16.6667 11.2662 16.5789 11.4225 16.4226C11.5788 16.2663 11.6666 16.0543 11.6666 15.8333Z" fill="#1D968F"/>
</g>
</g>
<defs>
<clipPath id="clip0_69_115">
<rect width="20" height="20" fill="white"/>
</clipPath>
</defs>
</svg>
