<svg width="24" height="24" viewBox="0 0 24 24" fill="none" xmlns="http://www.w3.org/2000/svg">
<g id="Frame" clip-path="url(#clip0_529_4457)">
<path id="Vector" d="M21.8621 6H18.7889C18.6883 6 18.5918 6.03893 18.5207 6.10824C18.4496 6.17754 18.4096 6.27154 18.4096 6.36955C18.4096 6.46756 18.4496 6.56156 18.5207 6.63086C18.5918 6.70017 18.6883 6.7391 18.7889 6.7391H21.8621C22.0712 6.7391 22.2414 6.90493 22.2414 7.10865V8.9565H18.9976C18.897 8.9565 18.8006 8.99543 18.7294 9.06473C18.6583 9.13404 18.6183 9.22804 18.6183 9.32605C18.6183 9.42406 18.6583 9.51805 18.7294 9.58736C18.8006 9.65666 18.897 9.6956 18.9976 9.6956H22.2414V21.8913C22.2414 22.095 22.0712 22.2608 21.8621 22.2608H2.13793C1.92884 22.2608 1.75864 22.095 1.75864 21.8913V9.6956H5.00237C5.10297 9.6956 5.19944 9.65666 5.27057 9.58736C5.3417 9.51805 5.38167 9.42406 5.38167 9.32605C5.38167 9.22804 5.3417 9.13404 5.27057 9.06473C5.19944 8.99543 5.10297 8.9565 5.00237 8.9565H1.75859V7.10865C1.75859 6.90493 1.92879 6.7391 2.13789 6.7391H5.21111C5.3117 6.7391 5.40818 6.70017 5.47931 6.63086C5.55044 6.56156 5.5904 6.46756 5.5904 6.36955C5.5904 6.27154 5.55044 6.17754 5.47931 6.10824C5.40818 6.03893 5.3117 6 5.21111 6H2.13793C1.51042 6 1 6.49731 1 7.1087V21.8913C1 22.5027 1.51042 23 2.13793 23H21.8621C22.4896 23 23 22.5027 23 21.8913V7.1087C23 6.49731 22.4896 6 21.8621 6Z" fill="#777777" stroke="#777777" stroke-width="0.5"/>
<path id="Vector_2" d="M3.10876 7.55327C3.04118 7.62138 3 7.71102 3 7.80784C3 7.90466 3.04118 7.99434 3.10876 8.06241C3.18 8.12683 3.27373 8.16642 3.37498 8.16642C3.47241 8.16642 3.57001 8.12683 3.6412 8.06241C3.70857 7.99429 3.74997 7.90096 3.74997 7.80784C3.74997 7.71451 3.70857 7.62134 3.6412 7.55327C3.4986 7.42056 3.24737 7.42056 3.10876 7.55327ZM4.60874 7.55327C4.54116 7.62138 4.49998 7.71455 4.49998 7.80784C4.49998 7.901 4.5412 7.99434 4.60874 8.06241C4.67998 8.12683 4.77741 8.16642 4.87496 8.16642C4.97239 8.16642 5.06999 8.12683 5.14118 8.06241C5.20855 7.99429 5.24995 7.90096 5.24995 7.80784C5.24995 7.71451 5.20855 7.62134 5.14118 7.55327C4.99858 7.42056 4.74739 7.42056 4.60874 7.55327ZM6.10877 7.55327C6.04118 7.62138 6.00001 7.71455 6.00001 7.80784C6.00001 7.90466 6.04118 7.99434 6.10877 8.05876C6.18 8.12688 6.27374 8.16646 6.37499 8.16646C6.47624 8.16646 6.57002 8.12688 6.64121 8.06245C6.70858 7.99434 6.74997 7.9047 6.74997 7.80788C6.74997 7.71455 6.70858 7.62138 6.64121 7.55331C6.50243 7.42056 6.24737 7.42056 6.10877 7.55327ZM6.82178 13.3344C6.78448 13.3834 6.76078 13.4407 6.7529 13.5009C6.74503 13.5611 6.75323 13.6223 6.77674 13.6786L7.52675 15.4716C7.54758 15.5213 7.57977 15.5659 7.62096 15.6021C7.66215 15.6383 7.7113 15.6653 7.7648 15.681C7.81828 15.6967 7.87476 15.7008 7.93011 15.693C7.98547 15.6852 8.03828 15.6656 8.08468 15.6357L10.1785 14.2858C10.282 14.5653 10.3929 14.8422 10.511 15.1163C10.5112 15.1168 10.5117 15.1172 10.5119 15.1177C10.5308 15.1611 10.5585 15.2005 10.5933 15.2337C10.6095 15.2491 10.6304 15.2575 10.6491 15.2697C10.6703 15.2837 10.6891 15.3008 10.7132 15.3104C10.7586 15.3285 10.8072 15.3379 10.8564 15.3381C10.8569 15.3381 10.8573 15.3383 10.8578 15.3383H11.0182L10.5396 16.2537C10.511 16.3084 10.4975 16.3691 10.5004 16.4302C10.5033 16.4913 10.5224 16.5506 10.5561 16.6026C10.5897 16.6546 10.6366 16.6975 10.6924 16.7273C10.7482 16.7571 10.8111 16.7727 10.875 16.7727H13.875C13.9389 16.7727 14.0018 16.7571 14.0576 16.7273C14.1134 16.6975 14.1604 16.6546 14.194 16.6026C14.2276 16.5506 14.2467 16.4913 14.2496 16.4302C14.2525 16.3691 14.239 16.3084 14.2105 16.2537L13.7318 15.3383H13.7812C13.8006 15.3383 13.8172 15.3305 13.8358 15.3278C13.8546 15.3306 13.8733 15.3385 13.892 15.3385C13.9664 15.3385 14.039 15.3174 14.1008 15.2778C14.1626 15.2382 14.2107 15.182 14.239 15.1163C14.3571 14.8422 14.468 14.5652 14.5716 14.2858L16.6653 15.6356C16.7117 15.6655 16.7645 15.6851 16.8199 15.693C16.8752 15.7008 16.9317 15.6967 16.9852 15.681C17.0387 15.6652 17.0878 15.6383 17.129 15.602C17.1702 15.5658 17.2024 15.5212 17.2233 15.4716L17.9733 13.6786C17.9968 13.6222 18.005 13.5611 17.9971 13.5009C17.9892 13.4407 17.9655 13.3834 17.9282 13.3343L15.6303 10.3135C15.8231 8.86887 15.811 7.21246 15.2853 5.51218C14.7955 3.92932 13.9101 2.44928 12.6538 1.11346C12.5114 0.96218 12.2385 0.96218 12.0961 1.11346C10.8394 2.44978 9.9541 3.92986 9.46469 5.51218C8.93888 7.21246 8.92689 8.86891 9.11963 10.3135L6.82178 13.3344ZM11.4818 16.0555L11.8568 15.3383H12.8931L13.2681 16.0555H11.4818ZM15.4628 11.3125L17.1998 13.5961L16.6994 14.7926L14.8251 13.5843C15.0375 12.9747 15.2797 12.2011 15.4628 11.3125ZM10.1839 5.71566C10.6045 4.35568 11.3408 3.07348 12.375 1.89928C13.4088 3.0731 14.145 4.35534 14.566 5.71566C15.0769 7.36757 15.0769 8.96102 14.8764 10.3506C14.8752 10.3571 14.8745 10.3634 14.8736 10.37C14.6476 11.9195 14.1728 13.2133 13.8683 14.0363C13.7957 14.2326 13.7192 14.4276 13.6389 14.6211H11.111C11.0306 14.4276 10.9541 14.2325 10.8816 14.0361C10.5772 13.2133 10.1023 11.9195 9.87628 10.37C9.8754 10.3634 9.87478 10.3572 9.87355 10.3506C9.67303 8.96103 9.67303 7.36757 10.1839 5.71566ZM9.92484 13.5843L8.05057 14.7926L7.55013 13.5961L9.28715 11.3125C9.47022 12.201 9.71254 12.9747 9.92484 13.5843ZM12 18.5656V19.6414C12 19.7365 12.0395 19.8277 12.1098 19.895C12.1801 19.9622 12.2755 20 12.375 20C12.4744 20 12.5698 19.9622 12.6401 19.895C12.7104 19.8277 12.7499 19.7365 12.7499 19.6414V18.5656C12.7499 18.4705 12.7104 18.3793 12.6401 18.3121C12.5698 18.2448 12.4744 18.2071 12.375 18.2071C12.2755 18.2071 12.1801 18.2448 12.1098 18.3121C12.0395 18.3793 12 18.4705 12 18.5656ZM10.5 17.8485V18.9243C10.5 19.0194 10.5395 19.1106 10.6098 19.1778C10.6801 19.2451 10.7755 19.2828 10.875 19.2828C10.9744 19.2828 11.0698 19.2451 11.1401 19.1778C11.2105 19.1106 11.25 19.0194 11.25 18.9243V17.8485C11.25 17.7534 11.2105 17.6622 11.1401 17.5949C11.0698 17.5277 10.9744 17.4899 10.875 17.4899C10.7755 17.4899 10.6801 17.5277 10.6098 17.5949C10.5395 17.6622 10.5 17.7534 10.5 17.8485ZM13.875 17.4899C13.7755 17.4899 13.6801 17.5276 13.6098 17.5949C13.5395 17.6621 13.5 17.7533 13.5 17.8484V18.9242C13.5 19.0193 13.5395 19.1105 13.6098 19.1778C13.6801 19.245 13.7755 19.2828 13.875 19.2828C13.9744 19.2828 14.0698 19.245 14.1401 19.1778C14.2105 19.1105 14.25 19.0193 14.25 18.9242V17.8484C14.25 17.7533 14.2104 17.6621 14.1401 17.5949C14.0698 17.5277 13.9744 17.4899 13.875 17.4899Z" fill="#777777" stroke="#777777" stroke-width="0.5"/>
<path id="Vector_3" d="M12 9C13.1027 9 14 8.32704 14 7.5C14 6.67296 13.1027 6 12 6C10.8973 6 10 6.67296 10 7.5C10 8.32704 10.8973 9 12 9ZM12 6.60001C12.6617 6.60001 13.2 7.0037 13.2 7.5C13.2 7.9963 12.6617 8.39999 12 8.39999C11.3383 8.39999 10.8 7.9963 10.8 7.5C10.8 7.0037 11.3383 6.60001 12 6.60001Z" fill="#777777" stroke="#777777" stroke-width="0.5"/>
</g>
<defs>
<clipPath id="clip0_529_4457">
<rect width="24" height="24" fill="white"/>
</clipPath>
</defs>
</svg>
