<svg width="20" height="13" viewBox="0 0 20 13" fill="none" xmlns="http://www.w3.org/2000/svg">
<g id="Encapsulated Group" clip-path="url(#clip0_77_233)">
<g id="Group">
<path id="Vector" d="M10 0.539062C6.17879 0.539062 2.71351 2.62968 0.15649 6.02541C-0.0521632 6.30361 -0.0521632 6.69228 0.15649 6.97048C2.71351 10.3703 6.17879 12.4609 10 12.4609C13.8212 12.4609 17.2865 10.3703 19.8435 6.97457C20.0522 6.69637 20.0522 6.3077 19.8435 6.0295C17.2865 2.62968 13.8212 0.539062 10 0.539062ZM10.2741 10.6976C7.73755 10.8572 5.64284 8.76653 5.80239 6.22588C5.93331 4.13117 7.63118 2.4333 9.72589 2.30238C12.2625 2.14283 14.3572 4.23345 14.1976 6.7741C14.0626 8.86472 12.3647 10.5626 10.2741 10.6976ZM10.1473 8.75835C8.78081 8.84427 7.65163 7.71918 7.74164 6.35271C7.81119 5.22353 8.72763 4.31118 9.85681 4.23754C11.2233 4.15162 12.3525 5.27671 12.2625 6.64318C12.1888 7.77646 11.2724 8.6888 10.1473 8.75835Z" fill="#AAAAAA"/>
</g>
</g>
<defs>
<clipPath id="clip0_77_233">
<rect width="20" height="11.9219" fill="white" transform="translate(0 0.539062)"/>
</clipPath>
</defs>
</svg>
