<svg width="21" height="20" viewBox="0 0 21 20" fill="none" xmlns="http://www.w3.org/2000/svg">
<g id="Layer_1" clip-path="url(#clip0_69_122)">
<path id="Vector" d="M14.6667 5.83333C14.6667 6.29417 14.2933 6.66667 13.8333 6.66667H11.3333V12.5C11.3333 12.9608 10.96 13.3333 10.5 13.3333C10.04 13.3333 9.66667 12.9608 9.66667 12.5V6.66667H7.16667C6.70667 6.66667 6.33333 6.29417 6.33333 5.83333C6.33333 5.3725 6.70667 5 7.16667 5H13.8333C14.2933 5 14.6667 5.3725 14.6667 5.83333ZM20.5 3.33333V13.3333C20.5 15.1717 19.005 16.6667 17.1667 16.6667H14.79L11.5842 19.3167C11.2825 19.585 10.8967 19.7208 10.5075 19.7208C10.1108 19.7208 9.71083 19.58 9.3925 19.2967L6.26917 16.6667H3.83333C1.995 16.6667 0.5 15.1717 0.5 13.3333V3.33333C0.5 1.495 1.995 0 3.83333 0H17.1667C19.005 0 20.5 1.495 20.5 3.33333ZM18.8333 3.33333C18.8333 2.41417 18.0858 1.66667 17.1667 1.66667H3.83333C2.91417 1.66667 2.16667 2.41417 2.16667 3.33333V13.3333C2.16667 14.2525 2.91417 15 3.83333 15H6.57417C6.77083 15 6.96083 15.0692 7.11083 15.1958L10.4833 18.0367L13.96 15.1908C14.1092 15.0675 14.2975 15 14.4908 15H17.1667C18.0858 15 18.8333 14.2525 18.8333 13.3333V3.33333Z" fill="#1D968F"/>
</g>
<defs>
<clipPath id="clip0_69_122">
<rect width="20" height="20" fill="white" transform="translate(0.5)"/>
</clipPath>
</defs>
</svg>
