<svg width="20" height="21" viewBox="0 0 20 21" fill="none" xmlns="http://www.w3.org/2000/svg">
<g id="Layer_1" clip-path="url(#clip0_774_712)">
<path id="Vector" d="M18.475 2.01702L17.6 1.25869C16.5917 0.250358 14.9584 0.250358 13.95 1.25869C13.925 1.28369 12.3834 3.29202 12.3834 3.29202C11.4334 4.29202 11.4334 5.86702 12.3834 6.85869L13.35 8.07536C12.1334 10.8337 10.2417 12.7337 7.57503 13.867L6.35837 12.892C5.3667 11.9337 3.78337 11.9337 2.7917 12.892C2.7917 12.892 0.783367 14.4337 0.758367 14.4587C-0.249966 15.467 -0.249966 17.1004 0.7167 18.067L1.55003 19.0254C2.50837 19.9837 3.80003 20.5087 5.20003 20.5087C11.5667 20.5087 20 12.067 20 5.70869C20 4.31702 19.475 3.01702 18.475 2.02536V2.01702ZM5.20003 18.8337C4.25003 18.8337 3.37503 18.4837 2.77503 17.8754L1.9417 16.917C1.60003 16.5754 1.58337 16.017 1.90837 15.6587C1.90837 15.6587 3.90003 14.1254 3.92503 14.1004C4.2667 13.7587 4.8667 13.7587 5.2167 14.1004C5.2417 14.1254 6.9167 15.467 6.9167 15.467C7.15003 15.6504 7.45837 15.7004 7.73337 15.592C11.1834 14.2754 13.6584 11.8087 15.0834 8.25036C15.1917 7.97536 15.15 7.65869 14.9584 7.41702C14.9584 7.41702 13.6167 5.73369 13.6 5.71702C13.2417 5.35869 13.2417 4.78369 13.6 4.42536C13.625 4.40036 15.1584 2.40869 15.1584 2.40869C15.5167 2.08369 16.075 2.09202 16.4584 2.47536L17.3334 3.23369C17.975 3.87536 18.3334 4.75036 18.3334 5.70036C18.3334 11.5004 10.1917 18.8337 5.20003 18.8337Z" fill="#0D0D0D"/>
</g>
<defs>
<clipPath id="clip0_774_712">
<rect width="20" height="20" fill="white" transform="translate(0 0.5)"/>
</clipPath>
</defs>
</svg>
