<svg width="40" height="40" viewBox="0 0 40 40" fill="none" xmlns="http://www.w3.org/2000/svg">
<g id="waving-hand-svgrepo-com 1" clip-path="url(#clip0_69_961)">
<path id="Vector" d="M14.8029 32.8569C13.8703 31.5782 5.71828 17.8237 5.62645 17.6726C5.27005 17.0516 5.09954 16.4616 5.14082 15.9742C5.18398 15.4679 5.44609 15.0856 5.94437 14.7996C6.40816 14.5334 6.90685 14.4612 7.38646 14.591C7.97165 14.7494 8.49681 15.1894 8.86119 15.8287L12.5728 22.0068C12.6374 22.1149 12.7406 22.1881 12.8523 22.2184C12.941 22.2426 13.035 22.2401 13.1224 22.2111C13.2097 22.182 13.2865 22.1279 13.3432 22.0553C13.3998 21.9828 13.4338 21.8951 13.4407 21.8034C13.4477 21.7116 13.4274 21.6198 13.3824 21.5395L7.61248 11.1007C7.02729 10.0811 6.98254 8.75137 8.19374 8.05617C8.65753 7.78997 9.15622 7.71776 9.63583 7.84758C10.221 8.00597 10.7462 8.44597 11.1106 9.08525L17.1412 19.2904C17.2058 19.3985 17.3082 19.4748 17.4228 19.5058C17.5375 19.5368 17.6674 19.5234 17.7785 19.4596C18.0008 19.332 18.0806 19.0493 17.9538 18.824L10.8444 6.07361C10.5122 5.49483 10.3855 4.87456 10.481 4.3306C10.5819 3.77841 10.9074 3.32911 11.4249 3.03211C11.8887 2.76592 12.3873 2.6937 12.867 2.82352C13.4522 2.98192 13.9773 3.42191 14.3425 4.05818L21.7296 16.56C21.7942 16.6681 21.8966 16.7444 22.0112 16.7754C22.1259 16.8064 22.2557 16.793 22.3669 16.7292C22.5892 16.6016 22.669 16.3189 22.5422 16.0936L17.2817 6.63111C16.9473 6.04851 16.8198 5.43125 16.9183 4.8881C17.0192 4.33591 17.3447 3.88662 17.8622 3.58962C18.326 3.32342 18.8247 3.25121 19.3043 3.38103C19.8895 3.53942 20.4146 3.97941 20.779 4.6187C22.7413 7.96641 27.8608 16.7173 28.0275 17.0344C28.756 17.8953 29.1901 17.0092 29.3995 16.4151C29.6418 15.7231 29.5005 13.0399 30.5712 10.9502C32.1592 8.217 34.306 9.31607 34.3507 9.35408C35.4411 10.2773 34.966 11.0876 34.0466 12.7261L33.9075 13.0608C32.8208 15.2336 34.1686 22.9086 34.2659 23.482C34.7764 26.5598 34.7151 32.5034 28.6476 35.9859C21.9974 39.8029 16.2439 35.3675 14.8029 32.8569Z" fill="url(#paint0_radial_69_961)"/>
<path id="Vector_2" d="M20.7226 37.6123C17.5131 36.7436 15.1988 34.4693 14.4101 33.113C13.6558 32.0606 9.14146 24.5063 5.47149 18.3298C5.32246 18.079 5.23502 17.9355 5.22704 17.9172C4.81564 17.2004 4.62495 16.5175 4.67564 15.9355C4.73165 15.2741 5.08204 14.757 5.71145 14.3932C6.28639 14.0632 6.90592 13.9751 7.50921 14.1384C8.21808 14.3303 8.84179 14.8488 9.26776 15.5954L12.975 21.7658L7.20207 11.3261C6.52888 10.1533 6.4783 8.49818 7.96082 7.6498C8.53576 7.31981 9.15529 7.23174 9.75858 7.39503C10.4675 7.5869 11.0912 8.10537 11.5171 8.85198L17.5434 19.0494L10.4362 6.3029C10.0534 5.63597 9.90457 4.9061 10.0203 4.2511C10.1476 3.55387 10.5519 2.99314 11.192 2.62575C11.7669 2.29575 12.3864 2.20768 12.9897 2.37098C13.6956 2.56203 14.3201 3.07748 14.7491 3.8249L22.134 16.3229L16.8735 6.8604C16.4885 6.18964 16.3397 5.45977 16.4585 4.80558C16.5849 4.11137 16.9892 3.55065 17.6293 3.18325C18.2042 2.85325 18.8237 2.76519 19.427 2.92848C20.1359 3.12035 20.7596 3.63882 21.1856 4.38542L22.7832 7.10673C25.6306 11.9566 28.0089 16.0159 28.2594 16.4657C28.3916 16.6472 28.5979 16.7581 28.7037 16.7381C28.7722 16.7243 28.8761 16.6035 28.9432 16.3076C29.0639 15.7899 29.1638 15.1339 29.2705 14.4408C29.4854 13.0486 29.7074 11.6065 30.1533 10.7365C31.0152 9.25075 32.0405 8.79984 32.7471 8.67708C33.7176 8.51242 34.5156 8.87734 34.6551 8.99602C36.0244 10.1566 35.3806 11.3032 34.4901 12.8946L34.4697 12.9344L34.3259 13.2742C33.5941 14.7337 34.0496 19.438 34.719 23.352L34.73 23.4068C35.1701 26.0511 35.4759 32.612 28.8832 36.396C25.853 38.1301 23.0513 38.2427 20.7226 37.6123ZM7.26427 15.0434C6.90833 14.947 6.53048 15.0034 6.17785 15.2058C5.81372 15.4148 5.63906 15.6654 5.60958 16.0135C5.57715 16.3965 5.72804 16.9035 6.03302 17.4393C6.03522 17.4431 6.12404 17.5934 6.27829 17.8488C11.487 26.6174 14.6492 31.8472 15.1823 32.5807L15.2095 32.6236C16.4239 34.7394 21.8105 39.3701 28.4147 35.5796C34.4975 32.0882 34.2096 26.0113 33.8023 23.5571L33.7934 23.5062C33.3616 20.9871 32.4724 14.919 33.4779 12.8667L33.6697 12.433C34.634 10.7126 34.7656 10.3339 34.0812 9.7407C33.8604 9.6356 32.25 8.9828 30.9709 11.1845C30.6061 11.8983 30.3852 13.3245 30.1903 14.5829C30.0817 15.2949 29.977 15.9691 29.8473 16.52C29.6447 17.3878 29.1485 17.6064 28.8685 17.6601C28.2986 17.7681 27.7547 17.3975 27.4656 16.9825L27.4362 16.9357C27.306 16.6868 24.091 11.2097 21.9643 7.58438L20.3653 4.85622C19.825 3.9103 18.9022 3.5278 18.0858 3.9964C17.6872 4.2252 17.4458 4.55483 17.3687 4.97103C17.2898 5.40615 17.3991 5.91162 17.6784 6.3984L22.954 15.8649C23.0737 16.0805 23.1041 16.3345 23.0385 16.5723C22.973 16.81 22.8167 17.0125 22.6034 17.1363C22.1779 17.3805 21.5851 17.2265 21.331 16.8016L13.9387 4.29513C13.3975 3.35223 12.4717 2.96892 11.6583 3.43833C11.2597 3.66713 11.0183 3.99676 10.9413 4.41296C10.8654 4.8489 10.9738 5.35738 11.2518 5.83732L18.3626 18.5945C18.6148 19.0383 18.4566 19.6106 18.012 19.8658C17.5865 20.11 16.9937 19.956 16.7396 19.5312L10.7068 9.3222C10.1672 8.37327 9.24062 7.99297 8.42722 8.46238C7.43449 9.03218 7.58867 10.1131 8.01905 10.8674L13.7934 21.3139C13.9129 21.5286 13.9429 21.7817 13.877 22.0184C13.8111 22.2551 13.6546 22.4563 13.4414 22.5784C13.0121 22.8248 12.4261 22.6694 12.1712 22.2475L8.45958 16.0694C8.1524 15.5298 7.72881 15.1691 7.26427 15.0434Z" fill="#EDA600"/>
<path id="Vector_3" d="M27.3856 16.5469C24.8143 19.4801 23.7474 24.2709 25.205 28.7414C25.3468 29.3301 25.8941 29.2096 25.7927 28.6156C24.5296 21.3812 28.9282 17.6055 28.9282 17.6055L27.3856 16.5469Z" fill="#EDA600"/>
<g id="Group">
<path id="Vector_4" d="M24.3059 2.1028C25.2814 2.11107 26.2469 2.3951 27.1315 2.87085C28.0084 3.35101 28.8175 4.08153 29.3036 5.04839C29.7763 6.00512 29.9417 7.05673 29.8173 8.07847C29.6863 9.08871 29.2907 10.0597 28.6039 10.7673C28.8027 9.81753 28.8725 8.91375 28.8127 8.04613C28.7779 7.6126 28.7141 7.19064 28.6083 6.77999C28.5048 6.37318 28.3642 5.95958 28.1914 5.60525C27.8408 4.87906 27.2742 4.23359 26.5953 3.66781C25.9166 3.08915 25.1425 2.58824 24.3059 2.1028Z" fill="#B0BEC5"/>
<path id="Vector_5" d="M23.7821 5.03014C24.3724 4.84675 25.0208 4.95103 25.5865 5.21745C26.1581 5.48551 26.6504 5.93927 26.9911 6.47499C27.327 7.01593 27.5039 7.63036 27.5544 8.23324C27.5766 8.53387 27.5465 8.83651 27.5158 9.12929C27.4525 9.42295 27.3741 9.71253 27.2505 9.98986C27.1019 9.71332 26.9987 9.44903 26.9028 9.19322C26.7795 8.94295 26.6987 8.69122 26.5919 8.45188C26.3836 7.97785 26.1744 7.54246 25.9305 7.13975C25.6752 6.74364 25.3919 6.37883 25.0415 6.03471C24.6958 5.68537 24.2881 5.36136 23.7821 5.03014Z" fill="#90A4AE"/>
</g>
<g id="Group_2">
<path id="Vector_6" d="M1.36368 19.4747C1.56365 20.4224 1.79805 21.3146 2.12934 22.1359C2.45761 22.9565 2.88906 23.6948 3.47173 24.2572C3.75374 24.531 4.10562 24.7979 4.45907 25.023C4.81472 25.252 5.19606 25.4459 5.59682 25.6159C6.4016 25.9438 7.28127 26.1625 8.24569 26.2714C7.35877 26.7015 6.30972 26.7736 5.3128 26.5815C4.30544 26.38 3.35893 25.894 2.59719 25.1439C1.83187 24.3832 1.39034 23.3831 1.21003 22.3986C1.03135 21.4082 1.06369 20.4036 1.36368 19.4747Z" fill="#B0BEC5"/>
<path id="Vector_7" d="M4.30985 19.8934C4.46528 20.4794 4.64463 20.965 4.86502 21.4066C5.08239 21.8475 5.34103 22.2315 5.63719 22.5966C5.94183 22.9542 6.29083 23.2915 6.67603 23.6386C6.86822 23.8136 7.08203 23.9686 7.28139 24.165C7.49714 24.3367 7.71428 24.5153 7.93042 24.7454C7.62817 24.7737 7.33131 24.7581 7.0325 24.7257C6.74568 24.6611 6.449 24.5969 6.17004 24.4793C5.61211 24.2441 5.08765 23.8853 4.67642 23.3952C4.27586 22.9015 3.99733 22.2919 3.92377 21.6666C3.84639 21.0435 3.94985 20.3981 4.30985 19.8934Z" fill="#90A4AE"/>
</g>
</g>
<defs>
<radialGradient id="paint0_radial_69_961" cx="0" cy="0" r="1" gradientUnits="userSpaceOnUse" gradientTransform="translate(15.802 10.6467) rotate(-29.8545) scale(28.44)">
<stop offset="0.353" stop-color="#FFCA28"/>
<stop offset="0.872" stop-color="#FFB300"/>
</radialGradient>
<clipPath id="clip0_69_961">
<rect width="40" height="40" fill="white"/>
</clipPath>
</defs>
</svg>
